G04 #@! TF.GenerationSoftware,KiCad,Pcbnew,(5.1.4)-1*
G04 #@! TF.CreationDate,2019-09-27T16:29:42+02:00*
G04 #@! TF.ProjectId,JoyAdapter,4a6f7941-6461-4707-9465-722e6b696361,rev?*
G04 #@! TF.SameCoordinates,Original*
G04 #@! TF.FileFunction,Copper,L1,Top*
G04 #@! TF.FilePolarity,Positive*
%FSLAX46Y46*%
G04 Gerber Fmt 4.6, Leading zero omitted, Abs format (unit mm)*
G04 Created by KiCad (PCBNEW (5.1.4)-1) date 2019-09-27 16:29:42*
%MOMM*%
%LPD*%
G04 APERTURE LIST*
%ADD10O,1.000000X1.000000*%
%ADD11R,1.000000X1.000000*%
%ADD12C,0.136863*%
%ADD13C,0.100000*%
%ADD14C,0.250000*%
%ADD15R,3.480000X1.846667*%
%ADD16O,4.000000X1.600000*%
%ADD17R,2.000000X1.100000*%
%ADD18R,1.060000X0.650000*%
%ADD19C,1.150000*%
%ADD20C,1.800000*%
%ADD21R,1.800000X1.800000*%
%ADD22C,1.050000*%
%ADD23C,0.800000*%
%ADD24C,0.508000*%
%ADD25C,0.203200*%
%ADD26C,0.400000*%
%ADD27C,0.200000*%
G04 APERTURE END LIST*
D10*
X6985000Y2794000D03*
D11*
X6985000Y4064000D03*
D10*
X15240000Y6858000D03*
D11*
X13970000Y6858000D03*
D12*
X9168000Y6188500D03*
D13*
G36*
X9256779Y6565135D02*
G01*
X9265221Y6562575D01*
X9273001Y6558416D01*
X9279820Y6552820D01*
X9285416Y6546001D01*
X9289575Y6538221D01*
X9292135Y6529779D01*
X9293000Y6521000D01*
X9293000Y5856000D01*
X9292135Y5847221D01*
X9289575Y5838779D01*
X9285416Y5830999D01*
X9279820Y5824180D01*
X9273001Y5818584D01*
X9265221Y5814425D01*
X9256779Y5811865D01*
X9248000Y5811000D01*
X9221640Y5811000D01*
X9212861Y5811865D01*
X9204419Y5814425D01*
X9196639Y5818584D01*
X9189820Y5824180D01*
X9056180Y5957820D01*
X9050584Y5964639D01*
X9046425Y5972419D01*
X9043865Y5980861D01*
X9043000Y5989640D01*
X9043000Y6521000D01*
X9043865Y6529779D01*
X9046425Y6538221D01*
X9050584Y6546001D01*
X9056180Y6552820D01*
X9062999Y6558416D01*
X9070779Y6562575D01*
X9079221Y6565135D01*
X9088000Y6566000D01*
X9248000Y6566000D01*
X9256779Y6565135D01*
X9256779Y6565135D01*
G37*
G36*
X9736626Y6565699D02*
G01*
X9742693Y6564799D01*
X9748643Y6563309D01*
X9754418Y6561242D01*
X9759962Y6558620D01*
X9765223Y6555467D01*
X9770150Y6551813D01*
X9774694Y6547694D01*
X9778813Y6543150D01*
X9782467Y6538223D01*
X9785620Y6532962D01*
X9788242Y6527418D01*
X9790309Y6521643D01*
X9791799Y6515693D01*
X9792699Y6509626D01*
X9793000Y6503500D01*
X9793000Y5753500D01*
X9792699Y5747374D01*
X9791799Y5741307D01*
X9790309Y5735357D01*
X9788242Y5729582D01*
X9785620Y5724038D01*
X9782467Y5718777D01*
X9778813Y5713850D01*
X9774694Y5709306D01*
X9770150Y5705187D01*
X9765223Y5701533D01*
X9759962Y5698380D01*
X9754418Y5695758D01*
X9748643Y5693691D01*
X9742693Y5692201D01*
X9736626Y5691301D01*
X9730500Y5691000D01*
X9605500Y5691000D01*
X9599374Y5691301D01*
X9593307Y5692201D01*
X9587357Y5693691D01*
X9581582Y5695758D01*
X9576038Y5698380D01*
X9570777Y5701533D01*
X9565850Y5705187D01*
X9561306Y5709306D01*
X9557187Y5713850D01*
X9553533Y5718777D01*
X9550380Y5724038D01*
X9547758Y5729582D01*
X9545691Y5735357D01*
X9544201Y5741307D01*
X9543301Y5747374D01*
X9543000Y5753500D01*
X9543000Y6503500D01*
X9543301Y6509626D01*
X9544201Y6515693D01*
X9545691Y6521643D01*
X9547758Y6527418D01*
X9550380Y6532962D01*
X9553533Y6538223D01*
X9557187Y6543150D01*
X9561306Y6547694D01*
X9565850Y6551813D01*
X9570777Y6555467D01*
X9576038Y6558620D01*
X9581582Y6561242D01*
X9587357Y6563309D01*
X9593307Y6564799D01*
X9599374Y6565699D01*
X9605500Y6566000D01*
X9730500Y6566000D01*
X9736626Y6565699D01*
X9736626Y6565699D01*
G37*
D14*
X9668000Y6128500D03*
D13*
G36*
X10236626Y6565699D02*
G01*
X10242693Y6564799D01*
X10248643Y6563309D01*
X10254418Y6561242D01*
X10259962Y6558620D01*
X10265223Y6555467D01*
X10270150Y6551813D01*
X10274694Y6547694D01*
X10278813Y6543150D01*
X10282467Y6538223D01*
X10285620Y6532962D01*
X10288242Y6527418D01*
X10290309Y6521643D01*
X10291799Y6515693D01*
X10292699Y6509626D01*
X10293000Y6503500D01*
X10293000Y5753500D01*
X10292699Y5747374D01*
X10291799Y5741307D01*
X10290309Y5735357D01*
X10288242Y5729582D01*
X10285620Y5724038D01*
X10282467Y5718777D01*
X10278813Y5713850D01*
X10274694Y5709306D01*
X10270150Y5705187D01*
X10265223Y5701533D01*
X10259962Y5698380D01*
X10254418Y5695758D01*
X10248643Y5693691D01*
X10242693Y5692201D01*
X10236626Y5691301D01*
X10230500Y5691000D01*
X10105500Y5691000D01*
X10099374Y5691301D01*
X10093307Y5692201D01*
X10087357Y5693691D01*
X10081582Y5695758D01*
X10076038Y5698380D01*
X10070777Y5701533D01*
X10065850Y5705187D01*
X10061306Y5709306D01*
X10057187Y5713850D01*
X10053533Y5718777D01*
X10050380Y5724038D01*
X10047758Y5729582D01*
X10045691Y5735357D01*
X10044201Y5741307D01*
X10043301Y5747374D01*
X10043000Y5753500D01*
X10043000Y6503500D01*
X10043301Y6509626D01*
X10044201Y6515693D01*
X10045691Y6521643D01*
X10047758Y6527418D01*
X10050380Y6532962D01*
X10053533Y6538223D01*
X10057187Y6543150D01*
X10061306Y6547694D01*
X10065850Y6551813D01*
X10070777Y6555467D01*
X10076038Y6558620D01*
X10081582Y6561242D01*
X10087357Y6563309D01*
X10093307Y6564799D01*
X10099374Y6565699D01*
X10105500Y6566000D01*
X10230500Y6566000D01*
X10236626Y6565699D01*
X10236626Y6565699D01*
G37*
D14*
X10168000Y6128500D03*
D13*
G36*
X10736626Y6565699D02*
G01*
X10742693Y6564799D01*
X10748643Y6563309D01*
X10754418Y6561242D01*
X10759962Y6558620D01*
X10765223Y6555467D01*
X10770150Y6551813D01*
X10774694Y6547694D01*
X10778813Y6543150D01*
X10782467Y6538223D01*
X10785620Y6532962D01*
X10788242Y6527418D01*
X10790309Y6521643D01*
X10791799Y6515693D01*
X10792699Y6509626D01*
X10793000Y6503500D01*
X10793000Y5753500D01*
X10792699Y5747374D01*
X10791799Y5741307D01*
X10790309Y5735357D01*
X10788242Y5729582D01*
X10785620Y5724038D01*
X10782467Y5718777D01*
X10778813Y5713850D01*
X10774694Y5709306D01*
X10770150Y5705187D01*
X10765223Y5701533D01*
X10759962Y5698380D01*
X10754418Y5695758D01*
X10748643Y5693691D01*
X10742693Y5692201D01*
X10736626Y5691301D01*
X10730500Y5691000D01*
X10605500Y5691000D01*
X10599374Y5691301D01*
X10593307Y5692201D01*
X10587357Y5693691D01*
X10581582Y5695758D01*
X10576038Y5698380D01*
X10570777Y5701533D01*
X10565850Y5705187D01*
X10561306Y5709306D01*
X10557187Y5713850D01*
X10553533Y5718777D01*
X10550380Y5724038D01*
X10547758Y5729582D01*
X10545691Y5735357D01*
X10544201Y5741307D01*
X10543301Y5747374D01*
X10543000Y5753500D01*
X10543000Y6503500D01*
X10543301Y6509626D01*
X10544201Y6515693D01*
X10545691Y6521643D01*
X10547758Y6527418D01*
X10550380Y6532962D01*
X10553533Y6538223D01*
X10557187Y6543150D01*
X10561306Y6547694D01*
X10565850Y6551813D01*
X10570777Y6555467D01*
X10576038Y6558620D01*
X10581582Y6561242D01*
X10587357Y6563309D01*
X10593307Y6564799D01*
X10599374Y6565699D01*
X10605500Y6566000D01*
X10730500Y6566000D01*
X10736626Y6565699D01*
X10736626Y6565699D01*
G37*
D14*
X10668000Y6128500D03*
D13*
G36*
X11236626Y6565699D02*
G01*
X11242693Y6564799D01*
X11248643Y6563309D01*
X11254418Y6561242D01*
X11259962Y6558620D01*
X11265223Y6555467D01*
X11270150Y6551813D01*
X11274694Y6547694D01*
X11278813Y6543150D01*
X11282467Y6538223D01*
X11285620Y6532962D01*
X11288242Y6527418D01*
X11290309Y6521643D01*
X11291799Y6515693D01*
X11292699Y6509626D01*
X11293000Y6503500D01*
X11293000Y5753500D01*
X11292699Y5747374D01*
X11291799Y5741307D01*
X11290309Y5735357D01*
X11288242Y5729582D01*
X11285620Y5724038D01*
X11282467Y5718777D01*
X11278813Y5713850D01*
X11274694Y5709306D01*
X11270150Y5705187D01*
X11265223Y5701533D01*
X11259962Y5698380D01*
X11254418Y5695758D01*
X11248643Y5693691D01*
X11242693Y5692201D01*
X11236626Y5691301D01*
X11230500Y5691000D01*
X11105500Y5691000D01*
X11099374Y5691301D01*
X11093307Y5692201D01*
X11087357Y5693691D01*
X11081582Y5695758D01*
X11076038Y5698380D01*
X11070777Y5701533D01*
X11065850Y5705187D01*
X11061306Y5709306D01*
X11057187Y5713850D01*
X11053533Y5718777D01*
X11050380Y5724038D01*
X11047758Y5729582D01*
X11045691Y5735357D01*
X11044201Y5741307D01*
X11043301Y5747374D01*
X11043000Y5753500D01*
X11043000Y6503500D01*
X11043301Y6509626D01*
X11044201Y6515693D01*
X11045691Y6521643D01*
X11047758Y6527418D01*
X11050380Y6532962D01*
X11053533Y6538223D01*
X11057187Y6543150D01*
X11061306Y6547694D01*
X11065850Y6551813D01*
X11070777Y6555467D01*
X11076038Y6558620D01*
X11081582Y6561242D01*
X11087357Y6563309D01*
X11093307Y6564799D01*
X11099374Y6565699D01*
X11105500Y6566000D01*
X11230500Y6566000D01*
X11236626Y6565699D01*
X11236626Y6565699D01*
G37*
D14*
X11168000Y6128500D03*
D13*
G36*
X11736626Y6565699D02*
G01*
X11742693Y6564799D01*
X11748643Y6563309D01*
X11754418Y6561242D01*
X11759962Y6558620D01*
X11765223Y6555467D01*
X11770150Y6551813D01*
X11774694Y6547694D01*
X11778813Y6543150D01*
X11782467Y6538223D01*
X11785620Y6532962D01*
X11788242Y6527418D01*
X11790309Y6521643D01*
X11791799Y6515693D01*
X11792699Y6509626D01*
X11793000Y6503500D01*
X11793000Y5753500D01*
X11792699Y5747374D01*
X11791799Y5741307D01*
X11790309Y5735357D01*
X11788242Y5729582D01*
X11785620Y5724038D01*
X11782467Y5718777D01*
X11778813Y5713850D01*
X11774694Y5709306D01*
X11770150Y5705187D01*
X11765223Y5701533D01*
X11759962Y5698380D01*
X11754418Y5695758D01*
X11748643Y5693691D01*
X11742693Y5692201D01*
X11736626Y5691301D01*
X11730500Y5691000D01*
X11605500Y5691000D01*
X11599374Y5691301D01*
X11593307Y5692201D01*
X11587357Y5693691D01*
X11581582Y5695758D01*
X11576038Y5698380D01*
X11570777Y5701533D01*
X11565850Y5705187D01*
X11561306Y5709306D01*
X11557187Y5713850D01*
X11553533Y5718777D01*
X11550380Y5724038D01*
X11547758Y5729582D01*
X11545691Y5735357D01*
X11544201Y5741307D01*
X11543301Y5747374D01*
X11543000Y5753500D01*
X11543000Y6503500D01*
X11543301Y6509626D01*
X11544201Y6515693D01*
X11545691Y6521643D01*
X11547758Y6527418D01*
X11550380Y6532962D01*
X11553533Y6538223D01*
X11557187Y6543150D01*
X11561306Y6547694D01*
X11565850Y6551813D01*
X11570777Y6555467D01*
X11576038Y6558620D01*
X11581582Y6561242D01*
X11587357Y6563309D01*
X11593307Y6564799D01*
X11599374Y6565699D01*
X11605500Y6566000D01*
X11730500Y6566000D01*
X11736626Y6565699D01*
X11736626Y6565699D01*
G37*
D14*
X11668000Y6128500D03*
D12*
X12168000Y6188500D03*
D13*
G36*
X12256779Y6565135D02*
G01*
X12265221Y6562575D01*
X12273001Y6558416D01*
X12279820Y6552820D01*
X12285416Y6546001D01*
X12289575Y6538221D01*
X12292135Y6529779D01*
X12293000Y6521000D01*
X12293000Y5989640D01*
X12292135Y5980861D01*
X12289575Y5972419D01*
X12285416Y5964639D01*
X12279820Y5957820D01*
X12146180Y5824180D01*
X12139361Y5818584D01*
X12131581Y5814425D01*
X12123139Y5811865D01*
X12114360Y5811000D01*
X12088000Y5811000D01*
X12079221Y5811865D01*
X12070779Y5814425D01*
X12062999Y5818584D01*
X12056180Y5824180D01*
X12050584Y5830999D01*
X12046425Y5838779D01*
X12043865Y5847221D01*
X12043000Y5856000D01*
X12043000Y6521000D01*
X12043865Y6529779D01*
X12046425Y6538221D01*
X12050584Y6546001D01*
X12056180Y6552820D01*
X12062999Y6558416D01*
X12070779Y6562575D01*
X12079221Y6565135D01*
X12088000Y6566000D01*
X12248000Y6566000D01*
X12256779Y6565135D01*
X12256779Y6565135D01*
G37*
D12*
X12665500Y5691000D03*
D13*
G36*
X13006779Y5815135D02*
G01*
X13015221Y5812575D01*
X13023001Y5808416D01*
X13029820Y5802820D01*
X13035416Y5796001D01*
X13039575Y5788221D01*
X13042135Y5779779D01*
X13043000Y5771000D01*
X13043000Y5611000D01*
X13042135Y5602221D01*
X13039575Y5593779D01*
X13035416Y5585999D01*
X13029820Y5579180D01*
X13023001Y5573584D01*
X13015221Y5569425D01*
X13006779Y5566865D01*
X12998000Y5566000D01*
X12333000Y5566000D01*
X12324221Y5566865D01*
X12315779Y5569425D01*
X12307999Y5573584D01*
X12301180Y5579180D01*
X12295584Y5585999D01*
X12291425Y5593779D01*
X12288865Y5602221D01*
X12288000Y5611000D01*
X12288000Y5637360D01*
X12288865Y5646139D01*
X12291425Y5654581D01*
X12295584Y5662361D01*
X12301180Y5669180D01*
X12434820Y5802820D01*
X12441639Y5808416D01*
X12449419Y5812575D01*
X12457861Y5815135D01*
X12466640Y5816000D01*
X12998000Y5816000D01*
X13006779Y5815135D01*
X13006779Y5815135D01*
G37*
G36*
X12986626Y5315699D02*
G01*
X12992693Y5314799D01*
X12998643Y5313309D01*
X13004418Y5311242D01*
X13009962Y5308620D01*
X13015223Y5305467D01*
X13020150Y5301813D01*
X13024694Y5297694D01*
X13028813Y5293150D01*
X13032467Y5288223D01*
X13035620Y5282962D01*
X13038242Y5277418D01*
X13040309Y5271643D01*
X13041799Y5265693D01*
X13042699Y5259626D01*
X13043000Y5253500D01*
X13043000Y5128500D01*
X13042699Y5122374D01*
X13041799Y5116307D01*
X13040309Y5110357D01*
X13038242Y5104582D01*
X13035620Y5099038D01*
X13032467Y5093777D01*
X13028813Y5088850D01*
X13024694Y5084306D01*
X13020150Y5080187D01*
X13015223Y5076533D01*
X13009962Y5073380D01*
X13004418Y5070758D01*
X12998643Y5068691D01*
X12992693Y5067201D01*
X12986626Y5066301D01*
X12980500Y5066000D01*
X12230500Y5066000D01*
X12224374Y5066301D01*
X12218307Y5067201D01*
X12212357Y5068691D01*
X12206582Y5070758D01*
X12201038Y5073380D01*
X12195777Y5076533D01*
X12190850Y5080187D01*
X12186306Y5084306D01*
X12182187Y5088850D01*
X12178533Y5093777D01*
X12175380Y5099038D01*
X12172758Y5104582D01*
X12170691Y5110357D01*
X12169201Y5116307D01*
X12168301Y5122374D01*
X12168000Y5128500D01*
X12168000Y5253500D01*
X12168301Y5259626D01*
X12169201Y5265693D01*
X12170691Y5271643D01*
X12172758Y5277418D01*
X12175380Y5282962D01*
X12178533Y5288223D01*
X12182187Y5293150D01*
X12186306Y5297694D01*
X12190850Y5301813D01*
X12195777Y5305467D01*
X12201038Y5308620D01*
X12206582Y5311242D01*
X12212357Y5313309D01*
X12218307Y5314799D01*
X12224374Y5315699D01*
X12230500Y5316000D01*
X12980500Y5316000D01*
X12986626Y5315699D01*
X12986626Y5315699D01*
G37*
D14*
X12605500Y5191000D03*
D13*
G36*
X12986626Y4815699D02*
G01*
X12992693Y4814799D01*
X12998643Y4813309D01*
X13004418Y4811242D01*
X13009962Y4808620D01*
X13015223Y4805467D01*
X13020150Y4801813D01*
X13024694Y4797694D01*
X13028813Y4793150D01*
X13032467Y4788223D01*
X13035620Y4782962D01*
X13038242Y4777418D01*
X13040309Y4771643D01*
X13041799Y4765693D01*
X13042699Y4759626D01*
X13043000Y4753500D01*
X13043000Y4628500D01*
X13042699Y4622374D01*
X13041799Y4616307D01*
X13040309Y4610357D01*
X13038242Y4604582D01*
X13035620Y4599038D01*
X13032467Y4593777D01*
X13028813Y4588850D01*
X13024694Y4584306D01*
X13020150Y4580187D01*
X13015223Y4576533D01*
X13009962Y4573380D01*
X13004418Y4570758D01*
X12998643Y4568691D01*
X12992693Y4567201D01*
X12986626Y4566301D01*
X12980500Y4566000D01*
X12230500Y4566000D01*
X12224374Y4566301D01*
X12218307Y4567201D01*
X12212357Y4568691D01*
X12206582Y4570758D01*
X12201038Y4573380D01*
X12195777Y4576533D01*
X12190850Y4580187D01*
X12186306Y4584306D01*
X12182187Y4588850D01*
X12178533Y4593777D01*
X12175380Y4599038D01*
X12172758Y4604582D01*
X12170691Y4610357D01*
X12169201Y4616307D01*
X12168301Y4622374D01*
X12168000Y4628500D01*
X12168000Y4753500D01*
X12168301Y4759626D01*
X12169201Y4765693D01*
X12170691Y4771643D01*
X12172758Y4777418D01*
X12175380Y4782962D01*
X12178533Y4788223D01*
X12182187Y4793150D01*
X12186306Y4797694D01*
X12190850Y4801813D01*
X12195777Y4805467D01*
X12201038Y4808620D01*
X12206582Y4811242D01*
X12212357Y4813309D01*
X12218307Y4814799D01*
X12224374Y4815699D01*
X12230500Y4816000D01*
X12980500Y4816000D01*
X12986626Y4815699D01*
X12986626Y4815699D01*
G37*
D14*
X12605500Y4691000D03*
D13*
G36*
X12986626Y4315699D02*
G01*
X12992693Y4314799D01*
X12998643Y4313309D01*
X13004418Y4311242D01*
X13009962Y4308620D01*
X13015223Y4305467D01*
X13020150Y4301813D01*
X13024694Y4297694D01*
X13028813Y4293150D01*
X13032467Y4288223D01*
X13035620Y4282962D01*
X13038242Y4277418D01*
X13040309Y4271643D01*
X13041799Y4265693D01*
X13042699Y4259626D01*
X13043000Y4253500D01*
X13043000Y4128500D01*
X13042699Y4122374D01*
X13041799Y4116307D01*
X13040309Y4110357D01*
X13038242Y4104582D01*
X13035620Y4099038D01*
X13032467Y4093777D01*
X13028813Y4088850D01*
X13024694Y4084306D01*
X13020150Y4080187D01*
X13015223Y4076533D01*
X13009962Y4073380D01*
X13004418Y4070758D01*
X12998643Y4068691D01*
X12992693Y4067201D01*
X12986626Y4066301D01*
X12980500Y4066000D01*
X12230500Y4066000D01*
X12224374Y4066301D01*
X12218307Y4067201D01*
X12212357Y4068691D01*
X12206582Y4070758D01*
X12201038Y4073380D01*
X12195777Y4076533D01*
X12190850Y4080187D01*
X12186306Y4084306D01*
X12182187Y4088850D01*
X12178533Y4093777D01*
X12175380Y4099038D01*
X12172758Y4104582D01*
X12170691Y4110357D01*
X12169201Y4116307D01*
X12168301Y4122374D01*
X12168000Y4128500D01*
X12168000Y4253500D01*
X12168301Y4259626D01*
X12169201Y4265693D01*
X12170691Y4271643D01*
X12172758Y4277418D01*
X12175380Y4282962D01*
X12178533Y4288223D01*
X12182187Y4293150D01*
X12186306Y4297694D01*
X12190850Y4301813D01*
X12195777Y4305467D01*
X12201038Y4308620D01*
X12206582Y4311242D01*
X12212357Y4313309D01*
X12218307Y4314799D01*
X12224374Y4315699D01*
X12230500Y4316000D01*
X12980500Y4316000D01*
X12986626Y4315699D01*
X12986626Y4315699D01*
G37*
D14*
X12605500Y4191000D03*
D13*
G36*
X12986626Y3815699D02*
G01*
X12992693Y3814799D01*
X12998643Y3813309D01*
X13004418Y3811242D01*
X13009962Y3808620D01*
X13015223Y3805467D01*
X13020150Y3801813D01*
X13024694Y3797694D01*
X13028813Y3793150D01*
X13032467Y3788223D01*
X13035620Y3782962D01*
X13038242Y3777418D01*
X13040309Y3771643D01*
X13041799Y3765693D01*
X13042699Y3759626D01*
X13043000Y3753500D01*
X13043000Y3628500D01*
X13042699Y3622374D01*
X13041799Y3616307D01*
X13040309Y3610357D01*
X13038242Y3604582D01*
X13035620Y3599038D01*
X13032467Y3593777D01*
X13028813Y3588850D01*
X13024694Y3584306D01*
X13020150Y3580187D01*
X13015223Y3576533D01*
X13009962Y3573380D01*
X13004418Y3570758D01*
X12998643Y3568691D01*
X12992693Y3567201D01*
X12986626Y3566301D01*
X12980500Y3566000D01*
X12230500Y3566000D01*
X12224374Y3566301D01*
X12218307Y3567201D01*
X12212357Y3568691D01*
X12206582Y3570758D01*
X12201038Y3573380D01*
X12195777Y3576533D01*
X12190850Y3580187D01*
X12186306Y3584306D01*
X12182187Y3588850D01*
X12178533Y3593777D01*
X12175380Y3599038D01*
X12172758Y3604582D01*
X12170691Y3610357D01*
X12169201Y3616307D01*
X12168301Y3622374D01*
X12168000Y3628500D01*
X12168000Y3753500D01*
X12168301Y3759626D01*
X12169201Y3765693D01*
X12170691Y3771643D01*
X12172758Y3777418D01*
X12175380Y3782962D01*
X12178533Y3788223D01*
X12182187Y3793150D01*
X12186306Y3797694D01*
X12190850Y3801813D01*
X12195777Y3805467D01*
X12201038Y3808620D01*
X12206582Y3811242D01*
X12212357Y3813309D01*
X12218307Y3814799D01*
X12224374Y3815699D01*
X12230500Y3816000D01*
X12980500Y3816000D01*
X12986626Y3815699D01*
X12986626Y3815699D01*
G37*
D14*
X12605500Y3691000D03*
D13*
G36*
X12986626Y3315699D02*
G01*
X12992693Y3314799D01*
X12998643Y3313309D01*
X13004418Y3311242D01*
X13009962Y3308620D01*
X13015223Y3305467D01*
X13020150Y3301813D01*
X13024694Y3297694D01*
X13028813Y3293150D01*
X13032467Y3288223D01*
X13035620Y3282962D01*
X13038242Y3277418D01*
X13040309Y3271643D01*
X13041799Y3265693D01*
X13042699Y3259626D01*
X13043000Y3253500D01*
X13043000Y3128500D01*
X13042699Y3122374D01*
X13041799Y3116307D01*
X13040309Y3110357D01*
X13038242Y3104582D01*
X13035620Y3099038D01*
X13032467Y3093777D01*
X13028813Y3088850D01*
X13024694Y3084306D01*
X13020150Y3080187D01*
X13015223Y3076533D01*
X13009962Y3073380D01*
X13004418Y3070758D01*
X12998643Y3068691D01*
X12992693Y3067201D01*
X12986626Y3066301D01*
X12980500Y3066000D01*
X12230500Y3066000D01*
X12224374Y3066301D01*
X12218307Y3067201D01*
X12212357Y3068691D01*
X12206582Y3070758D01*
X12201038Y3073380D01*
X12195777Y3076533D01*
X12190850Y3080187D01*
X12186306Y3084306D01*
X12182187Y3088850D01*
X12178533Y3093777D01*
X12175380Y3099038D01*
X12172758Y3104582D01*
X12170691Y3110357D01*
X12169201Y3116307D01*
X12168301Y3122374D01*
X12168000Y3128500D01*
X12168000Y3253500D01*
X12168301Y3259626D01*
X12169201Y3265693D01*
X12170691Y3271643D01*
X12172758Y3277418D01*
X12175380Y3282962D01*
X12178533Y3288223D01*
X12182187Y3293150D01*
X12186306Y3297694D01*
X12190850Y3301813D01*
X12195777Y3305467D01*
X12201038Y3308620D01*
X12206582Y3311242D01*
X12212357Y3313309D01*
X12218307Y3314799D01*
X12224374Y3315699D01*
X12230500Y3316000D01*
X12980500Y3316000D01*
X12986626Y3315699D01*
X12986626Y3315699D01*
G37*
D14*
X12605500Y3191000D03*
D12*
X12665500Y2691000D03*
D13*
G36*
X13006779Y2815135D02*
G01*
X13015221Y2812575D01*
X13023001Y2808416D01*
X13029820Y2802820D01*
X13035416Y2796001D01*
X13039575Y2788221D01*
X13042135Y2779779D01*
X13043000Y2771000D01*
X13043000Y2611000D01*
X13042135Y2602221D01*
X13039575Y2593779D01*
X13035416Y2585999D01*
X13029820Y2579180D01*
X13023001Y2573584D01*
X13015221Y2569425D01*
X13006779Y2566865D01*
X12998000Y2566000D01*
X12466640Y2566000D01*
X12457861Y2566865D01*
X12449419Y2569425D01*
X12441639Y2573584D01*
X12434820Y2579180D01*
X12301180Y2712820D01*
X12295584Y2719639D01*
X12291425Y2727419D01*
X12288865Y2735861D01*
X12288000Y2744640D01*
X12288000Y2771000D01*
X12288865Y2779779D01*
X12291425Y2788221D01*
X12295584Y2796001D01*
X12301180Y2802820D01*
X12307999Y2808416D01*
X12315779Y2812575D01*
X12324221Y2815135D01*
X12333000Y2816000D01*
X12998000Y2816000D01*
X13006779Y2815135D01*
X13006779Y2815135D01*
G37*
D12*
X12168000Y2193500D03*
D13*
G36*
X12123139Y2570135D02*
G01*
X12131581Y2567575D01*
X12139361Y2563416D01*
X12146180Y2557820D01*
X12279820Y2424180D01*
X12285416Y2417361D01*
X12289575Y2409581D01*
X12292135Y2401139D01*
X12293000Y2392360D01*
X12293000Y1861000D01*
X12292135Y1852221D01*
X12289575Y1843779D01*
X12285416Y1835999D01*
X12279820Y1829180D01*
X12273001Y1823584D01*
X12265221Y1819425D01*
X12256779Y1816865D01*
X12248000Y1816000D01*
X12088000Y1816000D01*
X12079221Y1816865D01*
X12070779Y1819425D01*
X12062999Y1823584D01*
X12056180Y1829180D01*
X12050584Y1835999D01*
X12046425Y1843779D01*
X12043865Y1852221D01*
X12043000Y1861000D01*
X12043000Y2526000D01*
X12043865Y2534779D01*
X12046425Y2543221D01*
X12050584Y2551001D01*
X12056180Y2557820D01*
X12062999Y2563416D01*
X12070779Y2567575D01*
X12079221Y2570135D01*
X12088000Y2571000D01*
X12114360Y2571000D01*
X12123139Y2570135D01*
X12123139Y2570135D01*
G37*
G36*
X11736626Y2690699D02*
G01*
X11742693Y2689799D01*
X11748643Y2688309D01*
X11754418Y2686242D01*
X11759962Y2683620D01*
X11765223Y2680467D01*
X11770150Y2676813D01*
X11774694Y2672694D01*
X11778813Y2668150D01*
X11782467Y2663223D01*
X11785620Y2657962D01*
X11788242Y2652418D01*
X11790309Y2646643D01*
X11791799Y2640693D01*
X11792699Y2634626D01*
X11793000Y2628500D01*
X11793000Y1878500D01*
X11792699Y1872374D01*
X11791799Y1866307D01*
X11790309Y1860357D01*
X11788242Y1854582D01*
X11785620Y1849038D01*
X11782467Y1843777D01*
X11778813Y1838850D01*
X11774694Y1834306D01*
X11770150Y1830187D01*
X11765223Y1826533D01*
X11759962Y1823380D01*
X11754418Y1820758D01*
X11748643Y1818691D01*
X11742693Y1817201D01*
X11736626Y1816301D01*
X11730500Y1816000D01*
X11605500Y1816000D01*
X11599374Y1816301D01*
X11593307Y1817201D01*
X11587357Y1818691D01*
X11581582Y1820758D01*
X11576038Y1823380D01*
X11570777Y1826533D01*
X11565850Y1830187D01*
X11561306Y1834306D01*
X11557187Y1838850D01*
X11553533Y1843777D01*
X11550380Y1849038D01*
X11547758Y1854582D01*
X11545691Y1860357D01*
X11544201Y1866307D01*
X11543301Y1872374D01*
X11543000Y1878500D01*
X11543000Y2628500D01*
X11543301Y2634626D01*
X11544201Y2640693D01*
X11545691Y2646643D01*
X11547758Y2652418D01*
X11550380Y2657962D01*
X11553533Y2663223D01*
X11557187Y2668150D01*
X11561306Y2672694D01*
X11565850Y2676813D01*
X11570777Y2680467D01*
X11576038Y2683620D01*
X11581582Y2686242D01*
X11587357Y2688309D01*
X11593307Y2689799D01*
X11599374Y2690699D01*
X11605500Y2691000D01*
X11730500Y2691000D01*
X11736626Y2690699D01*
X11736626Y2690699D01*
G37*
D14*
X11668000Y2253500D03*
D13*
G36*
X11236626Y2690699D02*
G01*
X11242693Y2689799D01*
X11248643Y2688309D01*
X11254418Y2686242D01*
X11259962Y2683620D01*
X11265223Y2680467D01*
X11270150Y2676813D01*
X11274694Y2672694D01*
X11278813Y2668150D01*
X11282467Y2663223D01*
X11285620Y2657962D01*
X11288242Y2652418D01*
X11290309Y2646643D01*
X11291799Y2640693D01*
X11292699Y2634626D01*
X11293000Y2628500D01*
X11293000Y1878500D01*
X11292699Y1872374D01*
X11291799Y1866307D01*
X11290309Y1860357D01*
X11288242Y1854582D01*
X11285620Y1849038D01*
X11282467Y1843777D01*
X11278813Y1838850D01*
X11274694Y1834306D01*
X11270150Y1830187D01*
X11265223Y1826533D01*
X11259962Y1823380D01*
X11254418Y1820758D01*
X11248643Y1818691D01*
X11242693Y1817201D01*
X11236626Y1816301D01*
X11230500Y1816000D01*
X11105500Y1816000D01*
X11099374Y1816301D01*
X11093307Y1817201D01*
X11087357Y1818691D01*
X11081582Y1820758D01*
X11076038Y1823380D01*
X11070777Y1826533D01*
X11065850Y1830187D01*
X11061306Y1834306D01*
X11057187Y1838850D01*
X11053533Y1843777D01*
X11050380Y1849038D01*
X11047758Y1854582D01*
X11045691Y1860357D01*
X11044201Y1866307D01*
X11043301Y1872374D01*
X11043000Y1878500D01*
X11043000Y2628500D01*
X11043301Y2634626D01*
X11044201Y2640693D01*
X11045691Y2646643D01*
X11047758Y2652418D01*
X11050380Y2657962D01*
X11053533Y2663223D01*
X11057187Y2668150D01*
X11061306Y2672694D01*
X11065850Y2676813D01*
X11070777Y2680467D01*
X11076038Y2683620D01*
X11081582Y2686242D01*
X11087357Y2688309D01*
X11093307Y2689799D01*
X11099374Y2690699D01*
X11105500Y2691000D01*
X11230500Y2691000D01*
X11236626Y2690699D01*
X11236626Y2690699D01*
G37*
D14*
X11168000Y2253500D03*
D13*
G36*
X10736626Y2690699D02*
G01*
X10742693Y2689799D01*
X10748643Y2688309D01*
X10754418Y2686242D01*
X10759962Y2683620D01*
X10765223Y2680467D01*
X10770150Y2676813D01*
X10774694Y2672694D01*
X10778813Y2668150D01*
X10782467Y2663223D01*
X10785620Y2657962D01*
X10788242Y2652418D01*
X10790309Y2646643D01*
X10791799Y2640693D01*
X10792699Y2634626D01*
X10793000Y2628500D01*
X10793000Y1878500D01*
X10792699Y1872374D01*
X10791799Y1866307D01*
X10790309Y1860357D01*
X10788242Y1854582D01*
X10785620Y1849038D01*
X10782467Y1843777D01*
X10778813Y1838850D01*
X10774694Y1834306D01*
X10770150Y1830187D01*
X10765223Y1826533D01*
X10759962Y1823380D01*
X10754418Y1820758D01*
X10748643Y1818691D01*
X10742693Y1817201D01*
X10736626Y1816301D01*
X10730500Y1816000D01*
X10605500Y1816000D01*
X10599374Y1816301D01*
X10593307Y1817201D01*
X10587357Y1818691D01*
X10581582Y1820758D01*
X10576038Y1823380D01*
X10570777Y1826533D01*
X10565850Y1830187D01*
X10561306Y1834306D01*
X10557187Y1838850D01*
X10553533Y1843777D01*
X10550380Y1849038D01*
X10547758Y1854582D01*
X10545691Y1860357D01*
X10544201Y1866307D01*
X10543301Y1872374D01*
X10543000Y1878500D01*
X10543000Y2628500D01*
X10543301Y2634626D01*
X10544201Y2640693D01*
X10545691Y2646643D01*
X10547758Y2652418D01*
X10550380Y2657962D01*
X10553533Y2663223D01*
X10557187Y2668150D01*
X10561306Y2672694D01*
X10565850Y2676813D01*
X10570777Y2680467D01*
X10576038Y2683620D01*
X10581582Y2686242D01*
X10587357Y2688309D01*
X10593307Y2689799D01*
X10599374Y2690699D01*
X10605500Y2691000D01*
X10730500Y2691000D01*
X10736626Y2690699D01*
X10736626Y2690699D01*
G37*
D14*
X10668000Y2253500D03*
D13*
G36*
X10236626Y2690699D02*
G01*
X10242693Y2689799D01*
X10248643Y2688309D01*
X10254418Y2686242D01*
X10259962Y2683620D01*
X10265223Y2680467D01*
X10270150Y2676813D01*
X10274694Y2672694D01*
X10278813Y2668150D01*
X10282467Y2663223D01*
X10285620Y2657962D01*
X10288242Y2652418D01*
X10290309Y2646643D01*
X10291799Y2640693D01*
X10292699Y2634626D01*
X10293000Y2628500D01*
X10293000Y1878500D01*
X10292699Y1872374D01*
X10291799Y1866307D01*
X10290309Y1860357D01*
X10288242Y1854582D01*
X10285620Y1849038D01*
X10282467Y1843777D01*
X10278813Y1838850D01*
X10274694Y1834306D01*
X10270150Y1830187D01*
X10265223Y1826533D01*
X10259962Y1823380D01*
X10254418Y1820758D01*
X10248643Y1818691D01*
X10242693Y1817201D01*
X10236626Y1816301D01*
X10230500Y1816000D01*
X10105500Y1816000D01*
X10099374Y1816301D01*
X10093307Y1817201D01*
X10087357Y1818691D01*
X10081582Y1820758D01*
X10076038Y1823380D01*
X10070777Y1826533D01*
X10065850Y1830187D01*
X10061306Y1834306D01*
X10057187Y1838850D01*
X10053533Y1843777D01*
X10050380Y1849038D01*
X10047758Y1854582D01*
X10045691Y1860357D01*
X10044201Y1866307D01*
X10043301Y1872374D01*
X10043000Y1878500D01*
X10043000Y2628500D01*
X10043301Y2634626D01*
X10044201Y2640693D01*
X10045691Y2646643D01*
X10047758Y2652418D01*
X10050380Y2657962D01*
X10053533Y2663223D01*
X10057187Y2668150D01*
X10061306Y2672694D01*
X10065850Y2676813D01*
X10070777Y2680467D01*
X10076038Y2683620D01*
X10081582Y2686242D01*
X10087357Y2688309D01*
X10093307Y2689799D01*
X10099374Y2690699D01*
X10105500Y2691000D01*
X10230500Y2691000D01*
X10236626Y2690699D01*
X10236626Y2690699D01*
G37*
D14*
X10168000Y2253500D03*
D13*
G36*
X9736626Y2690699D02*
G01*
X9742693Y2689799D01*
X9748643Y2688309D01*
X9754418Y2686242D01*
X9759962Y2683620D01*
X9765223Y2680467D01*
X9770150Y2676813D01*
X9774694Y2672694D01*
X9778813Y2668150D01*
X9782467Y2663223D01*
X9785620Y2657962D01*
X9788242Y2652418D01*
X9790309Y2646643D01*
X9791799Y2640693D01*
X9792699Y2634626D01*
X9793000Y2628500D01*
X9793000Y1878500D01*
X9792699Y1872374D01*
X9791799Y1866307D01*
X9790309Y1860357D01*
X9788242Y1854582D01*
X9785620Y1849038D01*
X9782467Y1843777D01*
X9778813Y1838850D01*
X9774694Y1834306D01*
X9770150Y1830187D01*
X9765223Y1826533D01*
X9759962Y1823380D01*
X9754418Y1820758D01*
X9748643Y1818691D01*
X9742693Y1817201D01*
X9736626Y1816301D01*
X9730500Y1816000D01*
X9605500Y1816000D01*
X9599374Y1816301D01*
X9593307Y1817201D01*
X9587357Y1818691D01*
X9581582Y1820758D01*
X9576038Y1823380D01*
X9570777Y1826533D01*
X9565850Y1830187D01*
X9561306Y1834306D01*
X9557187Y1838850D01*
X9553533Y1843777D01*
X9550380Y1849038D01*
X9547758Y1854582D01*
X9545691Y1860357D01*
X9544201Y1866307D01*
X9543301Y1872374D01*
X9543000Y1878500D01*
X9543000Y2628500D01*
X9543301Y2634626D01*
X9544201Y2640693D01*
X9545691Y2646643D01*
X9547758Y2652418D01*
X9550380Y2657962D01*
X9553533Y2663223D01*
X9557187Y2668150D01*
X9561306Y2672694D01*
X9565850Y2676813D01*
X9570777Y2680467D01*
X9576038Y2683620D01*
X9581582Y2686242D01*
X9587357Y2688309D01*
X9593307Y2689799D01*
X9599374Y2690699D01*
X9605500Y2691000D01*
X9730500Y2691000D01*
X9736626Y2690699D01*
X9736626Y2690699D01*
G37*
D14*
X9668000Y2253500D03*
D12*
X9168000Y2193500D03*
D13*
G36*
X9256779Y2570135D02*
G01*
X9265221Y2567575D01*
X9273001Y2563416D01*
X9279820Y2557820D01*
X9285416Y2551001D01*
X9289575Y2543221D01*
X9292135Y2534779D01*
X9293000Y2526000D01*
X9293000Y1861000D01*
X9292135Y1852221D01*
X9289575Y1843779D01*
X9285416Y1835999D01*
X9279820Y1829180D01*
X9273001Y1823584D01*
X9265221Y1819425D01*
X9256779Y1816865D01*
X9248000Y1816000D01*
X9088000Y1816000D01*
X9079221Y1816865D01*
X9070779Y1819425D01*
X9062999Y1823584D01*
X9056180Y1829180D01*
X9050584Y1835999D01*
X9046425Y1843779D01*
X9043865Y1852221D01*
X9043000Y1861000D01*
X9043000Y2392360D01*
X9043865Y2401139D01*
X9046425Y2409581D01*
X9050584Y2417361D01*
X9056180Y2424180D01*
X9189820Y2557820D01*
X9196639Y2563416D01*
X9204419Y2567575D01*
X9212861Y2570135D01*
X9221640Y2571000D01*
X9248000Y2571000D01*
X9256779Y2570135D01*
X9256779Y2570135D01*
G37*
D12*
X8670500Y2691000D03*
D13*
G36*
X9011779Y2815135D02*
G01*
X9020221Y2812575D01*
X9028001Y2808416D01*
X9034820Y2802820D01*
X9040416Y2796001D01*
X9044575Y2788221D01*
X9047135Y2779779D01*
X9048000Y2771000D01*
X9048000Y2744640D01*
X9047135Y2735861D01*
X9044575Y2727419D01*
X9040416Y2719639D01*
X9034820Y2712820D01*
X8901180Y2579180D01*
X8894361Y2573584D01*
X8886581Y2569425D01*
X8878139Y2566865D01*
X8869360Y2566000D01*
X8338000Y2566000D01*
X8329221Y2566865D01*
X8320779Y2569425D01*
X8312999Y2573584D01*
X8306180Y2579180D01*
X8300584Y2585999D01*
X8296425Y2593779D01*
X8293865Y2602221D01*
X8293000Y2611000D01*
X8293000Y2771000D01*
X8293865Y2779779D01*
X8296425Y2788221D01*
X8300584Y2796001D01*
X8306180Y2802820D01*
X8312999Y2808416D01*
X8320779Y2812575D01*
X8329221Y2815135D01*
X8338000Y2816000D01*
X9003000Y2816000D01*
X9011779Y2815135D01*
X9011779Y2815135D01*
G37*
G36*
X9111626Y3315699D02*
G01*
X9117693Y3314799D01*
X9123643Y3313309D01*
X9129418Y3311242D01*
X9134962Y3308620D01*
X9140223Y3305467D01*
X9145150Y3301813D01*
X9149694Y3297694D01*
X9153813Y3293150D01*
X9157467Y3288223D01*
X9160620Y3282962D01*
X9163242Y3277418D01*
X9165309Y3271643D01*
X9166799Y3265693D01*
X9167699Y3259626D01*
X9168000Y3253500D01*
X9168000Y3128500D01*
X9167699Y3122374D01*
X9166799Y3116307D01*
X9165309Y3110357D01*
X9163242Y3104582D01*
X9160620Y3099038D01*
X9157467Y3093777D01*
X9153813Y3088850D01*
X9149694Y3084306D01*
X9145150Y3080187D01*
X9140223Y3076533D01*
X9134962Y3073380D01*
X9129418Y3070758D01*
X9123643Y3068691D01*
X9117693Y3067201D01*
X9111626Y3066301D01*
X9105500Y3066000D01*
X8355500Y3066000D01*
X8349374Y3066301D01*
X8343307Y3067201D01*
X8337357Y3068691D01*
X8331582Y3070758D01*
X8326038Y3073380D01*
X8320777Y3076533D01*
X8315850Y3080187D01*
X8311306Y3084306D01*
X8307187Y3088850D01*
X8303533Y3093777D01*
X8300380Y3099038D01*
X8297758Y3104582D01*
X8295691Y3110357D01*
X8294201Y3116307D01*
X8293301Y3122374D01*
X8293000Y3128500D01*
X8293000Y3253500D01*
X8293301Y3259626D01*
X8294201Y3265693D01*
X8295691Y3271643D01*
X8297758Y3277418D01*
X8300380Y3282962D01*
X8303533Y3288223D01*
X8307187Y3293150D01*
X8311306Y3297694D01*
X8315850Y3301813D01*
X8320777Y3305467D01*
X8326038Y3308620D01*
X8331582Y3311242D01*
X8337357Y3313309D01*
X8343307Y3314799D01*
X8349374Y3315699D01*
X8355500Y3316000D01*
X9105500Y3316000D01*
X9111626Y3315699D01*
X9111626Y3315699D01*
G37*
D14*
X8730500Y3191000D03*
D13*
G36*
X9111626Y3815699D02*
G01*
X9117693Y3814799D01*
X9123643Y3813309D01*
X9129418Y3811242D01*
X9134962Y3808620D01*
X9140223Y3805467D01*
X9145150Y3801813D01*
X9149694Y3797694D01*
X9153813Y3793150D01*
X9157467Y3788223D01*
X9160620Y3782962D01*
X9163242Y3777418D01*
X9165309Y3771643D01*
X9166799Y3765693D01*
X9167699Y3759626D01*
X9168000Y3753500D01*
X9168000Y3628500D01*
X9167699Y3622374D01*
X9166799Y3616307D01*
X9165309Y3610357D01*
X9163242Y3604582D01*
X9160620Y3599038D01*
X9157467Y3593777D01*
X9153813Y3588850D01*
X9149694Y3584306D01*
X9145150Y3580187D01*
X9140223Y3576533D01*
X9134962Y3573380D01*
X9129418Y3570758D01*
X9123643Y3568691D01*
X9117693Y3567201D01*
X9111626Y3566301D01*
X9105500Y3566000D01*
X8355500Y3566000D01*
X8349374Y3566301D01*
X8343307Y3567201D01*
X8337357Y3568691D01*
X8331582Y3570758D01*
X8326038Y3573380D01*
X8320777Y3576533D01*
X8315850Y3580187D01*
X8311306Y3584306D01*
X8307187Y3588850D01*
X8303533Y3593777D01*
X8300380Y3599038D01*
X8297758Y3604582D01*
X8295691Y3610357D01*
X8294201Y3616307D01*
X8293301Y3622374D01*
X8293000Y3628500D01*
X8293000Y3753500D01*
X8293301Y3759626D01*
X8294201Y3765693D01*
X8295691Y3771643D01*
X8297758Y3777418D01*
X8300380Y3782962D01*
X8303533Y3788223D01*
X8307187Y3793150D01*
X8311306Y3797694D01*
X8315850Y3801813D01*
X8320777Y3805467D01*
X8326038Y3808620D01*
X8331582Y3811242D01*
X8337357Y3813309D01*
X8343307Y3814799D01*
X8349374Y3815699D01*
X8355500Y3816000D01*
X9105500Y3816000D01*
X9111626Y3815699D01*
X9111626Y3815699D01*
G37*
D14*
X8730500Y3691000D03*
D13*
G36*
X9111626Y4315699D02*
G01*
X9117693Y4314799D01*
X9123643Y4313309D01*
X9129418Y4311242D01*
X9134962Y4308620D01*
X9140223Y4305467D01*
X9145150Y4301813D01*
X9149694Y4297694D01*
X9153813Y4293150D01*
X9157467Y4288223D01*
X9160620Y4282962D01*
X9163242Y4277418D01*
X9165309Y4271643D01*
X9166799Y4265693D01*
X9167699Y4259626D01*
X9168000Y4253500D01*
X9168000Y4128500D01*
X9167699Y4122374D01*
X9166799Y4116307D01*
X9165309Y4110357D01*
X9163242Y4104582D01*
X9160620Y4099038D01*
X9157467Y4093777D01*
X9153813Y4088850D01*
X9149694Y4084306D01*
X9145150Y4080187D01*
X9140223Y4076533D01*
X9134962Y4073380D01*
X9129418Y4070758D01*
X9123643Y4068691D01*
X9117693Y4067201D01*
X9111626Y4066301D01*
X9105500Y4066000D01*
X8355500Y4066000D01*
X8349374Y4066301D01*
X8343307Y4067201D01*
X8337357Y4068691D01*
X8331582Y4070758D01*
X8326038Y4073380D01*
X8320777Y4076533D01*
X8315850Y4080187D01*
X8311306Y4084306D01*
X8307187Y4088850D01*
X8303533Y4093777D01*
X8300380Y4099038D01*
X8297758Y4104582D01*
X8295691Y4110357D01*
X8294201Y4116307D01*
X8293301Y4122374D01*
X8293000Y4128500D01*
X8293000Y4253500D01*
X8293301Y4259626D01*
X8294201Y4265693D01*
X8295691Y4271643D01*
X8297758Y4277418D01*
X8300380Y4282962D01*
X8303533Y4288223D01*
X8307187Y4293150D01*
X8311306Y4297694D01*
X8315850Y4301813D01*
X8320777Y4305467D01*
X8326038Y4308620D01*
X8331582Y4311242D01*
X8337357Y4313309D01*
X8343307Y4314799D01*
X8349374Y4315699D01*
X8355500Y4316000D01*
X9105500Y4316000D01*
X9111626Y4315699D01*
X9111626Y4315699D01*
G37*
D14*
X8730500Y4191000D03*
D13*
G36*
X9111626Y4815699D02*
G01*
X9117693Y4814799D01*
X9123643Y4813309D01*
X9129418Y4811242D01*
X9134962Y4808620D01*
X9140223Y4805467D01*
X9145150Y4801813D01*
X9149694Y4797694D01*
X9153813Y4793150D01*
X9157467Y4788223D01*
X9160620Y4782962D01*
X9163242Y4777418D01*
X9165309Y4771643D01*
X9166799Y4765693D01*
X9167699Y4759626D01*
X9168000Y4753500D01*
X9168000Y4628500D01*
X9167699Y4622374D01*
X9166799Y4616307D01*
X9165309Y4610357D01*
X9163242Y4604582D01*
X9160620Y4599038D01*
X9157467Y4593777D01*
X9153813Y4588850D01*
X9149694Y4584306D01*
X9145150Y4580187D01*
X9140223Y4576533D01*
X9134962Y4573380D01*
X9129418Y4570758D01*
X9123643Y4568691D01*
X9117693Y4567201D01*
X9111626Y4566301D01*
X9105500Y4566000D01*
X8355500Y4566000D01*
X8349374Y4566301D01*
X8343307Y4567201D01*
X8337357Y4568691D01*
X8331582Y4570758D01*
X8326038Y4573380D01*
X8320777Y4576533D01*
X8315850Y4580187D01*
X8311306Y4584306D01*
X8307187Y4588850D01*
X8303533Y4593777D01*
X8300380Y4599038D01*
X8297758Y4604582D01*
X8295691Y4610357D01*
X8294201Y4616307D01*
X8293301Y4622374D01*
X8293000Y4628500D01*
X8293000Y4753500D01*
X8293301Y4759626D01*
X8294201Y4765693D01*
X8295691Y4771643D01*
X8297758Y4777418D01*
X8300380Y4782962D01*
X8303533Y4788223D01*
X8307187Y4793150D01*
X8311306Y4797694D01*
X8315850Y4801813D01*
X8320777Y4805467D01*
X8326038Y4808620D01*
X8331582Y4811242D01*
X8337357Y4813309D01*
X8343307Y4814799D01*
X8349374Y4815699D01*
X8355500Y4816000D01*
X9105500Y4816000D01*
X9111626Y4815699D01*
X9111626Y4815699D01*
G37*
D14*
X8730500Y4691000D03*
D13*
G36*
X9111626Y5315699D02*
G01*
X9117693Y5314799D01*
X9123643Y5313309D01*
X9129418Y5311242D01*
X9134962Y5308620D01*
X9140223Y5305467D01*
X9145150Y5301813D01*
X9149694Y5297694D01*
X9153813Y5293150D01*
X9157467Y5288223D01*
X9160620Y5282962D01*
X9163242Y5277418D01*
X9165309Y5271643D01*
X9166799Y5265693D01*
X9167699Y5259626D01*
X9168000Y5253500D01*
X9168000Y5128500D01*
X9167699Y5122374D01*
X9166799Y5116307D01*
X9165309Y5110357D01*
X9163242Y5104582D01*
X9160620Y5099038D01*
X9157467Y5093777D01*
X9153813Y5088850D01*
X9149694Y5084306D01*
X9145150Y5080187D01*
X9140223Y5076533D01*
X9134962Y5073380D01*
X9129418Y5070758D01*
X9123643Y5068691D01*
X9117693Y5067201D01*
X9111626Y5066301D01*
X9105500Y5066000D01*
X8355500Y5066000D01*
X8349374Y5066301D01*
X8343307Y5067201D01*
X8337357Y5068691D01*
X8331582Y5070758D01*
X8326038Y5073380D01*
X8320777Y5076533D01*
X8315850Y5080187D01*
X8311306Y5084306D01*
X8307187Y5088850D01*
X8303533Y5093777D01*
X8300380Y5099038D01*
X8297758Y5104582D01*
X8295691Y5110357D01*
X8294201Y5116307D01*
X8293301Y5122374D01*
X8293000Y5128500D01*
X8293000Y5253500D01*
X8293301Y5259626D01*
X8294201Y5265693D01*
X8295691Y5271643D01*
X8297758Y5277418D01*
X8300380Y5282962D01*
X8303533Y5288223D01*
X8307187Y5293150D01*
X8311306Y5297694D01*
X8315850Y5301813D01*
X8320777Y5305467D01*
X8326038Y5308620D01*
X8331582Y5311242D01*
X8337357Y5313309D01*
X8343307Y5314799D01*
X8349374Y5315699D01*
X8355500Y5316000D01*
X9105500Y5316000D01*
X9111626Y5315699D01*
X9111626Y5315699D01*
G37*
D14*
X8730500Y5191000D03*
D12*
X8670500Y5691000D03*
D13*
G36*
X8878139Y5815135D02*
G01*
X8886581Y5812575D01*
X8894361Y5808416D01*
X8901180Y5802820D01*
X9034820Y5669180D01*
X9040416Y5662361D01*
X9044575Y5654581D01*
X9047135Y5646139D01*
X9048000Y5637360D01*
X9048000Y5611000D01*
X9047135Y5602221D01*
X9044575Y5593779D01*
X9040416Y5585999D01*
X9034820Y5579180D01*
X9028001Y5573584D01*
X9020221Y5569425D01*
X9011779Y5566865D01*
X9003000Y5566000D01*
X8338000Y5566000D01*
X8329221Y5566865D01*
X8320779Y5569425D01*
X8312999Y5573584D01*
X8306180Y5579180D01*
X8300584Y5585999D01*
X8296425Y5593779D01*
X8293865Y5602221D01*
X8293000Y5611000D01*
X8293000Y5771000D01*
X8293865Y5779779D01*
X8296425Y5788221D01*
X8300584Y5796001D01*
X8306180Y5802820D01*
X8312999Y5808416D01*
X8320779Y5812575D01*
X8329221Y5815135D01*
X8338000Y5816000D01*
X8869360Y5816000D01*
X8878139Y5815135D01*
X8878139Y5815135D01*
G37*
D15*
X1778000Y-5540000D03*
X1778000Y-2770000D03*
X1778000Y0D03*
X1778000Y2770000D03*
X1778000Y5540000D03*
D16*
X22093000Y-5850000D03*
X22093000Y5850000D03*
D17*
X19593000Y-3500000D03*
X19593000Y3500000D03*
X19593000Y-1000000D03*
X19593000Y1000000D03*
D18*
X9992000Y-5715000D03*
X9992000Y-3815000D03*
X12192000Y-3815000D03*
X12192000Y-4765000D03*
X12192000Y-5715000D03*
D13*
G36*
X6595905Y-3100204D02*
G01*
X6620173Y-3103804D01*
X6643972Y-3109765D01*
X6667071Y-3118030D01*
X6689250Y-3128520D01*
X6710293Y-3141132D01*
X6729999Y-3155747D01*
X6748177Y-3172223D01*
X6764653Y-3190401D01*
X6779268Y-3210107D01*
X6791880Y-3231150D01*
X6802370Y-3253329D01*
X6810635Y-3276428D01*
X6816596Y-3300227D01*
X6820196Y-3324495D01*
X6821400Y-3348999D01*
X6821400Y-3999001D01*
X6820196Y-4023505D01*
X6816596Y-4047773D01*
X6810635Y-4071572D01*
X6802370Y-4094671D01*
X6791880Y-4116850D01*
X6779268Y-4137893D01*
X6764653Y-4157599D01*
X6748177Y-4175777D01*
X6729999Y-4192253D01*
X6710293Y-4206868D01*
X6689250Y-4219480D01*
X6667071Y-4229970D01*
X6643972Y-4238235D01*
X6620173Y-4244196D01*
X6595905Y-4247796D01*
X6571401Y-4249000D01*
X5671399Y-4249000D01*
X5646895Y-4247796D01*
X5622627Y-4244196D01*
X5598828Y-4238235D01*
X5575729Y-4229970D01*
X5553550Y-4219480D01*
X5532507Y-4206868D01*
X5512801Y-4192253D01*
X5494623Y-4175777D01*
X5478147Y-4157599D01*
X5463532Y-4137893D01*
X5450920Y-4116850D01*
X5440430Y-4094671D01*
X5432165Y-4071572D01*
X5426204Y-4047773D01*
X5422604Y-4023505D01*
X5421400Y-3999001D01*
X5421400Y-3348999D01*
X5422604Y-3324495D01*
X5426204Y-3300227D01*
X5432165Y-3276428D01*
X5440430Y-3253329D01*
X5450920Y-3231150D01*
X5463532Y-3210107D01*
X5478147Y-3190401D01*
X5494623Y-3172223D01*
X5512801Y-3155747D01*
X5532507Y-3141132D01*
X5553550Y-3128520D01*
X5575729Y-3118030D01*
X5598828Y-3109765D01*
X5622627Y-3103804D01*
X5646895Y-3100204D01*
X5671399Y-3099000D01*
X6571401Y-3099000D01*
X6595905Y-3100204D01*
X6595905Y-3100204D01*
G37*
D19*
X6121400Y-3674000D03*
D13*
G36*
X6595905Y-5150204D02*
G01*
X6620173Y-5153804D01*
X6643972Y-5159765D01*
X6667071Y-5168030D01*
X6689250Y-5178520D01*
X6710293Y-5191132D01*
X6729999Y-5205747D01*
X6748177Y-5222223D01*
X6764653Y-5240401D01*
X6779268Y-5260107D01*
X6791880Y-5281150D01*
X6802370Y-5303329D01*
X6810635Y-5326428D01*
X6816596Y-5350227D01*
X6820196Y-5374495D01*
X6821400Y-5398999D01*
X6821400Y-6049001D01*
X6820196Y-6073505D01*
X6816596Y-6097773D01*
X6810635Y-6121572D01*
X6802370Y-6144671D01*
X6791880Y-6166850D01*
X6779268Y-6187893D01*
X6764653Y-6207599D01*
X6748177Y-6225777D01*
X6729999Y-6242253D01*
X6710293Y-6256868D01*
X6689250Y-6269480D01*
X6667071Y-6279970D01*
X6643972Y-6288235D01*
X6620173Y-6294196D01*
X6595905Y-6297796D01*
X6571401Y-6299000D01*
X5671399Y-6299000D01*
X5646895Y-6297796D01*
X5622627Y-6294196D01*
X5598828Y-6288235D01*
X5575729Y-6279970D01*
X5553550Y-6269480D01*
X5532507Y-6256868D01*
X5512801Y-6242253D01*
X5494623Y-6225777D01*
X5478147Y-6207599D01*
X5463532Y-6187893D01*
X5450920Y-6166850D01*
X5440430Y-6144671D01*
X5432165Y-6121572D01*
X5426204Y-6097773D01*
X5422604Y-6073505D01*
X5421400Y-6049001D01*
X5421400Y-5398999D01*
X5422604Y-5374495D01*
X5426204Y-5350227D01*
X5432165Y-5326428D01*
X5440430Y-5303329D01*
X5450920Y-5281150D01*
X5463532Y-5260107D01*
X5478147Y-5240401D01*
X5494623Y-5222223D01*
X5512801Y-5205747D01*
X5532507Y-5191132D01*
X5553550Y-5178520D01*
X5575729Y-5168030D01*
X5598828Y-5159765D01*
X5622627Y-5153804D01*
X5646895Y-5150204D01*
X5671399Y-5149000D01*
X6571401Y-5149000D01*
X6595905Y-5150204D01*
X6595905Y-5150204D01*
G37*
D19*
X6121400Y-5724000D03*
D20*
X8763000Y0D03*
D21*
X6223000Y0D03*
D13*
G36*
X15714505Y2215796D02*
G01*
X15738773Y2212196D01*
X15762572Y2206235D01*
X15785671Y2197970D01*
X15807850Y2187480D01*
X15828893Y2174868D01*
X15848599Y2160253D01*
X15866777Y2143777D01*
X15883253Y2125599D01*
X15897868Y2105893D01*
X15910480Y2084850D01*
X15920970Y2062671D01*
X15929235Y2039572D01*
X15935196Y2015773D01*
X15938796Y1991505D01*
X15940000Y1967001D01*
X15940000Y1316999D01*
X15938796Y1292495D01*
X15935196Y1268227D01*
X15929235Y1244428D01*
X15920970Y1221329D01*
X15910480Y1199150D01*
X15897868Y1178107D01*
X15883253Y1158401D01*
X15866777Y1140223D01*
X15848599Y1123747D01*
X15828893Y1109132D01*
X15807850Y1096520D01*
X15785671Y1086030D01*
X15762572Y1077765D01*
X15738773Y1071804D01*
X15714505Y1068204D01*
X15690001Y1067000D01*
X14789999Y1067000D01*
X14765495Y1068204D01*
X14741227Y1071804D01*
X14717428Y1077765D01*
X14694329Y1086030D01*
X14672150Y1096520D01*
X14651107Y1109132D01*
X14631401Y1123747D01*
X14613223Y1140223D01*
X14596747Y1158401D01*
X14582132Y1178107D01*
X14569520Y1199150D01*
X14559030Y1221329D01*
X14550765Y1244428D01*
X14544804Y1268227D01*
X14541204Y1292495D01*
X14540000Y1316999D01*
X14540000Y1967001D01*
X14541204Y1991505D01*
X14544804Y2015773D01*
X14550765Y2039572D01*
X14559030Y2062671D01*
X14569520Y2084850D01*
X14582132Y2105893D01*
X14596747Y2125599D01*
X14613223Y2143777D01*
X14631401Y2160253D01*
X14651107Y2174868D01*
X14672150Y2187480D01*
X14694329Y2197970D01*
X14717428Y2206235D01*
X14741227Y2212196D01*
X14765495Y2215796D01*
X14789999Y2217000D01*
X15690001Y2217000D01*
X15714505Y2215796D01*
X15714505Y2215796D01*
G37*
D19*
X15240000Y1642000D03*
D13*
G36*
X15714505Y4265796D02*
G01*
X15738773Y4262196D01*
X15762572Y4256235D01*
X15785671Y4247970D01*
X15807850Y4237480D01*
X15828893Y4224868D01*
X15848599Y4210253D01*
X15866777Y4193777D01*
X15883253Y4175599D01*
X15897868Y4155893D01*
X15910480Y4134850D01*
X15920970Y4112671D01*
X15929235Y4089572D01*
X15935196Y4065773D01*
X15938796Y4041505D01*
X15940000Y4017001D01*
X15940000Y3366999D01*
X15938796Y3342495D01*
X15935196Y3318227D01*
X15929235Y3294428D01*
X15920970Y3271329D01*
X15910480Y3249150D01*
X15897868Y3228107D01*
X15883253Y3208401D01*
X15866777Y3190223D01*
X15848599Y3173747D01*
X15828893Y3159132D01*
X15807850Y3146520D01*
X15785671Y3136030D01*
X15762572Y3127765D01*
X15738773Y3121804D01*
X15714505Y3118204D01*
X15690001Y3117000D01*
X14789999Y3117000D01*
X14765495Y3118204D01*
X14741227Y3121804D01*
X14717428Y3127765D01*
X14694329Y3136030D01*
X14672150Y3146520D01*
X14651107Y3159132D01*
X14631401Y3173747D01*
X14613223Y3190223D01*
X14596747Y3208401D01*
X14582132Y3228107D01*
X14569520Y3249150D01*
X14559030Y3271329D01*
X14550765Y3294428D01*
X14544804Y3318227D01*
X14541204Y3342495D01*
X14540000Y3366999D01*
X14540000Y4017001D01*
X14541204Y4041505D01*
X14544804Y4065773D01*
X14550765Y4089572D01*
X14559030Y4112671D01*
X14569520Y4134850D01*
X14582132Y4155893D01*
X14596747Y4175599D01*
X14613223Y4193777D01*
X14631401Y4210253D01*
X14651107Y4224868D01*
X14672150Y4237480D01*
X14694329Y4247970D01*
X14717428Y4256235D01*
X14741227Y4262196D01*
X14765495Y4265796D01*
X14789999Y4267000D01*
X15690001Y4267000D01*
X15714505Y4265796D01*
X15714505Y4265796D01*
G37*
D19*
X15240000Y3692000D03*
D13*
G36*
X8602505Y-3091204D02*
G01*
X8626773Y-3094804D01*
X8650572Y-3100765D01*
X8673671Y-3109030D01*
X8695850Y-3119520D01*
X8716893Y-3132132D01*
X8736599Y-3146747D01*
X8754777Y-3163223D01*
X8771253Y-3181401D01*
X8785868Y-3201107D01*
X8798480Y-3222150D01*
X8808970Y-3244329D01*
X8817235Y-3267428D01*
X8823196Y-3291227D01*
X8826796Y-3315495D01*
X8828000Y-3339999D01*
X8828000Y-3990001D01*
X8826796Y-4014505D01*
X8823196Y-4038773D01*
X8817235Y-4062572D01*
X8808970Y-4085671D01*
X8798480Y-4107850D01*
X8785868Y-4128893D01*
X8771253Y-4148599D01*
X8754777Y-4166777D01*
X8736599Y-4183253D01*
X8716893Y-4197868D01*
X8695850Y-4210480D01*
X8673671Y-4220970D01*
X8650572Y-4229235D01*
X8626773Y-4235196D01*
X8602505Y-4238796D01*
X8578001Y-4240000D01*
X7677999Y-4240000D01*
X7653495Y-4238796D01*
X7629227Y-4235196D01*
X7605428Y-4229235D01*
X7582329Y-4220970D01*
X7560150Y-4210480D01*
X7539107Y-4197868D01*
X7519401Y-4183253D01*
X7501223Y-4166777D01*
X7484747Y-4148599D01*
X7470132Y-4128893D01*
X7457520Y-4107850D01*
X7447030Y-4085671D01*
X7438765Y-4062572D01*
X7432804Y-4038773D01*
X7429204Y-4014505D01*
X7428000Y-3990001D01*
X7428000Y-3339999D01*
X7429204Y-3315495D01*
X7432804Y-3291227D01*
X7438765Y-3267428D01*
X7447030Y-3244329D01*
X7457520Y-3222150D01*
X7470132Y-3201107D01*
X7484747Y-3181401D01*
X7501223Y-3163223D01*
X7519401Y-3146747D01*
X7539107Y-3132132D01*
X7560150Y-3119520D01*
X7582329Y-3109030D01*
X7605428Y-3100765D01*
X7629227Y-3094804D01*
X7653495Y-3091204D01*
X7677999Y-3090000D01*
X8578001Y-3090000D01*
X8602505Y-3091204D01*
X8602505Y-3091204D01*
G37*
D19*
X8128000Y-3665000D03*
D13*
G36*
X8602505Y-5141204D02*
G01*
X8626773Y-5144804D01*
X8650572Y-5150765D01*
X8673671Y-5159030D01*
X8695850Y-5169520D01*
X8716893Y-5182132D01*
X8736599Y-5196747D01*
X8754777Y-5213223D01*
X8771253Y-5231401D01*
X8785868Y-5251107D01*
X8798480Y-5272150D01*
X8808970Y-5294329D01*
X8817235Y-5317428D01*
X8823196Y-5341227D01*
X8826796Y-5365495D01*
X8828000Y-5389999D01*
X8828000Y-6040001D01*
X8826796Y-6064505D01*
X8823196Y-6088773D01*
X8817235Y-6112572D01*
X8808970Y-6135671D01*
X8798480Y-6157850D01*
X8785868Y-6178893D01*
X8771253Y-6198599D01*
X8754777Y-6216777D01*
X8736599Y-6233253D01*
X8716893Y-6247868D01*
X8695850Y-6260480D01*
X8673671Y-6270970D01*
X8650572Y-6279235D01*
X8626773Y-6285196D01*
X8602505Y-6288796D01*
X8578001Y-6290000D01*
X7677999Y-6290000D01*
X7653495Y-6288796D01*
X7629227Y-6285196D01*
X7605428Y-6279235D01*
X7582329Y-6270970D01*
X7560150Y-6260480D01*
X7539107Y-6247868D01*
X7519401Y-6233253D01*
X7501223Y-6216777D01*
X7484747Y-6198599D01*
X7470132Y-6178893D01*
X7457520Y-6157850D01*
X7447030Y-6135671D01*
X7438765Y-6112572D01*
X7432804Y-6088773D01*
X7429204Y-6064505D01*
X7428000Y-6040001D01*
X7428000Y-5389999D01*
X7429204Y-5365495D01*
X7432804Y-5341227D01*
X7438765Y-5317428D01*
X7447030Y-5294329D01*
X7457520Y-5272150D01*
X7470132Y-5251107D01*
X7484747Y-5231401D01*
X7501223Y-5213223D01*
X7519401Y-5196747D01*
X7539107Y-5182132D01*
X7560150Y-5169520D01*
X7582329Y-5159030D01*
X7605428Y-5150765D01*
X7629227Y-5144804D01*
X7653495Y-5141204D01*
X7677999Y-5140000D01*
X8578001Y-5140000D01*
X8602505Y-5141204D01*
X8602505Y-5141204D01*
G37*
D19*
X8128000Y-5715000D03*
D13*
G36*
X14396505Y-4857204D02*
G01*
X14420773Y-4860804D01*
X14444572Y-4866765D01*
X14467671Y-4875030D01*
X14489850Y-4885520D01*
X14510893Y-4898132D01*
X14530599Y-4912747D01*
X14548777Y-4929223D01*
X14565253Y-4947401D01*
X14579868Y-4967107D01*
X14592480Y-4988150D01*
X14602970Y-5010329D01*
X14611235Y-5033428D01*
X14617196Y-5057227D01*
X14620796Y-5081495D01*
X14622000Y-5105999D01*
X14622000Y-5906001D01*
X14620796Y-5930505D01*
X14617196Y-5954773D01*
X14611235Y-5978572D01*
X14602970Y-6001671D01*
X14592480Y-6023850D01*
X14579868Y-6044893D01*
X14565253Y-6064599D01*
X14548777Y-6082777D01*
X14530599Y-6099253D01*
X14510893Y-6113868D01*
X14489850Y-6126480D01*
X14467671Y-6136970D01*
X14444572Y-6145235D01*
X14420773Y-6151196D01*
X14396505Y-6154796D01*
X14372001Y-6156000D01*
X13821999Y-6156000D01*
X13797495Y-6154796D01*
X13773227Y-6151196D01*
X13749428Y-6145235D01*
X13726329Y-6136970D01*
X13704150Y-6126480D01*
X13683107Y-6113868D01*
X13663401Y-6099253D01*
X13645223Y-6082777D01*
X13628747Y-6064599D01*
X13614132Y-6044893D01*
X13601520Y-6023850D01*
X13591030Y-6001671D01*
X13582765Y-5978572D01*
X13576804Y-5954773D01*
X13573204Y-5930505D01*
X13572000Y-5906001D01*
X13572000Y-5105999D01*
X13573204Y-5081495D01*
X13576804Y-5057227D01*
X13582765Y-5033428D01*
X13591030Y-5010329D01*
X13601520Y-4988150D01*
X13614132Y-4967107D01*
X13628747Y-4947401D01*
X13645223Y-4929223D01*
X13663401Y-4912747D01*
X13683107Y-4898132D01*
X13704150Y-4885520D01*
X13726329Y-4875030D01*
X13749428Y-4866765D01*
X13773227Y-4860804D01*
X13797495Y-4857204D01*
X13821999Y-4856000D01*
X14372001Y-4856000D01*
X14396505Y-4857204D01*
X14396505Y-4857204D01*
G37*
D22*
X14097000Y-5506000D03*
D13*
G36*
X14396505Y-2907204D02*
G01*
X14420773Y-2910804D01*
X14444572Y-2916765D01*
X14467671Y-2925030D01*
X14489850Y-2935520D01*
X14510893Y-2948132D01*
X14530599Y-2962747D01*
X14548777Y-2979223D01*
X14565253Y-2997401D01*
X14579868Y-3017107D01*
X14592480Y-3038150D01*
X14602970Y-3060329D01*
X14611235Y-3083428D01*
X14617196Y-3107227D01*
X14620796Y-3131495D01*
X14622000Y-3155999D01*
X14622000Y-3956001D01*
X14620796Y-3980505D01*
X14617196Y-4004773D01*
X14611235Y-4028572D01*
X14602970Y-4051671D01*
X14592480Y-4073850D01*
X14579868Y-4094893D01*
X14565253Y-4114599D01*
X14548777Y-4132777D01*
X14530599Y-4149253D01*
X14510893Y-4163868D01*
X14489850Y-4176480D01*
X14467671Y-4186970D01*
X14444572Y-4195235D01*
X14420773Y-4201196D01*
X14396505Y-4204796D01*
X14372001Y-4206000D01*
X13821999Y-4206000D01*
X13797495Y-4204796D01*
X13773227Y-4201196D01*
X13749428Y-4195235D01*
X13726329Y-4186970D01*
X13704150Y-4176480D01*
X13683107Y-4163868D01*
X13663401Y-4149253D01*
X13645223Y-4132777D01*
X13628747Y-4114599D01*
X13614132Y-4094893D01*
X13601520Y-4073850D01*
X13591030Y-4051671D01*
X13582765Y-4028572D01*
X13576804Y-4004773D01*
X13573204Y-3980505D01*
X13572000Y-3956001D01*
X13572000Y-3155999D01*
X13573204Y-3131495D01*
X13576804Y-3107227D01*
X13582765Y-3083428D01*
X13591030Y-3060329D01*
X13601520Y-3038150D01*
X13614132Y-3017107D01*
X13628747Y-2997401D01*
X13645223Y-2979223D01*
X13663401Y-2962747D01*
X13683107Y-2948132D01*
X13704150Y-2935520D01*
X13726329Y-2925030D01*
X13749428Y-2916765D01*
X13773227Y-2910804D01*
X13797495Y-2907204D01*
X13821999Y-2906000D01*
X14372001Y-2906000D01*
X14396505Y-2907204D01*
X14396505Y-2907204D01*
G37*
D22*
X14097000Y-3556000D03*
D23*
X12293600Y-2336800D03*
D24*
X13655800Y3191000D03*
X4800600Y-5740400D03*
D23*
X18669000Y5054600D03*
X15468600Y-3556000D03*
X9042400Y-2209800D03*
D24*
X9093200Y-5715000D03*
X10269600Y3691000D03*
X3873500Y-4127502D03*
X10676002Y7086590D03*
X17449800Y1524012D03*
X17475654Y507988D03*
D25*
X8730500Y5191000D02*
X7585200Y5191000D01*
X7585200Y5191000D02*
X6257800Y5191000D01*
D26*
X12192000Y-4765000D02*
X13122000Y-4765000D01*
D25*
X12605500Y3191000D02*
X13655800Y3191000D01*
X13655800Y3191000D02*
X13700000Y3191000D01*
D26*
X11262000Y-3815000D02*
X12192000Y-3815000D01*
X11211999Y-3865001D02*
X11262000Y-3815000D01*
X11211999Y-5450001D02*
X11211999Y-3865001D01*
X11476998Y-5715000D02*
X11211999Y-5450001D01*
X12192000Y-5715000D02*
X11476998Y-5715000D01*
X13838000Y-3815000D02*
X14097000Y-3556000D01*
X12192000Y-3815000D02*
X13838000Y-3815000D01*
X19593000Y3500000D02*
X19593000Y4130600D01*
X19593000Y4130600D02*
X18669000Y5054600D01*
X14097000Y-3556000D02*
X15468600Y-3556000D01*
X11211999Y-3865001D02*
X11211999Y-3153314D01*
X11211999Y-3153314D02*
X10268485Y-2209800D01*
X10268485Y-2209800D02*
X9608085Y-2209800D01*
X9608085Y-2209800D02*
X9042400Y-2209800D01*
X9865000Y-5588000D02*
X9992000Y-5715000D01*
X8128000Y-5715000D02*
X8255000Y-5588000D01*
X9652000Y-5588000D02*
X9652000Y-5588000D01*
X8119000Y-5724000D02*
X8128000Y-5715000D01*
D25*
X12605500Y4191000D02*
X12605500Y3691000D01*
X9406000Y3691000D02*
X8730500Y3691000D01*
X12605500Y3691000D02*
X10269600Y3691000D01*
D26*
X8128000Y-5715000D02*
X9093200Y-5715000D01*
D25*
X14741000Y4191000D02*
X15240000Y3692000D01*
X12605500Y4191000D02*
X14741000Y4191000D01*
D26*
X9093200Y-5715000D02*
X9992000Y-5715000D01*
D25*
X10269600Y3691000D02*
X9406000Y3691000D01*
X7112000Y4191000D02*
X6985000Y4064000D01*
X8730500Y4191000D02*
X7112000Y4191000D01*
X8670500Y92500D02*
X8763000Y0D01*
X8670500Y2691000D02*
X8670500Y92500D01*
X4127499Y-3873503D02*
X3873500Y-4127502D01*
X5843400Y5691000D02*
X5257800Y5105400D01*
X8670500Y5691000D02*
X5843400Y5691000D01*
X5257800Y5105400D02*
X5257800Y1574800D01*
X5257800Y1574800D02*
X4165600Y482600D01*
X4165600Y482600D02*
X4165600Y-3835402D01*
X4165600Y-3835402D02*
X4127499Y-3873503D01*
X10668000Y6128500D02*
X10668000Y7078588D01*
X10668000Y7078588D02*
X10676002Y7086590D01*
X8685480Y6188500D02*
X9168000Y6188500D01*
X5705900Y6188500D02*
X8685480Y6188500D01*
X2594666Y-2770000D02*
X3809989Y-1554677D01*
X1778000Y-2770000D02*
X2594666Y-2770000D01*
X3809989Y-1554677D02*
X3809989Y629898D01*
X3809989Y629898D02*
X4902200Y1722109D01*
X4902200Y1722109D02*
X4902200Y5384800D01*
X4902200Y5384800D02*
X5705900Y6188500D01*
X9668000Y6666000D02*
X9668000Y6128500D01*
X2594666Y0D02*
X4546600Y1951934D01*
X1778000Y0D02*
X2594666Y0D01*
X4546600Y1951934D02*
X4546600Y6096000D01*
X4546600Y6096000D02*
X5333978Y6883378D01*
X5333978Y6883378D02*
X9450622Y6883378D01*
X9450622Y6883378D02*
X9668000Y6666000D01*
X10168000Y7053178D02*
X10168000Y6128500D01*
X3721200Y2770000D02*
X4114800Y3163600D01*
X1778000Y2770000D02*
X3721200Y2770000D01*
X4114800Y3163600D02*
X4114800Y6477000D01*
X4114800Y6477000D02*
X4876789Y7238989D01*
X4876789Y7238989D02*
X9982189Y7238989D01*
X9982189Y7238989D02*
X10168000Y7053178D01*
X2873000Y5540000D02*
X1778000Y5540000D01*
X1778000Y6121400D02*
X1778000Y5540000D01*
X11168000Y6666000D02*
X11184012Y6682012D01*
X11168000Y6128500D02*
X11168000Y6666000D01*
X11184012Y6682012D02*
X11184012Y7357988D01*
X11184012Y7357988D02*
X10947400Y7594600D01*
X10947400Y7594600D02*
X3251200Y7594600D01*
X3251200Y7594600D02*
X1778000Y6121400D01*
X15240000Y6150894D02*
X15240000Y6858000D01*
X14780106Y5691000D02*
X15240000Y6150894D01*
X12665500Y5691000D02*
X14780106Y5691000D01*
X12168000Y6188500D02*
X12837500Y6858000D01*
X12837500Y6858000D02*
X13970000Y6858000D01*
D27*
X12605500Y5191000D02*
X12630500Y5166000D01*
D25*
X20193000Y-1000000D02*
X18983642Y-1000000D01*
X18983642Y-1000000D02*
X17729653Y253989D01*
X16980066Y5166000D02*
X17449800Y4696266D01*
X17729653Y253989D02*
X17475654Y507988D01*
X17449800Y4696266D02*
X17449800Y1883222D01*
X17449800Y1883222D02*
X17449800Y1524012D01*
X16955066Y5191000D02*
X16980066Y5166000D01*
X12605500Y5191000D02*
X16955066Y5191000D01*
D27*
X16624010Y4813590D02*
X16814800Y4622800D01*
D25*
X13625790Y4811990D02*
X13627390Y4811990D01*
X13504800Y4691000D02*
X13625790Y4811990D01*
X12605500Y4691000D02*
X13504800Y4691000D01*
X17078954Y1016002D02*
X16916400Y1178556D01*
X17515846Y1015998D02*
X17515842Y1016002D01*
X20177002Y1015998D02*
X17515846Y1015998D01*
X16916400Y1178556D02*
X16916400Y4521200D01*
X17515842Y1016002D02*
X17078954Y1016002D01*
X20193000Y1000000D02*
X20177002Y1015998D01*
X16916400Y4521200D02*
X16814800Y4622800D01*
X16468565Y4811990D02*
X16624010Y4811990D01*
X13625790Y4811990D02*
X16468565Y4811990D01*
X6223000Y-3572400D02*
X6121400Y-3674000D01*
X6223000Y0D02*
X6223000Y-3572400D01*
G36*
X21204501Y7056400D02*
G01*
X20867600Y7056400D01*
X20632731Y7028264D01*
X20407864Y6954848D01*
X20201641Y6838973D01*
X20021986Y6685093D01*
X19875804Y6499121D01*
X19768712Y6288203D01*
X19705690Y6063768D01*
X19788492Y5875400D01*
X22067600Y5875400D01*
X22067600Y5895400D01*
X22118400Y5895400D01*
X22118400Y5875400D01*
X24397508Y5875400D01*
X24480310Y6063768D01*
X24417288Y6288203D01*
X24310196Y6499121D01*
X24274319Y6544764D01*
X24587600Y6492550D01*
X24587601Y-6492550D01*
X24274319Y-6544764D01*
X24310196Y-6499121D01*
X24417288Y-6288203D01*
X24480310Y-6063768D01*
X24397508Y-5875400D01*
X22118400Y-5875400D01*
X22118400Y-5895400D01*
X22067600Y-5895400D01*
X22067600Y-5875400D01*
X19788492Y-5875400D01*
X19705690Y-6063768D01*
X19768712Y-6288203D01*
X19875804Y-6499121D01*
X20021986Y-6685093D01*
X20201641Y-6838973D01*
X20407864Y-6954848D01*
X20632731Y-7028264D01*
X20867600Y-7056400D01*
X21204501Y-7056400D01*
X17363301Y-7696600D01*
X431400Y-7696600D01*
X431400Y-6871699D01*
X3518000Y-6871699D01*
X3597668Y-6863852D01*
X3674275Y-6840614D01*
X3744876Y-6802877D01*
X3806758Y-6752091D01*
X3857544Y-6690209D01*
X3895281Y-6619608D01*
X3918519Y-6543001D01*
X3926366Y-6463333D01*
X3926366Y-6299000D01*
X5013034Y-6299000D01*
X5020881Y-6378668D01*
X5044119Y-6455275D01*
X5081856Y-6525876D01*
X5132642Y-6587758D01*
X5194524Y-6638544D01*
X5265125Y-6676281D01*
X5341732Y-6699519D01*
X5421400Y-6707366D01*
X5994400Y-6705400D01*
X6096000Y-6603800D01*
X6096000Y-5749400D01*
X5116600Y-5749400D01*
X5015000Y-5851000D01*
X5013034Y-6299000D01*
X3926366Y-6299000D01*
X3926366Y-5149000D01*
X5013034Y-5149000D01*
X5015000Y-5597000D01*
X5116600Y-5698600D01*
X6096000Y-5698600D01*
X6096000Y-4844200D01*
X6146800Y-4844200D01*
X6146800Y-5698600D01*
X6166800Y-5698600D01*
X6166800Y-5749400D01*
X6146800Y-5749400D01*
X6146800Y-6603800D01*
X6248400Y-6705400D01*
X6821400Y-6707366D01*
X6901068Y-6699519D01*
X6977675Y-6676281D01*
X7048276Y-6638544D01*
X7110158Y-6587758D01*
X7160944Y-6525876D01*
X7187849Y-6475540D01*
X7212465Y-6505535D01*
X7312231Y-6587411D01*
X7426054Y-6648251D01*
X7549558Y-6685716D01*
X7677999Y-6698366D01*
X8578001Y-6698366D01*
X8706442Y-6685716D01*
X8829946Y-6648251D01*
X8943769Y-6587411D01*
X9043535Y-6505535D01*
X9125411Y-6405769D01*
X9141644Y-6375400D01*
X9158244Y-6375400D01*
X9216061Y-6363899D01*
X9235124Y-6379544D01*
X9305725Y-6417281D01*
X9382332Y-6440519D01*
X9462000Y-6448366D01*
X10522000Y-6448366D01*
X10601668Y-6440519D01*
X10678275Y-6417281D01*
X10748876Y-6379544D01*
X10810758Y-6328758D01*
X10861544Y-6266876D01*
X10899281Y-6196275D01*
X10922519Y-6119668D01*
X10930366Y-6040000D01*
X10930366Y-6025946D01*
X11027140Y-6122720D01*
X11046134Y-6145864D01*
X11138470Y-6221643D01*
X11243816Y-6277951D01*
X11313205Y-6299000D01*
X11358122Y-6312626D01*
X11360168Y-6312827D01*
X11373242Y-6328758D01*
X11435124Y-6379544D01*
X11505725Y-6417281D01*
X11582332Y-6440519D01*
X11662000Y-6448366D01*
X12722000Y-6448366D01*
X12801668Y-6440519D01*
X12878275Y-6417281D01*
X12948876Y-6379544D01*
X13010758Y-6328758D01*
X13061544Y-6266876D01*
X13099281Y-6196275D01*
X13111498Y-6156000D01*
X13163634Y-6156000D01*
X13171481Y-6235668D01*
X13194719Y-6312275D01*
X13232456Y-6382876D01*
X13283242Y-6444758D01*
X13345124Y-6495544D01*
X13415725Y-6533281D01*
X13492332Y-6556519D01*
X13572000Y-6564366D01*
X13970000Y-6562400D01*
X14071600Y-6460800D01*
X14071600Y-5531400D01*
X14122400Y-5531400D01*
X14122400Y-6460800D01*
X14224000Y-6562400D01*
X14622000Y-6564366D01*
X14701668Y-6556519D01*
X14778275Y-6533281D01*
X14848876Y-6495544D01*
X14910758Y-6444758D01*
X14961544Y-6382876D01*
X14999281Y-6312275D01*
X15022519Y-6235668D01*
X15030366Y-6156000D01*
X15028413Y-5636232D01*
X19705690Y-5636232D01*
X19788492Y-5824600D01*
X22067600Y-5824600D01*
X22067600Y-4643600D01*
X22118400Y-4643600D01*
X22118400Y-5824600D01*
X24397508Y-5824600D01*
X24480310Y-5636232D01*
X24417288Y-5411797D01*
X24310196Y-5200879D01*
X24164014Y-5014907D01*
X23984359Y-4861027D01*
X23778136Y-4745152D01*
X23553269Y-4671736D01*
X23318400Y-4643600D01*
X22118400Y-4643600D01*
X22067600Y-4643600D01*
X20867600Y-4643600D01*
X20632731Y-4671736D01*
X20407864Y-4745152D01*
X20201641Y-4861027D01*
X20021986Y-5014907D01*
X19875804Y-5200879D01*
X19768712Y-5411797D01*
X19705690Y-5636232D01*
X15028413Y-5636232D01*
X15028400Y-5633000D01*
X14926800Y-5531400D01*
X14122400Y-5531400D01*
X14071600Y-5531400D01*
X13267200Y-5531400D01*
X13165600Y-5633000D01*
X13163634Y-6156000D01*
X13111498Y-6156000D01*
X13122519Y-6119668D01*
X13130366Y-6040000D01*
X13130366Y-5390000D01*
X13122519Y-5310332D01*
X13101184Y-5240000D01*
X13122519Y-5169668D01*
X13130366Y-5090000D01*
X13128400Y-4892000D01*
X13026800Y-4790400D01*
X12217400Y-4790400D01*
X12217400Y-4810400D01*
X12166600Y-4810400D01*
X12166600Y-4790400D01*
X12146600Y-4790400D01*
X12146600Y-4739600D01*
X12166600Y-4739600D01*
X12166600Y-4719600D01*
X12217400Y-4719600D01*
X12217400Y-4739600D01*
X13026800Y-4739600D01*
X13128400Y-4638000D01*
X13130366Y-4440000D01*
X13128534Y-4421400D01*
X13356354Y-4421400D01*
X13356465Y-4421535D01*
X13423332Y-4476411D01*
X13415725Y-4478719D01*
X13345124Y-4516456D01*
X13283242Y-4567242D01*
X13232456Y-4629124D01*
X13194719Y-4699725D01*
X13171481Y-4776332D01*
X13163634Y-4856000D01*
X13165600Y-5379000D01*
X13267200Y-5480600D01*
X14071600Y-5480600D01*
X14071600Y-5460600D01*
X14122400Y-5460600D01*
X14122400Y-5480600D01*
X14926800Y-5480600D01*
X15028400Y-5379000D01*
X15030366Y-4856000D01*
X15022519Y-4776332D01*
X14999281Y-4699725D01*
X14961544Y-4629124D01*
X14910758Y-4567242D01*
X14848876Y-4516456D01*
X14778275Y-4478719D01*
X14770668Y-4476411D01*
X14837535Y-4421535D01*
X14919411Y-4321769D01*
X14980251Y-4207946D01*
X14982370Y-4200961D01*
X15086626Y-4270623D01*
X15233382Y-4331411D01*
X15389177Y-4362400D01*
X15548023Y-4362400D01*
X15703818Y-4331411D01*
X15850574Y-4270623D01*
X15982650Y-4182372D01*
X16094972Y-4070050D01*
X16108369Y-4050000D01*
X18184634Y-4050000D01*
X18192481Y-4129668D01*
X18215719Y-4206275D01*
X18253456Y-4276876D01*
X18304242Y-4338758D01*
X18366124Y-4389544D01*
X18436725Y-4427281D01*
X18513332Y-4450519D01*
X18593000Y-4458366D01*
X19466000Y-4456400D01*
X19567600Y-4354800D01*
X19567600Y-3525400D01*
X19618400Y-3525400D01*
X19618400Y-4354800D01*
X19720000Y-4456400D01*
X20593000Y-4458366D01*
X20672668Y-4450519D01*
X20749275Y-4427281D01*
X20819876Y-4389544D01*
X20881758Y-4338758D01*
X20932544Y-4276876D01*
X20970281Y-4206275D01*
X20993519Y-4129668D01*
X21001366Y-4050000D01*
X20999400Y-3627000D01*
X20897800Y-3525400D01*
X19618400Y-3525400D01*
X19567600Y-3525400D01*
X18288200Y-3525400D01*
X18186600Y-3627000D01*
X18184634Y-4050000D01*
X16108369Y-4050000D01*
X16183223Y-3937974D01*
X16244011Y-3791218D01*
X16275000Y-3635423D01*
X16275000Y-3476577D01*
X16244011Y-3320782D01*
X16183223Y-3174026D01*
X16094972Y-3041950D01*
X16003022Y-2950000D01*
X18184634Y-2950000D01*
X18186600Y-3373000D01*
X18288200Y-3474600D01*
X19567600Y-3474600D01*
X19567600Y-2645200D01*
X19618400Y-2645200D01*
X19618400Y-3474600D01*
X20897800Y-3474600D01*
X20999400Y-3373000D01*
X21001366Y-2950000D01*
X20993519Y-2870332D01*
X20970281Y-2793725D01*
X20932544Y-2723124D01*
X20881758Y-2661242D01*
X20819876Y-2610456D01*
X20749275Y-2572719D01*
X20672668Y-2549481D01*
X20593000Y-2541634D01*
X19720000Y-2543600D01*
X19618400Y-2645200D01*
X19567600Y-2645200D01*
X19466000Y-2543600D01*
X18593000Y-2541634D01*
X18513332Y-2549481D01*
X18436725Y-2572719D01*
X18366124Y-2610456D01*
X18304242Y-2661242D01*
X18253456Y-2723124D01*
X18215719Y-2793725D01*
X18192481Y-2870332D01*
X18184634Y-2950000D01*
X16003022Y-2950000D01*
X15982650Y-2929628D01*
X15850574Y-2841377D01*
X15703818Y-2780589D01*
X15548023Y-2749600D01*
X15389177Y-2749600D01*
X15233382Y-2780589D01*
X15086626Y-2841377D01*
X14982370Y-2911039D01*
X14980251Y-2904054D01*
X14919411Y-2790231D01*
X14837535Y-2690465D01*
X14737769Y-2608589D01*
X14623946Y-2547749D01*
X14500442Y-2510284D01*
X14372001Y-2497634D01*
X13821999Y-2497634D01*
X13693558Y-2510284D01*
X13570054Y-2547749D01*
X13456231Y-2608589D01*
X13356465Y-2690465D01*
X13274589Y-2790231D01*
X13213749Y-2904054D01*
X13176284Y-3027558D01*
X13163634Y-3155999D01*
X13163634Y-3208600D01*
X13016797Y-3208600D01*
X13010758Y-3201242D01*
X12948876Y-3150456D01*
X12878275Y-3112719D01*
X12801668Y-3089481D01*
X12722000Y-3081634D01*
X11814273Y-3081634D01*
X11809625Y-3034439D01*
X11774950Y-2920132D01*
X11718642Y-2814786D01*
X11690577Y-2780589D01*
X11661853Y-2745588D01*
X11661848Y-2745583D01*
X11642863Y-2722450D01*
X11619730Y-2703465D01*
X11122068Y-2205803D01*
X21136600Y-2205803D01*
X21136600Y-2394197D01*
X21173354Y-2578972D01*
X21245449Y-2753025D01*
X21350115Y-2909670D01*
X21483330Y-3042885D01*
X21639975Y-3147551D01*
X21814028Y-3219646D01*
X21998803Y-3256400D01*
X22187197Y-3256400D01*
X22371972Y-3219646D01*
X22546025Y-3147551D01*
X22702670Y-3042885D01*
X22835885Y-2909670D01*
X22940551Y-2753025D01*
X23012646Y-2578972D01*
X23049400Y-2394197D01*
X23049400Y-2205803D01*
X23012646Y-2021028D01*
X22940551Y-1846975D01*
X22835885Y-1690330D01*
X22702670Y-1557115D01*
X22546025Y-1452449D01*
X22371972Y-1380354D01*
X22187197Y-1343600D01*
X21998803Y-1343600D01*
X21814028Y-1380354D01*
X21639975Y-1452449D01*
X21483330Y-1557115D01*
X21350115Y-1690330D01*
X21245449Y-1846975D01*
X21173354Y-2021028D01*
X21136600Y-2205803D01*
X11122068Y-2205803D01*
X10718343Y-1802079D01*
X10699349Y-1778936D01*
X10607013Y-1703157D01*
X10501667Y-1646849D01*
X10387360Y-1612174D01*
X10298275Y-1603400D01*
X10298267Y-1603400D01*
X10268485Y-1600467D01*
X10238703Y-1603400D01*
X9576422Y-1603400D01*
X9556450Y-1583428D01*
X9424374Y-1495177D01*
X9277618Y-1434389D01*
X9121823Y-1403400D01*
X8962977Y-1403400D01*
X8807182Y-1434389D01*
X8660426Y-1495177D01*
X8528350Y-1583428D01*
X8416028Y-1695750D01*
X8327777Y-1827826D01*
X8266989Y-1974582D01*
X8236000Y-2130377D01*
X8236000Y-2289223D01*
X8266989Y-2445018D01*
X8327777Y-2591774D01*
X8388827Y-2683141D01*
X8255000Y-2683600D01*
X8153400Y-2785200D01*
X8153400Y-3639600D01*
X8173400Y-3639600D01*
X8173400Y-3690400D01*
X8153400Y-3690400D01*
X8153400Y-4544800D01*
X8255000Y-4646400D01*
X8828000Y-4648366D01*
X8907668Y-4640519D01*
X8984275Y-4617281D01*
X9054876Y-4579544D01*
X9116758Y-4528758D01*
X9167544Y-4466876D01*
X9183443Y-4437130D01*
X9235124Y-4479544D01*
X9305725Y-4517281D01*
X9382332Y-4540519D01*
X9462000Y-4548366D01*
X10522000Y-4548366D01*
X10601668Y-4540519D01*
X10605600Y-4539326D01*
X10605599Y-4990674D01*
X10601668Y-4989481D01*
X10522000Y-4981634D01*
X9895127Y-4981634D01*
X9865000Y-4978667D01*
X9834873Y-4981634D01*
X9682135Y-4981634D01*
X9681790Y-4981600D01*
X9622210Y-4981600D01*
X9621865Y-4981634D01*
X9462000Y-4981634D01*
X9382332Y-4989481D01*
X9305725Y-5012719D01*
X9235124Y-5050456D01*
X9216061Y-5066101D01*
X9158244Y-5054600D01*
X9141644Y-5054600D01*
X9125411Y-5024231D01*
X9043535Y-4924465D01*
X8943769Y-4842589D01*
X8829946Y-4781749D01*
X8706442Y-4744284D01*
X8578001Y-4731634D01*
X7677999Y-4731634D01*
X7549558Y-4744284D01*
X7426054Y-4781749D01*
X7312231Y-4842589D01*
X7212465Y-4924465D01*
X7182023Y-4961559D01*
X7160944Y-4922124D01*
X7110158Y-4860242D01*
X7048276Y-4809456D01*
X6977675Y-4771719D01*
X6901068Y-4748481D01*
X6821400Y-4740634D01*
X6248400Y-4742600D01*
X6146800Y-4844200D01*
X6096000Y-4844200D01*
X5994400Y-4742600D01*
X5421400Y-4740634D01*
X5341732Y-4748481D01*
X5265125Y-4771719D01*
X5194524Y-4809456D01*
X5132642Y-4860242D01*
X5081856Y-4922124D01*
X5044119Y-4992725D01*
X5020881Y-5069332D01*
X5013034Y-5149000D01*
X3926366Y-5149000D01*
X3926366Y-4787902D01*
X3938544Y-4787902D01*
X4066131Y-4762523D01*
X4186317Y-4712741D01*
X4294480Y-4640468D01*
X4386466Y-4548482D01*
X4458739Y-4440319D01*
X4508521Y-4320133D01*
X4533900Y-4192546D01*
X4533900Y-4187391D01*
X4590029Y-4118997D01*
X4637201Y-4030745D01*
X4666249Y-3934987D01*
X4673600Y-3860349D01*
X4673600Y-3860346D01*
X4676057Y-3835402D01*
X4673600Y-3810458D01*
X4673600Y272180D01*
X4914634Y513214D01*
X4914634Y-900000D01*
X4922481Y-979668D01*
X4945719Y-1056275D01*
X4983456Y-1126876D01*
X5034242Y-1188758D01*
X5096124Y-1239544D01*
X5166725Y-1277281D01*
X5243332Y-1300519D01*
X5323000Y-1308366D01*
X5715000Y-1308366D01*
X5715001Y-2690634D01*
X5671399Y-2690634D01*
X5542958Y-2703284D01*
X5419454Y-2740749D01*
X5305631Y-2801589D01*
X5205865Y-2883465D01*
X5123989Y-2983231D01*
X5063149Y-3097054D01*
X5025684Y-3220558D01*
X5013034Y-3348999D01*
X5013034Y-3999001D01*
X5025684Y-4127442D01*
X5063149Y-4250946D01*
X5123989Y-4364769D01*
X5205865Y-4464535D01*
X5305631Y-4546411D01*
X5419454Y-4607251D01*
X5542958Y-4644716D01*
X5671399Y-4657366D01*
X6571401Y-4657366D01*
X6699842Y-4644716D01*
X6823346Y-4607251D01*
X6937169Y-4546411D01*
X7036935Y-4464535D01*
X7067377Y-4427441D01*
X7088456Y-4466876D01*
X7139242Y-4528758D01*
X7201124Y-4579544D01*
X7271725Y-4617281D01*
X7348332Y-4640519D01*
X7428000Y-4648366D01*
X8001000Y-4646400D01*
X8102600Y-4544800D01*
X8102600Y-3690400D01*
X8082600Y-3690400D01*
X8082600Y-3639600D01*
X8102600Y-3639600D01*
X8102600Y-2785200D01*
X8001000Y-2683600D01*
X7428000Y-2681634D01*
X7348332Y-2689481D01*
X7271725Y-2712719D01*
X7201124Y-2750456D01*
X7139242Y-2801242D01*
X7088456Y-2863124D01*
X7061551Y-2913460D01*
X7036935Y-2883465D01*
X6937169Y-2801589D01*
X6823346Y-2740749D01*
X6731000Y-2712736D01*
X6731000Y-1308366D01*
X7123000Y-1308366D01*
X7202668Y-1300519D01*
X7279275Y-1277281D01*
X7349876Y-1239544D01*
X7411758Y-1188758D01*
X7462544Y-1126876D01*
X7500281Y-1056275D01*
X7523519Y-979668D01*
X7531366Y-900000D01*
X7531366Y-440361D01*
X7605283Y-618812D01*
X7748253Y-832781D01*
X7930219Y-1014747D01*
X8144188Y-1157717D01*
X8381937Y-1256196D01*
X8634331Y-1306400D01*
X8891669Y-1306400D01*
X9144063Y-1256196D01*
X9381812Y-1157717D01*
X9595781Y-1014747D01*
X9777747Y-832781D01*
X9920717Y-618812D01*
X10019196Y-381063D01*
X10069400Y-128669D01*
X10069400Y128669D01*
X10019196Y381063D01*
X9920717Y618812D01*
X9777747Y832781D01*
X9595781Y1014747D01*
X9381812Y1157717D01*
X9178500Y1241932D01*
X9178500Y1407634D01*
X9248000Y1407634D01*
X9288043Y1409602D01*
X9296822Y1410467D01*
X9375285Y1426072D01*
X9383727Y1428632D01*
X9422802Y1444816D01*
X9425307Y1443477D01*
X9513639Y1416682D01*
X9605500Y1407634D01*
X9730500Y1407634D01*
X9822361Y1416682D01*
X9910693Y1443477D01*
X9918000Y1447383D01*
X9925307Y1443477D01*
X10013639Y1416682D01*
X10105500Y1407634D01*
X10230500Y1407634D01*
X10322361Y1416682D01*
X10410693Y1443477D01*
X10418000Y1447383D01*
X10425307Y1443477D01*
X10513639Y1416682D01*
X10605500Y1407634D01*
X10730500Y1407634D01*
X10822361Y1416682D01*
X10910693Y1443477D01*
X10918000Y1447383D01*
X10925307Y1443477D01*
X11013639Y1416682D01*
X11105500Y1407634D01*
X11230500Y1407634D01*
X11322361Y1416682D01*
X11410693Y1443477D01*
X11418000Y1447383D01*
X11425307Y1443477D01*
X11513639Y1416682D01*
X11605500Y1407634D01*
X11622031Y1407634D01*
X11440906Y1286610D01*
X11210190Y1055894D01*
X11028917Y784600D01*
X10904054Y483154D01*
X10840400Y163141D01*
X10840400Y-163141D01*
X10904054Y-483154D01*
X11028917Y-784600D01*
X11210190Y-1055894D01*
X11440906Y-1286610D01*
X11712200Y-1467883D01*
X12013646Y-1592746D01*
X12333659Y-1656400D01*
X12659941Y-1656400D01*
X12979954Y-1592746D01*
X13281400Y-1467883D01*
X13552694Y-1286610D01*
X13783410Y-1055894D01*
X13964683Y-784600D01*
X14089546Y-483154D01*
X14153200Y-163141D01*
X14153200Y163141D01*
X14089546Y483154D01*
X13964683Y784600D01*
X13783410Y1055894D01*
X13772304Y1067000D01*
X14131634Y1067000D01*
X14139481Y987332D01*
X14162719Y910725D01*
X14200456Y840124D01*
X14251242Y778242D01*
X14313124Y727456D01*
X14383725Y689719D01*
X14460332Y666481D01*
X14540000Y658634D01*
X15113000Y660600D01*
X15214600Y762200D01*
X15214600Y1616600D01*
X15265400Y1616600D01*
X15265400Y762200D01*
X15367000Y660600D01*
X15940000Y658634D01*
X16019668Y666481D01*
X16096275Y689719D01*
X16166876Y727456D01*
X16228758Y778242D01*
X16279544Y840124D01*
X16317281Y910725D01*
X16340519Y987332D01*
X16348366Y1067000D01*
X16346400Y1515000D01*
X16244800Y1616600D01*
X15265400Y1616600D01*
X15214600Y1616600D01*
X14235200Y1616600D01*
X14133600Y1515000D01*
X14131634Y1067000D01*
X13772304Y1067000D01*
X13552694Y1286610D01*
X13281400Y1467883D01*
X12979954Y1592746D01*
X12659941Y1656400D01*
X12651842Y1656400D01*
X12680368Y1725273D01*
X12682928Y1733715D01*
X12698533Y1812178D01*
X12699398Y1820957D01*
X12701366Y1861000D01*
X12701366Y2157634D01*
X12998000Y2157634D01*
X13038043Y2159602D01*
X13046822Y2160467D01*
X13125285Y2176072D01*
X13133727Y2178632D01*
X13207742Y2209288D01*
X13215522Y2213447D01*
X13220839Y2217000D01*
X14131634Y2217000D01*
X14133600Y1769000D01*
X14235200Y1667400D01*
X15214600Y1667400D01*
X15214600Y2521800D01*
X15265400Y2521800D01*
X15265400Y1667400D01*
X16244800Y1667400D01*
X16346400Y1769000D01*
X16348366Y2217000D01*
X16340519Y2296668D01*
X16317281Y2373275D01*
X16279544Y2443876D01*
X16228758Y2505758D01*
X16166876Y2556544D01*
X16096275Y2594281D01*
X16019668Y2617519D01*
X15940000Y2625366D01*
X15367000Y2623400D01*
X15265400Y2521800D01*
X15214600Y2521800D01*
X15113000Y2623400D01*
X14540000Y2625366D01*
X14460332Y2617519D01*
X14383725Y2594281D01*
X14313124Y2556544D01*
X14251242Y2505758D01*
X14200456Y2443876D01*
X14162719Y2373275D01*
X14139481Y2296668D01*
X14131634Y2217000D01*
X13220839Y2217000D01*
X13282060Y2257908D01*
X13288879Y2263504D01*
X13345496Y2320121D01*
X13351092Y2326940D01*
X13395553Y2393478D01*
X13399712Y2401258D01*
X13430368Y2475273D01*
X13432928Y2483715D01*
X13448533Y2562178D01*
X13449398Y2570957D01*
X13451366Y2611000D01*
X13451366Y2771000D01*
X13449398Y2811043D01*
X13448533Y2819822D01*
X13432928Y2898285D01*
X13430368Y2906727D01*
X13424020Y2922052D01*
X13443519Y2986332D01*
X13451366Y3066000D01*
X13449400Y3066000D01*
X13347800Y3167600D01*
X13216948Y3167600D01*
X13215522Y3168553D01*
X13207742Y3172712D01*
X13158912Y3192937D01*
X13160693Y3193477D01*
X13199838Y3214400D01*
X13347800Y3214400D01*
X13449400Y3316000D01*
X13451366Y3316000D01*
X13443519Y3395668D01*
X13421537Y3468134D01*
X13442318Y3536639D01*
X13451366Y3628500D01*
X13451366Y3683000D01*
X14131634Y3683000D01*
X14131634Y3366999D01*
X14144284Y3238558D01*
X14181749Y3115054D01*
X14242589Y3001231D01*
X14324465Y2901465D01*
X14424231Y2819589D01*
X14538054Y2758749D01*
X14661558Y2721284D01*
X14789999Y2708634D01*
X15690001Y2708634D01*
X15818442Y2721284D01*
X15941946Y2758749D01*
X16055769Y2819589D01*
X16155535Y2901465D01*
X16237411Y3001231D01*
X16298251Y3115054D01*
X16335716Y3238558D01*
X16348366Y3366999D01*
X16348366Y4017001D01*
X16335716Y4145442D01*
X16298251Y4268946D01*
X16279519Y4303990D01*
X16408401Y4303990D01*
X16408400Y1203500D01*
X16405943Y1178556D01*
X16408400Y1153612D01*
X16408400Y1153610D01*
X16415751Y1078972D01*
X16444799Y983214D01*
X16491971Y894961D01*
X16555452Y817608D01*
X16574835Y801701D01*
X16702099Y674437D01*
X16718006Y655054D01*
X16795359Y591573D01*
X16816676Y580179D01*
X16815254Y573032D01*
X16815254Y442944D01*
X16840633Y315357D01*
X16890415Y195171D01*
X16962688Y87008D01*
X17054674Y-4978D01*
X17162837Y-77251D01*
X17283023Y-127033D01*
X17410610Y-152412D01*
X17417634Y-152412D01*
X18184634Y-919413D01*
X18184634Y-1550000D01*
X18192481Y-1629668D01*
X18215719Y-1706275D01*
X18253456Y-1776876D01*
X18304242Y-1838758D01*
X18366124Y-1889544D01*
X18436725Y-1927281D01*
X18513332Y-1950519D01*
X18593000Y-1958366D01*
X20593000Y-1958366D01*
X20672668Y-1950519D01*
X20749275Y-1927281D01*
X20819876Y-1889544D01*
X20881758Y-1838758D01*
X20932544Y-1776876D01*
X20970281Y-1706275D01*
X20993519Y-1629668D01*
X21001366Y-1550000D01*
X21001366Y-450000D01*
X20993519Y-370332D01*
X20970281Y-293725D01*
X20932544Y-223124D01*
X20881758Y-161242D01*
X20819876Y-110456D01*
X20749275Y-72719D01*
X20672668Y-49481D01*
X20593000Y-41634D01*
X18743697Y-41634D01*
X18660428Y41634D01*
X20593000Y41634D01*
X20672668Y49481D01*
X20749275Y72719D01*
X20819876Y110456D01*
X20881758Y161242D01*
X20932544Y223124D01*
X20970281Y293725D01*
X20993519Y370332D01*
X21001366Y450000D01*
X21001366Y1550000D01*
X20993519Y1629668D01*
X20970281Y1706275D01*
X20932544Y1776876D01*
X20881758Y1838758D01*
X20819876Y1889544D01*
X20749275Y1927281D01*
X20672668Y1950519D01*
X20593000Y1958366D01*
X18593000Y1958366D01*
X18513332Y1950519D01*
X18436725Y1927281D01*
X18366124Y1889544D01*
X18304242Y1838758D01*
X18253456Y1776876D01*
X18215719Y1706275D01*
X18192481Y1629668D01*
X18184634Y1550000D01*
X18184634Y1523998D01*
X18110200Y1523998D01*
X18110200Y1589056D01*
X18084821Y1716643D01*
X18035039Y1836829D01*
X17962766Y1944992D01*
X17957800Y1949958D01*
X17957800Y2394197D01*
X21136600Y2394197D01*
X21136600Y2205803D01*
X21173354Y2021028D01*
X21245449Y1846975D01*
X21350115Y1690330D01*
X21483330Y1557115D01*
X21639975Y1452449D01*
X21814028Y1380354D01*
X21998803Y1343600D01*
X22187197Y1343600D01*
X22371972Y1380354D01*
X22546025Y1452449D01*
X22702670Y1557115D01*
X22835885Y1690330D01*
X22940551Y1846975D01*
X23012646Y2021028D01*
X23049400Y2205803D01*
X23049400Y2394197D01*
X23012646Y2578972D01*
X22940551Y2753025D01*
X22835885Y2909670D01*
X22702670Y3042885D01*
X22546025Y3147551D01*
X22371972Y3219646D01*
X22187197Y3256400D01*
X21998803Y3256400D01*
X21814028Y3219646D01*
X21639975Y3147551D01*
X21483330Y3042885D01*
X21350115Y2909670D01*
X21245449Y2753025D01*
X21173354Y2578972D01*
X21136600Y2394197D01*
X17957800Y2394197D01*
X17957800Y4667503D01*
X18042628Y4540550D01*
X18154950Y4428228D01*
X18287026Y4339977D01*
X18300621Y4334346D01*
X18253456Y4276876D01*
X18215719Y4206275D01*
X18192481Y4129668D01*
X18184634Y4050000D01*
X18184634Y2950000D01*
X18192481Y2870332D01*
X18215719Y2793725D01*
X18253456Y2723124D01*
X18304242Y2661242D01*
X18366124Y2610456D01*
X18436725Y2572719D01*
X18513332Y2549481D01*
X18593000Y2541634D01*
X20593000Y2541634D01*
X20672668Y2549481D01*
X20749275Y2572719D01*
X20819876Y2610456D01*
X20881758Y2661242D01*
X20932544Y2723124D01*
X20970281Y2793725D01*
X20993519Y2870332D01*
X21001366Y2950000D01*
X21001366Y4050000D01*
X20993519Y4129668D01*
X20970281Y4206275D01*
X20932544Y4276876D01*
X20881758Y4338758D01*
X20819876Y4389544D01*
X20749275Y4427281D01*
X20672668Y4450519D01*
X20593000Y4458366D01*
X20105395Y4458366D01*
X20099643Y4469128D01*
X20077871Y4495657D01*
X20042854Y4538326D01*
X20042849Y4538331D01*
X20023864Y4561464D01*
X20000731Y4580449D01*
X19475400Y5105779D01*
X19475400Y5134023D01*
X19444411Y5289818D01*
X19383623Y5436574D01*
X19295372Y5568650D01*
X19227790Y5636232D01*
X19705690Y5636232D01*
X19768712Y5411797D01*
X19875804Y5200879D01*
X20021986Y5014907D01*
X20201641Y4861027D01*
X20407864Y4745152D01*
X20632731Y4671736D01*
X20867600Y4643600D01*
X22067600Y4643600D01*
X22067600Y5824600D01*
X22118400Y5824600D01*
X22118400Y4643600D01*
X23318400Y4643600D01*
X23553269Y4671736D01*
X23778136Y4745152D01*
X23984359Y4861027D01*
X24164014Y5014907D01*
X24310196Y5200879D01*
X24417288Y5411797D01*
X24480310Y5636232D01*
X24397508Y5824600D01*
X22118400Y5824600D01*
X22067600Y5824600D01*
X19788492Y5824600D01*
X19705690Y5636232D01*
X19227790Y5636232D01*
X19183050Y5680972D01*
X19050974Y5769223D01*
X18904218Y5830011D01*
X18748423Y5861000D01*
X18589577Y5861000D01*
X18433782Y5830011D01*
X18287026Y5769223D01*
X18154950Y5680972D01*
X18042628Y5568650D01*
X17954377Y5436574D01*
X17893589Y5289818D01*
X17862600Y5134023D01*
X17862600Y4994032D01*
X17826650Y5037837D01*
X17810748Y5057214D01*
X17791370Y5073117D01*
X17331921Y5532565D01*
X17316014Y5551948D01*
X17238661Y5615429D01*
X17150409Y5662601D01*
X17054651Y5691649D01*
X16980013Y5699000D01*
X16980010Y5699000D01*
X16955066Y5701457D01*
X16930122Y5699000D01*
X15506527Y5699000D01*
X15581570Y5774043D01*
X15600948Y5789946D01*
X15628563Y5823595D01*
X15664429Y5867298D01*
X15711600Y5955549D01*
X15714294Y5964429D01*
X15740649Y6051309D01*
X15745487Y6100433D01*
X15746005Y6100710D01*
X15884022Y6213978D01*
X15997290Y6351995D01*
X16081456Y6509458D01*
X16133285Y6680315D01*
X16150785Y6858000D01*
X16133285Y7035685D01*
X16081456Y7206542D01*
X15997290Y7364005D01*
X15884022Y7502022D01*
X15746005Y7615290D01*
X15593885Y7696600D01*
X17363301Y7696600D01*
X21204501Y7056400D01*
X21204501Y7056400D01*
G37*
X21204501Y7056400D02*
X20867600Y7056400D01*
X20632731Y7028264D01*
X20407864Y6954848D01*
X20201641Y6838973D01*
X20021986Y6685093D01*
X19875804Y6499121D01*
X19768712Y6288203D01*
X19705690Y6063768D01*
X19788492Y5875400D01*
X22067600Y5875400D01*
X22067600Y5895400D01*
X22118400Y5895400D01*
X22118400Y5875400D01*
X24397508Y5875400D01*
X24480310Y6063768D01*
X24417288Y6288203D01*
X24310196Y6499121D01*
X24274319Y6544764D01*
X24587600Y6492550D01*
X24587601Y-6492550D01*
X24274319Y-6544764D01*
X24310196Y-6499121D01*
X24417288Y-6288203D01*
X24480310Y-6063768D01*
X24397508Y-5875400D01*
X22118400Y-5875400D01*
X22118400Y-5895400D01*
X22067600Y-5895400D01*
X22067600Y-5875400D01*
X19788492Y-5875400D01*
X19705690Y-6063768D01*
X19768712Y-6288203D01*
X19875804Y-6499121D01*
X20021986Y-6685093D01*
X20201641Y-6838973D01*
X20407864Y-6954848D01*
X20632731Y-7028264D01*
X20867600Y-7056400D01*
X21204501Y-7056400D01*
X17363301Y-7696600D01*
X431400Y-7696600D01*
X431400Y-6871699D01*
X3518000Y-6871699D01*
X3597668Y-6863852D01*
X3674275Y-6840614D01*
X3744876Y-6802877D01*
X3806758Y-6752091D01*
X3857544Y-6690209D01*
X3895281Y-6619608D01*
X3918519Y-6543001D01*
X3926366Y-6463333D01*
X3926366Y-6299000D01*
X5013034Y-6299000D01*
X5020881Y-6378668D01*
X5044119Y-6455275D01*
X5081856Y-6525876D01*
X5132642Y-6587758D01*
X5194524Y-6638544D01*
X5265125Y-6676281D01*
X5341732Y-6699519D01*
X5421400Y-6707366D01*
X5994400Y-6705400D01*
X6096000Y-6603800D01*
X6096000Y-5749400D01*
X5116600Y-5749400D01*
X5015000Y-5851000D01*
X5013034Y-6299000D01*
X3926366Y-6299000D01*
X3926366Y-5149000D01*
X5013034Y-5149000D01*
X5015000Y-5597000D01*
X5116600Y-5698600D01*
X6096000Y-5698600D01*
X6096000Y-4844200D01*
X6146800Y-4844200D01*
X6146800Y-5698600D01*
X6166800Y-5698600D01*
X6166800Y-5749400D01*
X6146800Y-5749400D01*
X6146800Y-6603800D01*
X6248400Y-6705400D01*
X6821400Y-6707366D01*
X6901068Y-6699519D01*
X6977675Y-6676281D01*
X7048276Y-6638544D01*
X7110158Y-6587758D01*
X7160944Y-6525876D01*
X7187849Y-6475540D01*
X7212465Y-6505535D01*
X7312231Y-6587411D01*
X7426054Y-6648251D01*
X7549558Y-6685716D01*
X7677999Y-6698366D01*
X8578001Y-6698366D01*
X8706442Y-6685716D01*
X8829946Y-6648251D01*
X8943769Y-6587411D01*
X9043535Y-6505535D01*
X9125411Y-6405769D01*
X9141644Y-6375400D01*
X9158244Y-6375400D01*
X9216061Y-6363899D01*
X9235124Y-6379544D01*
X9305725Y-6417281D01*
X9382332Y-6440519D01*
X9462000Y-6448366D01*
X10522000Y-6448366D01*
X10601668Y-6440519D01*
X10678275Y-6417281D01*
X10748876Y-6379544D01*
X10810758Y-6328758D01*
X10861544Y-6266876D01*
X10899281Y-6196275D01*
X10922519Y-6119668D01*
X10930366Y-6040000D01*
X10930366Y-6025946D01*
X11027140Y-6122720D01*
X11046134Y-6145864D01*
X11138470Y-6221643D01*
X11243816Y-6277951D01*
X11313205Y-6299000D01*
X11358122Y-6312626D01*
X11360168Y-6312827D01*
X11373242Y-6328758D01*
X11435124Y-6379544D01*
X11505725Y-6417281D01*
X11582332Y-6440519D01*
X11662000Y-6448366D01*
X12722000Y-6448366D01*
X12801668Y-6440519D01*
X12878275Y-6417281D01*
X12948876Y-6379544D01*
X13010758Y-6328758D01*
X13061544Y-6266876D01*
X13099281Y-6196275D01*
X13111498Y-6156000D01*
X13163634Y-6156000D01*
X13171481Y-6235668D01*
X13194719Y-6312275D01*
X13232456Y-6382876D01*
X13283242Y-6444758D01*
X13345124Y-6495544D01*
X13415725Y-6533281D01*
X13492332Y-6556519D01*
X13572000Y-6564366D01*
X13970000Y-6562400D01*
X14071600Y-6460800D01*
X14071600Y-5531400D01*
X14122400Y-5531400D01*
X14122400Y-6460800D01*
X14224000Y-6562400D01*
X14622000Y-6564366D01*
X14701668Y-6556519D01*
X14778275Y-6533281D01*
X14848876Y-6495544D01*
X14910758Y-6444758D01*
X14961544Y-6382876D01*
X14999281Y-6312275D01*
X15022519Y-6235668D01*
X15030366Y-6156000D01*
X15028413Y-5636232D01*
X19705690Y-5636232D01*
X19788492Y-5824600D01*
X22067600Y-5824600D01*
X22067600Y-4643600D01*
X22118400Y-4643600D01*
X22118400Y-5824600D01*
X24397508Y-5824600D01*
X24480310Y-5636232D01*
X24417288Y-5411797D01*
X24310196Y-5200879D01*
X24164014Y-5014907D01*
X23984359Y-4861027D01*
X23778136Y-4745152D01*
X23553269Y-4671736D01*
X23318400Y-4643600D01*
X22118400Y-4643600D01*
X22067600Y-4643600D01*
X20867600Y-4643600D01*
X20632731Y-4671736D01*
X20407864Y-4745152D01*
X20201641Y-4861027D01*
X20021986Y-5014907D01*
X19875804Y-5200879D01*
X19768712Y-5411797D01*
X19705690Y-5636232D01*
X15028413Y-5636232D01*
X15028400Y-5633000D01*
X14926800Y-5531400D01*
X14122400Y-5531400D01*
X14071600Y-5531400D01*
X13267200Y-5531400D01*
X13165600Y-5633000D01*
X13163634Y-6156000D01*
X13111498Y-6156000D01*
X13122519Y-6119668D01*
X13130366Y-6040000D01*
X13130366Y-5390000D01*
X13122519Y-5310332D01*
X13101184Y-5240000D01*
X13122519Y-5169668D01*
X13130366Y-5090000D01*
X13128400Y-4892000D01*
X13026800Y-4790400D01*
X12217400Y-4790400D01*
X12217400Y-4810400D01*
X12166600Y-4810400D01*
X12166600Y-4790400D01*
X12146600Y-4790400D01*
X12146600Y-4739600D01*
X12166600Y-4739600D01*
X12166600Y-4719600D01*
X12217400Y-4719600D01*
X12217400Y-4739600D01*
X13026800Y-4739600D01*
X13128400Y-4638000D01*
X13130366Y-4440000D01*
X13128534Y-4421400D01*
X13356354Y-4421400D01*
X13356465Y-4421535D01*
X13423332Y-4476411D01*
X13415725Y-4478719D01*
X13345124Y-4516456D01*
X13283242Y-4567242D01*
X13232456Y-4629124D01*
X13194719Y-4699725D01*
X13171481Y-4776332D01*
X13163634Y-4856000D01*
X13165600Y-5379000D01*
X13267200Y-5480600D01*
X14071600Y-5480600D01*
X14071600Y-5460600D01*
X14122400Y-5460600D01*
X14122400Y-5480600D01*
X14926800Y-5480600D01*
X15028400Y-5379000D01*
X15030366Y-4856000D01*
X15022519Y-4776332D01*
X14999281Y-4699725D01*
X14961544Y-4629124D01*
X14910758Y-4567242D01*
X14848876Y-4516456D01*
X14778275Y-4478719D01*
X14770668Y-4476411D01*
X14837535Y-4421535D01*
X14919411Y-4321769D01*
X14980251Y-4207946D01*
X14982370Y-4200961D01*
X15086626Y-4270623D01*
X15233382Y-4331411D01*
X15389177Y-4362400D01*
X15548023Y-4362400D01*
X15703818Y-4331411D01*
X15850574Y-4270623D01*
X15982650Y-4182372D01*
X16094972Y-4070050D01*
X16108369Y-4050000D01*
X18184634Y-4050000D01*
X18192481Y-4129668D01*
X18215719Y-4206275D01*
X18253456Y-4276876D01*
X18304242Y-4338758D01*
X18366124Y-4389544D01*
X18436725Y-4427281D01*
X18513332Y-4450519D01*
X18593000Y-4458366D01*
X19466000Y-4456400D01*
X19567600Y-4354800D01*
X19567600Y-3525400D01*
X19618400Y-3525400D01*
X19618400Y-4354800D01*
X19720000Y-4456400D01*
X20593000Y-4458366D01*
X20672668Y-4450519D01*
X20749275Y-4427281D01*
X20819876Y-4389544D01*
X20881758Y-4338758D01*
X20932544Y-4276876D01*
X20970281Y-4206275D01*
X20993519Y-4129668D01*
X21001366Y-4050000D01*
X20999400Y-3627000D01*
X20897800Y-3525400D01*
X19618400Y-3525400D01*
X19567600Y-3525400D01*
X18288200Y-3525400D01*
X18186600Y-3627000D01*
X18184634Y-4050000D01*
X16108369Y-4050000D01*
X16183223Y-3937974D01*
X16244011Y-3791218D01*
X16275000Y-3635423D01*
X16275000Y-3476577D01*
X16244011Y-3320782D01*
X16183223Y-3174026D01*
X16094972Y-3041950D01*
X16003022Y-2950000D01*
X18184634Y-2950000D01*
X18186600Y-3373000D01*
X18288200Y-3474600D01*
X19567600Y-3474600D01*
X19567600Y-2645200D01*
X19618400Y-2645200D01*
X19618400Y-3474600D01*
X20897800Y-3474600D01*
X20999400Y-3373000D01*
X21001366Y-2950000D01*
X20993519Y-2870332D01*
X20970281Y-2793725D01*
X20932544Y-2723124D01*
X20881758Y-2661242D01*
X20819876Y-2610456D01*
X20749275Y-2572719D01*
X20672668Y-2549481D01*
X20593000Y-2541634D01*
X19720000Y-2543600D01*
X19618400Y-2645200D01*
X19567600Y-2645200D01*
X19466000Y-2543600D01*
X18593000Y-2541634D01*
X18513332Y-2549481D01*
X18436725Y-2572719D01*
X18366124Y-2610456D01*
X18304242Y-2661242D01*
X18253456Y-2723124D01*
X18215719Y-2793725D01*
X18192481Y-2870332D01*
X18184634Y-2950000D01*
X16003022Y-2950000D01*
X15982650Y-2929628D01*
X15850574Y-2841377D01*
X15703818Y-2780589D01*
X15548023Y-2749600D01*
X15389177Y-2749600D01*
X15233382Y-2780589D01*
X15086626Y-2841377D01*
X14982370Y-2911039D01*
X14980251Y-2904054D01*
X14919411Y-2790231D01*
X14837535Y-2690465D01*
X14737769Y-2608589D01*
X14623946Y-2547749D01*
X14500442Y-2510284D01*
X14372001Y-2497634D01*
X13821999Y-2497634D01*
X13693558Y-2510284D01*
X13570054Y-2547749D01*
X13456231Y-2608589D01*
X13356465Y-2690465D01*
X13274589Y-2790231D01*
X13213749Y-2904054D01*
X13176284Y-3027558D01*
X13163634Y-3155999D01*
X13163634Y-3208600D01*
X13016797Y-3208600D01*
X13010758Y-3201242D01*
X12948876Y-3150456D01*
X12878275Y-3112719D01*
X12801668Y-3089481D01*
X12722000Y-3081634D01*
X11814273Y-3081634D01*
X11809625Y-3034439D01*
X11774950Y-2920132D01*
X11718642Y-2814786D01*
X11690577Y-2780589D01*
X11661853Y-2745588D01*
X11661848Y-2745583D01*
X11642863Y-2722450D01*
X11619730Y-2703465D01*
X11122068Y-2205803D01*
X21136600Y-2205803D01*
X21136600Y-2394197D01*
X21173354Y-2578972D01*
X21245449Y-2753025D01*
X21350115Y-2909670D01*
X21483330Y-3042885D01*
X21639975Y-3147551D01*
X21814028Y-3219646D01*
X21998803Y-3256400D01*
X22187197Y-3256400D01*
X22371972Y-3219646D01*
X22546025Y-3147551D01*
X22702670Y-3042885D01*
X22835885Y-2909670D01*
X22940551Y-2753025D01*
X23012646Y-2578972D01*
X23049400Y-2394197D01*
X23049400Y-2205803D01*
X23012646Y-2021028D01*
X22940551Y-1846975D01*
X22835885Y-1690330D01*
X22702670Y-1557115D01*
X22546025Y-1452449D01*
X22371972Y-1380354D01*
X22187197Y-1343600D01*
X21998803Y-1343600D01*
X21814028Y-1380354D01*
X21639975Y-1452449D01*
X21483330Y-1557115D01*
X21350115Y-1690330D01*
X21245449Y-1846975D01*
X21173354Y-2021028D01*
X21136600Y-2205803D01*
X11122068Y-2205803D01*
X10718343Y-1802079D01*
X10699349Y-1778936D01*
X10607013Y-1703157D01*
X10501667Y-1646849D01*
X10387360Y-1612174D01*
X10298275Y-1603400D01*
X10298267Y-1603400D01*
X10268485Y-1600467D01*
X10238703Y-1603400D01*
X9576422Y-1603400D01*
X9556450Y-1583428D01*
X9424374Y-1495177D01*
X9277618Y-1434389D01*
X9121823Y-1403400D01*
X8962977Y-1403400D01*
X8807182Y-1434389D01*
X8660426Y-1495177D01*
X8528350Y-1583428D01*
X8416028Y-1695750D01*
X8327777Y-1827826D01*
X8266989Y-1974582D01*
X8236000Y-2130377D01*
X8236000Y-2289223D01*
X8266989Y-2445018D01*
X8327777Y-2591774D01*
X8388827Y-2683141D01*
X8255000Y-2683600D01*
X8153400Y-2785200D01*
X8153400Y-3639600D01*
X8173400Y-3639600D01*
X8173400Y-3690400D01*
X8153400Y-3690400D01*
X8153400Y-4544800D01*
X8255000Y-4646400D01*
X8828000Y-4648366D01*
X8907668Y-4640519D01*
X8984275Y-4617281D01*
X9054876Y-4579544D01*
X9116758Y-4528758D01*
X9167544Y-4466876D01*
X9183443Y-4437130D01*
X9235124Y-4479544D01*
X9305725Y-4517281D01*
X9382332Y-4540519D01*
X9462000Y-4548366D01*
X10522000Y-4548366D01*
X10601668Y-4540519D01*
X10605600Y-4539326D01*
X10605599Y-4990674D01*
X10601668Y-4989481D01*
X10522000Y-4981634D01*
X9895127Y-4981634D01*
X9865000Y-4978667D01*
X9834873Y-4981634D01*
X9682135Y-4981634D01*
X9681790Y-4981600D01*
X9622210Y-4981600D01*
X9621865Y-4981634D01*
X9462000Y-4981634D01*
X9382332Y-4989481D01*
X9305725Y-5012719D01*
X9235124Y-5050456D01*
X9216061Y-5066101D01*
X9158244Y-5054600D01*
X9141644Y-5054600D01*
X9125411Y-5024231D01*
X9043535Y-4924465D01*
X8943769Y-4842589D01*
X8829946Y-4781749D01*
X8706442Y-4744284D01*
X8578001Y-4731634D01*
X7677999Y-4731634D01*
X7549558Y-4744284D01*
X7426054Y-4781749D01*
X7312231Y-4842589D01*
X7212465Y-4924465D01*
X7182023Y-4961559D01*
X7160944Y-4922124D01*
X7110158Y-4860242D01*
X7048276Y-4809456D01*
X6977675Y-4771719D01*
X6901068Y-4748481D01*
X6821400Y-4740634D01*
X6248400Y-4742600D01*
X6146800Y-4844200D01*
X6096000Y-4844200D01*
X5994400Y-4742600D01*
X5421400Y-4740634D01*
X5341732Y-4748481D01*
X5265125Y-4771719D01*
X5194524Y-4809456D01*
X5132642Y-4860242D01*
X5081856Y-4922124D01*
X5044119Y-4992725D01*
X5020881Y-5069332D01*
X5013034Y-5149000D01*
X3926366Y-5149000D01*
X3926366Y-4787902D01*
X3938544Y-4787902D01*
X4066131Y-4762523D01*
X4186317Y-4712741D01*
X4294480Y-4640468D01*
X4386466Y-4548482D01*
X4458739Y-4440319D01*
X4508521Y-4320133D01*
X4533900Y-4192546D01*
X4533900Y-4187391D01*
X4590029Y-4118997D01*
X4637201Y-4030745D01*
X4666249Y-3934987D01*
X4673600Y-3860349D01*
X4673600Y-3860346D01*
X4676057Y-3835402D01*
X4673600Y-3810458D01*
X4673600Y272180D01*
X4914634Y513214D01*
X4914634Y-900000D01*
X4922481Y-979668D01*
X4945719Y-1056275D01*
X4983456Y-1126876D01*
X5034242Y-1188758D01*
X5096124Y-1239544D01*
X5166725Y-1277281D01*
X5243332Y-1300519D01*
X5323000Y-1308366D01*
X5715000Y-1308366D01*
X5715001Y-2690634D01*
X5671399Y-2690634D01*
X5542958Y-2703284D01*
X5419454Y-2740749D01*
X5305631Y-2801589D01*
X5205865Y-2883465D01*
X5123989Y-2983231D01*
X5063149Y-3097054D01*
X5025684Y-3220558D01*
X5013034Y-3348999D01*
X5013034Y-3999001D01*
X5025684Y-4127442D01*
X5063149Y-4250946D01*
X5123989Y-4364769D01*
X5205865Y-4464535D01*
X5305631Y-4546411D01*
X5419454Y-4607251D01*
X5542958Y-4644716D01*
X5671399Y-4657366D01*
X6571401Y-4657366D01*
X6699842Y-4644716D01*
X6823346Y-4607251D01*
X6937169Y-4546411D01*
X7036935Y-4464535D01*
X7067377Y-4427441D01*
X7088456Y-4466876D01*
X7139242Y-4528758D01*
X7201124Y-4579544D01*
X7271725Y-4617281D01*
X7348332Y-4640519D01*
X7428000Y-4648366D01*
X8001000Y-4646400D01*
X8102600Y-4544800D01*
X8102600Y-3690400D01*
X8082600Y-3690400D01*
X8082600Y-3639600D01*
X8102600Y-3639600D01*
X8102600Y-2785200D01*
X8001000Y-2683600D01*
X7428000Y-2681634D01*
X7348332Y-2689481D01*
X7271725Y-2712719D01*
X7201124Y-2750456D01*
X7139242Y-2801242D01*
X7088456Y-2863124D01*
X7061551Y-2913460D01*
X7036935Y-2883465D01*
X6937169Y-2801589D01*
X6823346Y-2740749D01*
X6731000Y-2712736D01*
X6731000Y-1308366D01*
X7123000Y-1308366D01*
X7202668Y-1300519D01*
X7279275Y-1277281D01*
X7349876Y-1239544D01*
X7411758Y-1188758D01*
X7462544Y-1126876D01*
X7500281Y-1056275D01*
X7523519Y-979668D01*
X7531366Y-900000D01*
X7531366Y-440361D01*
X7605283Y-618812D01*
X7748253Y-832781D01*
X7930219Y-1014747D01*
X8144188Y-1157717D01*
X8381937Y-1256196D01*
X8634331Y-1306400D01*
X8891669Y-1306400D01*
X9144063Y-1256196D01*
X9381812Y-1157717D01*
X9595781Y-1014747D01*
X9777747Y-832781D01*
X9920717Y-618812D01*
X10019196Y-381063D01*
X10069400Y-128669D01*
X10069400Y128669D01*
X10019196Y381063D01*
X9920717Y618812D01*
X9777747Y832781D01*
X9595781Y1014747D01*
X9381812Y1157717D01*
X9178500Y1241932D01*
X9178500Y1407634D01*
X9248000Y1407634D01*
X9288043Y1409602D01*
X9296822Y1410467D01*
X9375285Y1426072D01*
X9383727Y1428632D01*
X9422802Y1444816D01*
X9425307Y1443477D01*
X9513639Y1416682D01*
X9605500Y1407634D01*
X9730500Y1407634D01*
X9822361Y1416682D01*
X9910693Y1443477D01*
X9918000Y1447383D01*
X9925307Y1443477D01*
X10013639Y1416682D01*
X10105500Y1407634D01*
X10230500Y1407634D01*
X10322361Y1416682D01*
X10410693Y1443477D01*
X10418000Y1447383D01*
X10425307Y1443477D01*
X10513639Y1416682D01*
X10605500Y1407634D01*
X10730500Y1407634D01*
X10822361Y1416682D01*
X10910693Y1443477D01*
X10918000Y1447383D01*
X10925307Y1443477D01*
X11013639Y1416682D01*
X11105500Y1407634D01*
X11230500Y1407634D01*
X11322361Y1416682D01*
X11410693Y1443477D01*
X11418000Y1447383D01*
X11425307Y1443477D01*
X11513639Y1416682D01*
X11605500Y1407634D01*
X11622031Y1407634D01*
X11440906Y1286610D01*
X11210190Y1055894D01*
X11028917Y784600D01*
X10904054Y483154D01*
X10840400Y163141D01*
X10840400Y-163141D01*
X10904054Y-483154D01*
X11028917Y-784600D01*
X11210190Y-1055894D01*
X11440906Y-1286610D01*
X11712200Y-1467883D01*
X12013646Y-1592746D01*
X12333659Y-1656400D01*
X12659941Y-1656400D01*
X12979954Y-1592746D01*
X13281400Y-1467883D01*
X13552694Y-1286610D01*
X13783410Y-1055894D01*
X13964683Y-784600D01*
X14089546Y-483154D01*
X14153200Y-163141D01*
X14153200Y163141D01*
X14089546Y483154D01*
X13964683Y784600D01*
X13783410Y1055894D01*
X13772304Y1067000D01*
X14131634Y1067000D01*
X14139481Y987332D01*
X14162719Y910725D01*
X14200456Y840124D01*
X14251242Y778242D01*
X14313124Y727456D01*
X14383725Y689719D01*
X14460332Y666481D01*
X14540000Y658634D01*
X15113000Y660600D01*
X15214600Y762200D01*
X15214600Y1616600D01*
X15265400Y1616600D01*
X15265400Y762200D01*
X15367000Y660600D01*
X15940000Y658634D01*
X16019668Y666481D01*
X16096275Y689719D01*
X16166876Y727456D01*
X16228758Y778242D01*
X16279544Y840124D01*
X16317281Y910725D01*
X16340519Y987332D01*
X16348366Y1067000D01*
X16346400Y1515000D01*
X16244800Y1616600D01*
X15265400Y1616600D01*
X15214600Y1616600D01*
X14235200Y1616600D01*
X14133600Y1515000D01*
X14131634Y1067000D01*
X13772304Y1067000D01*
X13552694Y1286610D01*
X13281400Y1467883D01*
X12979954Y1592746D01*
X12659941Y1656400D01*
X12651842Y1656400D01*
X12680368Y1725273D01*
X12682928Y1733715D01*
X12698533Y1812178D01*
X12699398Y1820957D01*
X12701366Y1861000D01*
X12701366Y2157634D01*
X12998000Y2157634D01*
X13038043Y2159602D01*
X13046822Y2160467D01*
X13125285Y2176072D01*
X13133727Y2178632D01*
X13207742Y2209288D01*
X13215522Y2213447D01*
X13220839Y2217000D01*
X14131634Y2217000D01*
X14133600Y1769000D01*
X14235200Y1667400D01*
X15214600Y1667400D01*
X15214600Y2521800D01*
X15265400Y2521800D01*
X15265400Y1667400D01*
X16244800Y1667400D01*
X16346400Y1769000D01*
X16348366Y2217000D01*
X16340519Y2296668D01*
X16317281Y2373275D01*
X16279544Y2443876D01*
X16228758Y2505758D01*
X16166876Y2556544D01*
X16096275Y2594281D01*
X16019668Y2617519D01*
X15940000Y2625366D01*
X15367000Y2623400D01*
X15265400Y2521800D01*
X15214600Y2521800D01*
X15113000Y2623400D01*
X14540000Y2625366D01*
X14460332Y2617519D01*
X14383725Y2594281D01*
X14313124Y2556544D01*
X14251242Y2505758D01*
X14200456Y2443876D01*
X14162719Y2373275D01*
X14139481Y2296668D01*
X14131634Y2217000D01*
X13220839Y2217000D01*
X13282060Y2257908D01*
X13288879Y2263504D01*
X13345496Y2320121D01*
X13351092Y2326940D01*
X13395553Y2393478D01*
X13399712Y2401258D01*
X13430368Y2475273D01*
X13432928Y2483715D01*
X13448533Y2562178D01*
X13449398Y2570957D01*
X13451366Y2611000D01*
X13451366Y2771000D01*
X13449398Y2811043D01*
X13448533Y2819822D01*
X13432928Y2898285D01*
X13430368Y2906727D01*
X13424020Y2922052D01*
X13443519Y2986332D01*
X13451366Y3066000D01*
X13449400Y3066000D01*
X13347800Y3167600D01*
X13216948Y3167600D01*
X13215522Y3168553D01*
X13207742Y3172712D01*
X13158912Y3192937D01*
X13160693Y3193477D01*
X13199838Y3214400D01*
X13347800Y3214400D01*
X13449400Y3316000D01*
X13451366Y3316000D01*
X13443519Y3395668D01*
X13421537Y3468134D01*
X13442318Y3536639D01*
X13451366Y3628500D01*
X13451366Y3683000D01*
X14131634Y3683000D01*
X14131634Y3366999D01*
X14144284Y3238558D01*
X14181749Y3115054D01*
X14242589Y3001231D01*
X14324465Y2901465D01*
X14424231Y2819589D01*
X14538054Y2758749D01*
X14661558Y2721284D01*
X14789999Y2708634D01*
X15690001Y2708634D01*
X15818442Y2721284D01*
X15941946Y2758749D01*
X16055769Y2819589D01*
X16155535Y2901465D01*
X16237411Y3001231D01*
X16298251Y3115054D01*
X16335716Y3238558D01*
X16348366Y3366999D01*
X16348366Y4017001D01*
X16335716Y4145442D01*
X16298251Y4268946D01*
X16279519Y4303990D01*
X16408401Y4303990D01*
X16408400Y1203500D01*
X16405943Y1178556D01*
X16408400Y1153612D01*
X16408400Y1153610D01*
X16415751Y1078972D01*
X16444799Y983214D01*
X16491971Y894961D01*
X16555452Y817608D01*
X16574835Y801701D01*
X16702099Y674437D01*
X16718006Y655054D01*
X16795359Y591573D01*
X16816676Y580179D01*
X16815254Y573032D01*
X16815254Y442944D01*
X16840633Y315357D01*
X16890415Y195171D01*
X16962688Y87008D01*
X17054674Y-4978D01*
X17162837Y-77251D01*
X17283023Y-127033D01*
X17410610Y-152412D01*
X17417634Y-152412D01*
X18184634Y-919413D01*
X18184634Y-1550000D01*
X18192481Y-1629668D01*
X18215719Y-1706275D01*
X18253456Y-1776876D01*
X18304242Y-1838758D01*
X18366124Y-1889544D01*
X18436725Y-1927281D01*
X18513332Y-1950519D01*
X18593000Y-1958366D01*
X20593000Y-1958366D01*
X20672668Y-1950519D01*
X20749275Y-1927281D01*
X20819876Y-1889544D01*
X20881758Y-1838758D01*
X20932544Y-1776876D01*
X20970281Y-1706275D01*
X20993519Y-1629668D01*
X21001366Y-1550000D01*
X21001366Y-450000D01*
X20993519Y-370332D01*
X20970281Y-293725D01*
X20932544Y-223124D01*
X20881758Y-161242D01*
X20819876Y-110456D01*
X20749275Y-72719D01*
X20672668Y-49481D01*
X20593000Y-41634D01*
X18743697Y-41634D01*
X18660428Y41634D01*
X20593000Y41634D01*
X20672668Y49481D01*
X20749275Y72719D01*
X20819876Y110456D01*
X20881758Y161242D01*
X20932544Y223124D01*
X20970281Y293725D01*
X20993519Y370332D01*
X21001366Y450000D01*
X21001366Y1550000D01*
X20993519Y1629668D01*
X20970281Y1706275D01*
X20932544Y1776876D01*
X20881758Y1838758D01*
X20819876Y1889544D01*
X20749275Y1927281D01*
X20672668Y1950519D01*
X20593000Y1958366D01*
X18593000Y1958366D01*
X18513332Y1950519D01*
X18436725Y1927281D01*
X18366124Y1889544D01*
X18304242Y1838758D01*
X18253456Y1776876D01*
X18215719Y1706275D01*
X18192481Y1629668D01*
X18184634Y1550000D01*
X18184634Y1523998D01*
X18110200Y1523998D01*
X18110200Y1589056D01*
X18084821Y1716643D01*
X18035039Y1836829D01*
X17962766Y1944992D01*
X17957800Y1949958D01*
X17957800Y2394197D01*
X21136600Y2394197D01*
X21136600Y2205803D01*
X21173354Y2021028D01*
X21245449Y1846975D01*
X21350115Y1690330D01*
X21483330Y1557115D01*
X21639975Y1452449D01*
X21814028Y1380354D01*
X21998803Y1343600D01*
X22187197Y1343600D01*
X22371972Y1380354D01*
X22546025Y1452449D01*
X22702670Y1557115D01*
X22835885Y1690330D01*
X22940551Y1846975D01*
X23012646Y2021028D01*
X23049400Y2205803D01*
X23049400Y2394197D01*
X23012646Y2578972D01*
X22940551Y2753025D01*
X22835885Y2909670D01*
X22702670Y3042885D01*
X22546025Y3147551D01*
X22371972Y3219646D01*
X22187197Y3256400D01*
X21998803Y3256400D01*
X21814028Y3219646D01*
X21639975Y3147551D01*
X21483330Y3042885D01*
X21350115Y2909670D01*
X21245449Y2753025D01*
X21173354Y2578972D01*
X21136600Y2394197D01*
X17957800Y2394197D01*
X17957800Y4667503D01*
X18042628Y4540550D01*
X18154950Y4428228D01*
X18287026Y4339977D01*
X18300621Y4334346D01*
X18253456Y4276876D01*
X18215719Y4206275D01*
X18192481Y4129668D01*
X18184634Y4050000D01*
X18184634Y2950000D01*
X18192481Y2870332D01*
X18215719Y2793725D01*
X18253456Y2723124D01*
X18304242Y2661242D01*
X18366124Y2610456D01*
X18436725Y2572719D01*
X18513332Y2549481D01*
X18593000Y2541634D01*
X20593000Y2541634D01*
X20672668Y2549481D01*
X20749275Y2572719D01*
X20819876Y2610456D01*
X20881758Y2661242D01*
X20932544Y2723124D01*
X20970281Y2793725D01*
X20993519Y2870332D01*
X21001366Y2950000D01*
X21001366Y4050000D01*
X20993519Y4129668D01*
X20970281Y4206275D01*
X20932544Y4276876D01*
X20881758Y4338758D01*
X20819876Y4389544D01*
X20749275Y4427281D01*
X20672668Y4450519D01*
X20593000Y4458366D01*
X20105395Y4458366D01*
X20099643Y4469128D01*
X20077871Y4495657D01*
X20042854Y4538326D01*
X20042849Y4538331D01*
X20023864Y4561464D01*
X20000731Y4580449D01*
X19475400Y5105779D01*
X19475400Y5134023D01*
X19444411Y5289818D01*
X19383623Y5436574D01*
X19295372Y5568650D01*
X19227790Y5636232D01*
X19705690Y5636232D01*
X19768712Y5411797D01*
X19875804Y5200879D01*
X20021986Y5014907D01*
X20201641Y4861027D01*
X20407864Y4745152D01*
X20632731Y4671736D01*
X20867600Y4643600D01*
X22067600Y4643600D01*
X22067600Y5824600D01*
X22118400Y5824600D01*
X22118400Y4643600D01*
X23318400Y4643600D01*
X23553269Y4671736D01*
X23778136Y4745152D01*
X23984359Y4861027D01*
X24164014Y5014907D01*
X24310196Y5200879D01*
X24417288Y5411797D01*
X24480310Y5636232D01*
X24397508Y5824600D01*
X22118400Y5824600D01*
X22067600Y5824600D01*
X19788492Y5824600D01*
X19705690Y5636232D01*
X19227790Y5636232D01*
X19183050Y5680972D01*
X19050974Y5769223D01*
X18904218Y5830011D01*
X18748423Y5861000D01*
X18589577Y5861000D01*
X18433782Y5830011D01*
X18287026Y5769223D01*
X18154950Y5680972D01*
X18042628Y5568650D01*
X17954377Y5436574D01*
X17893589Y5289818D01*
X17862600Y5134023D01*
X17862600Y4994032D01*
X17826650Y5037837D01*
X17810748Y5057214D01*
X17791370Y5073117D01*
X17331921Y5532565D01*
X17316014Y5551948D01*
X17238661Y5615429D01*
X17150409Y5662601D01*
X17054651Y5691649D01*
X16980013Y5699000D01*
X16980010Y5699000D01*
X16955066Y5701457D01*
X16930122Y5699000D01*
X15506527Y5699000D01*
X15581570Y5774043D01*
X15600948Y5789946D01*
X15628563Y5823595D01*
X15664429Y5867298D01*
X15711600Y5955549D01*
X15714294Y5964429D01*
X15740649Y6051309D01*
X15745487Y6100433D01*
X15746005Y6100710D01*
X15884022Y6213978D01*
X15997290Y6351995D01*
X16081456Y6509458D01*
X16133285Y6680315D01*
X16150785Y6858000D01*
X16133285Y7035685D01*
X16081456Y7206542D01*
X15997290Y7364005D01*
X15884022Y7502022D01*
X15746005Y7615290D01*
X15593885Y7696600D01*
X17363301Y7696600D01*
X21204501Y7056400D01*
G36*
X5833371Y4907405D02*
G01*
X5896852Y4830052D01*
X5974205Y4766571D01*
X6062457Y4719399D01*
X6103662Y4706900D01*
X6084481Y4643668D01*
X6076634Y4564000D01*
X6076634Y3564000D01*
X6084481Y3484332D01*
X6107719Y3407725D01*
X6145456Y3337124D01*
X6196242Y3275242D01*
X6212736Y3261706D01*
X6151546Y3150260D01*
X6098058Y2980816D01*
X6094084Y2960824D01*
X6180601Y2819400D01*
X6959600Y2819400D01*
X6959600Y2839400D01*
X7010400Y2839400D01*
X7010400Y2819400D01*
X7030400Y2819400D01*
X7030400Y2768600D01*
X7010400Y2768600D01*
X7010400Y1989554D01*
X7151824Y1903082D01*
X7322428Y1952746D01*
X7480065Y2034739D01*
X7618677Y2145910D01*
X7732937Y2281987D01*
X7818454Y2437740D01*
X7871942Y2607184D01*
X7875916Y2627176D01*
X7789400Y2768598D01*
X7884634Y2768598D01*
X7884634Y2611000D01*
X7886602Y2570957D01*
X7887467Y2562178D01*
X7903072Y2483715D01*
X7905632Y2475273D01*
X7936288Y2401258D01*
X7940447Y2393478D01*
X7984908Y2326940D01*
X7990504Y2320121D01*
X8047121Y2263504D01*
X8053940Y2257908D01*
X8120478Y2213447D01*
X8128258Y2209288D01*
X8162500Y2195105D01*
X8162501Y1165302D01*
X8144188Y1157717D01*
X7930219Y1014747D01*
X7748253Y832781D01*
X7605283Y618812D01*
X7531366Y440361D01*
X7531366Y900000D01*
X7523519Y979668D01*
X7500281Y1056275D01*
X7462544Y1126876D01*
X7411758Y1188758D01*
X7349876Y1239544D01*
X7279275Y1277281D01*
X7202668Y1300519D01*
X7123000Y1308366D01*
X5691402Y1308366D01*
X5717703Y1357572D01*
X5729401Y1379457D01*
X5758449Y1475215D01*
X5765800Y1549853D01*
X5765800Y1549855D01*
X5768257Y1574799D01*
X5765800Y1599743D01*
X5765800Y2627176D01*
X6094084Y2627176D01*
X6098058Y2607184D01*
X6151546Y2437740D01*
X6237063Y2281987D01*
X6351323Y2145910D01*
X6489935Y2034739D01*
X6647572Y1952746D01*
X6818176Y1903082D01*
X6959600Y1989554D01*
X6959600Y2768600D01*
X6180601Y2768600D01*
X6094084Y2627176D01*
X5765800Y2627176D01*
X5765800Y4894980D01*
X5814162Y4943342D01*
X5833371Y4907405D01*
X5833371Y4907405D01*
G37*
X5833371Y4907405D02*
X5896852Y4830052D01*
X5974205Y4766571D01*
X6062457Y4719399D01*
X6103662Y4706900D01*
X6084481Y4643668D01*
X6076634Y4564000D01*
X6076634Y3564000D01*
X6084481Y3484332D01*
X6107719Y3407725D01*
X6145456Y3337124D01*
X6196242Y3275242D01*
X6212736Y3261706D01*
X6151546Y3150260D01*
X6098058Y2980816D01*
X6094084Y2960824D01*
X6180601Y2819400D01*
X6959600Y2819400D01*
X6959600Y2839400D01*
X7010400Y2839400D01*
X7010400Y2819400D01*
X7030400Y2819400D01*
X7030400Y2768600D01*
X7010400Y2768600D01*
X7010400Y1989554D01*
X7151824Y1903082D01*
X7322428Y1952746D01*
X7480065Y2034739D01*
X7618677Y2145910D01*
X7732937Y2281987D01*
X7818454Y2437740D01*
X7871942Y2607184D01*
X7875916Y2627176D01*
X7789400Y2768598D01*
X7884634Y2768598D01*
X7884634Y2611000D01*
X7886602Y2570957D01*
X7887467Y2562178D01*
X7903072Y2483715D01*
X7905632Y2475273D01*
X7936288Y2401258D01*
X7940447Y2393478D01*
X7984908Y2326940D01*
X7990504Y2320121D01*
X8047121Y2263504D01*
X8053940Y2257908D01*
X8120478Y2213447D01*
X8128258Y2209288D01*
X8162500Y2195105D01*
X8162501Y1165302D01*
X8144188Y1157717D01*
X7930219Y1014747D01*
X7748253Y832781D01*
X7605283Y618812D01*
X7531366Y440361D01*
X7531366Y900000D01*
X7523519Y979668D01*
X7500281Y1056275D01*
X7462544Y1126876D01*
X7411758Y1188758D01*
X7349876Y1239544D01*
X7279275Y1277281D01*
X7202668Y1300519D01*
X7123000Y1308366D01*
X5691402Y1308366D01*
X5717703Y1357572D01*
X5729401Y1379457D01*
X5758449Y1475215D01*
X5765800Y1549853D01*
X5765800Y1549855D01*
X5768257Y1574799D01*
X5765800Y1599743D01*
X5765800Y2627176D01*
X6094084Y2627176D01*
X6098058Y2607184D01*
X6151546Y2437740D01*
X6237063Y2281987D01*
X6351323Y2145910D01*
X6489935Y2034739D01*
X6647572Y1952746D01*
X6818176Y1903082D01*
X6959600Y1989554D01*
X6959600Y2768600D01*
X6180601Y2768600D01*
X6094084Y2627176D01*
X5765800Y2627176D01*
X5765800Y4894980D01*
X5814162Y4943342D01*
X5833371Y4907405D01*
M02*
