G04 #@! TF.GenerationSoftware,KiCad,Pcbnew,(5.1.4)-1*
G04 #@! TF.CreationDate,2019-09-27T16:29:42+02:00*
G04 #@! TF.ProjectId,JoyAdapter,4a6f7941-6461-4707-9465-722e6b696361,rev?*
G04 #@! TF.SameCoordinates,Original*
G04 #@! TF.FileFunction,Legend,Top*
G04 #@! TF.FilePolarity,Positive*
%FSLAX46Y46*%
G04 Gerber Fmt 4.6, Leading zero omitted, Abs format (unit mm)*
G04 Created by KiCad (PCBNEW (5.1.4)-1) date 2019-09-27 16:29:42*
%MOMM*%
%LPD*%
G04 APERTURE LIST*
%ADD10C,0.120000*%
%ADD11C,0.150000*%
G04 APERTURE END LIST*
D10*
X5875000Y4824000D02*
X6985000Y4824000D01*
X5875000Y4064000D02*
X5875000Y4824000D01*
X7548471Y3304000D02*
X8095000Y3304000D01*
X5875000Y3304000D02*
X6421529Y3304000D01*
X8095000Y3304000D02*
X8095000Y2099000D01*
X5875000Y3304000D02*
X5875000Y2099000D01*
X7292530Y2099000D02*
X8095000Y2099000D01*
X5875000Y2099000D02*
X6677470Y2099000D01*
X13210000Y5748000D02*
X13210000Y6858000D01*
X13970000Y5748000D02*
X13210000Y5748000D01*
X14730000Y7421471D02*
X14730000Y7968000D01*
X14730000Y5748000D02*
X14730000Y6294529D01*
X14730000Y7968000D02*
X15935000Y7968000D01*
X14730000Y5748000D02*
X15935000Y5748000D01*
X15935000Y7165530D02*
X15935000Y7968000D01*
X15935000Y5748000D02*
X15935000Y6550470D01*
X8783000Y6301000D02*
X8558000Y6301000D01*
X12778000Y2081000D02*
X12778000Y2306000D01*
X12553000Y2081000D02*
X12778000Y2081000D01*
X8558000Y2081000D02*
X8558000Y2306000D01*
X8783000Y2081000D02*
X8558000Y2081000D01*
X12778000Y6301000D02*
X12778000Y6076000D01*
X12553000Y6301000D02*
X12778000Y6301000D01*
X4018000Y6963333D02*
X4018000Y2770000D01*
X1778000Y6963333D02*
X4018000Y6963333D01*
X3778000Y6723333D02*
X38000Y6723333D01*
X3778000Y-6723333D02*
X3778000Y6723333D01*
X38000Y-6723333D02*
X3778000Y-6723333D01*
X24193000Y-6145000D02*
X25003000Y-6145000D01*
X24193000Y6145000D02*
X25003000Y6145000D01*
X20783000Y4400000D02*
X20783000Y-4400000D01*
X10192000Y-6375000D02*
X12642000Y-6375000D01*
X11992000Y-3155000D02*
X10192000Y-3155000D01*
X6831400Y-4960252D02*
X6831400Y-4437748D01*
X5411400Y-4960252D02*
X5411400Y-4437748D01*
X5933000Y-1080000D02*
X5933000Y-1236000D01*
X5933000Y1236000D02*
X5933000Y1080000D01*
X8534130Y-1079837D02*
G75*
G02X6452039Y-1080000I-1041130J1079837D01*
G01*
X8534130Y1079837D02*
G75*
G03X6452039Y1080000I-1041130J-1079837D01*
G01*
X9165335Y-1078608D02*
G75*
G02X5933000Y-1235516I-1672335J1078608D01*
G01*
X9165335Y1078608D02*
G75*
G03X5933000Y1235516I-1672335J-1078608D01*
G01*
X14530000Y2928252D02*
X14530000Y2405748D01*
X15950000Y2928252D02*
X15950000Y2405748D01*
X8838000Y-4951252D02*
X8838000Y-4428748D01*
X7418000Y-4951252D02*
X7418000Y-4428748D01*
X13312000Y-2646000D02*
X13312000Y-5531000D01*
X14882000Y-2646000D02*
X13312000Y-2646000D01*
X14882000Y-5531000D02*
X14882000Y-2646000D01*
D11*
X6219866Y6059419D02*
X6219866Y5345133D01*
X6172247Y5202276D01*
X6077009Y5107038D01*
X5934152Y5059419D01*
X5838914Y5059419D01*
X7172247Y6059419D02*
X6696057Y6059419D01*
X6648438Y5583228D01*
X6696057Y5630847D01*
X6791295Y5678466D01*
X7029390Y5678466D01*
X7124628Y5630847D01*
X7172247Y5583228D01*
X7219866Y5487990D01*
X7219866Y5249895D01*
X7172247Y5154657D01*
X7124628Y5107038D01*
X7029390Y5059419D01*
X6791295Y5059419D01*
X6696057Y5107038D01*
X6648438Y5154657D01*
X16481466Y7177019D02*
X16481466Y6462733D01*
X16433847Y6319876D01*
X16338609Y6224638D01*
X16195752Y6177019D01*
X16100514Y6177019D01*
X17386228Y6843685D02*
X17386228Y6177019D01*
X17148133Y7224638D02*
X16910038Y6510352D01*
X17529085Y6510352D01*
X7188295Y7304019D02*
X7188295Y6494495D01*
X7235914Y6399257D01*
X7283533Y6351638D01*
X7378771Y6304019D01*
X7569247Y6304019D01*
X7664485Y6351638D01*
X7712104Y6399257D01*
X7759723Y6494495D01*
X7759723Y7304019D01*
X8188295Y7208780D02*
X8235914Y7256400D01*
X8331152Y7304019D01*
X8569247Y7304019D01*
X8664485Y7256400D01*
X8712104Y7208780D01*
X8759723Y7113542D01*
X8759723Y7018304D01*
X8712104Y6875447D01*
X8140676Y6304019D01*
X8759723Y6304019D01*
X4594266Y7634219D02*
X4594266Y6919933D01*
X4546647Y6777076D01*
X4451409Y6681838D01*
X4308552Y6634219D01*
X4213314Y6634219D01*
X5594266Y6634219D02*
X5022838Y6634219D01*
X5308552Y6634219D02*
X5308552Y7634219D01*
X5213314Y7491361D01*
X5118076Y7396123D01*
X5022838Y7348504D01*
X18462666Y5551419D02*
X18462666Y4837133D01*
X18415047Y4694276D01*
X18319809Y4599038D01*
X18176952Y4551419D01*
X18081714Y4551419D01*
X18843619Y5551419D02*
X19462666Y5551419D01*
X19129333Y5170466D01*
X19272190Y5170466D01*
X19367428Y5122847D01*
X19415047Y5075228D01*
X19462666Y4979990D01*
X19462666Y4741895D01*
X19415047Y4646657D01*
X19367428Y4599038D01*
X19272190Y4551419D01*
X18986476Y4551419D01*
X18891238Y4599038D01*
X18843619Y4646657D01*
X10414095Y-1890780D02*
X10414095Y-2700304D01*
X10461714Y-2795542D01*
X10509333Y-2843161D01*
X10604571Y-2890780D01*
X10795047Y-2890780D01*
X10890285Y-2843161D01*
X10937904Y-2795542D01*
X10985523Y-2700304D01*
X10985523Y-1890780D01*
X11985523Y-2890780D02*
X11414095Y-2890780D01*
X11699809Y-2890780D02*
X11699809Y-1890780D01*
X11604571Y-2033638D01*
X11509333Y-2128876D01*
X11414095Y-2176495D01*
X6030933Y-2814580D02*
X5697600Y-2338390D01*
X5459504Y-2814580D02*
X5459504Y-1814580D01*
X5840457Y-1814580D01*
X5935695Y-1862200D01*
X5983314Y-1909819D01*
X6030933Y-2005057D01*
X6030933Y-2147914D01*
X5983314Y-2243152D01*
X5935695Y-2290771D01*
X5840457Y-2338390D01*
X5459504Y-2338390D01*
X6983314Y-2814580D02*
X6411885Y-2814580D01*
X6697600Y-2814580D02*
X6697600Y-1814580D01*
X6602361Y-1957438D01*
X6507123Y-2052676D01*
X6411885Y-2100295D01*
X4392704Y1274819D02*
X4392704Y2274819D01*
X4630800Y2274819D01*
X4773657Y2227200D01*
X4868895Y2131961D01*
X4916514Y2036723D01*
X4964133Y1846247D01*
X4964133Y1703390D01*
X4916514Y1512914D01*
X4868895Y1417676D01*
X4773657Y1322438D01*
X4630800Y1274819D01*
X4392704Y1274819D01*
X5916514Y1274819D02*
X5345085Y1274819D01*
X5630800Y1274819D02*
X5630800Y2274819D01*
X5535561Y2131961D01*
X5440323Y2036723D01*
X5345085Y1989104D01*
X11861895Y-426980D02*
X11861895Y573019D01*
X11861895Y96828D02*
X12433323Y96828D01*
X12433323Y-426980D02*
X12433323Y573019D01*
X13433323Y-426980D02*
X12861895Y-426980D01*
X13147609Y-426980D02*
X13147609Y573019D01*
X13052371Y430161D01*
X12957133Y334923D01*
X12861895Y287304D01*
X15200333Y-77742D02*
X15152714Y-125361D01*
X15009857Y-172980D01*
X14914619Y-172980D01*
X14771761Y-125361D01*
X14676523Y-30123D01*
X14628904Y65114D01*
X14581285Y255590D01*
X14581285Y398447D01*
X14628904Y588923D01*
X14676523Y684161D01*
X14771761Y779400D01*
X14914619Y827019D01*
X15009857Y827019D01*
X15152714Y779400D01*
X15200333Y731780D01*
X15533666Y827019D02*
X16152714Y827019D01*
X15819380Y446066D01*
X15962238Y446066D01*
X16057476Y398447D01*
X16105095Y350828D01*
X16152714Y255590D01*
X16152714Y17495D01*
X16105095Y-77742D01*
X16057476Y-125361D01*
X15962238Y-172980D01*
X15676523Y-172980D01*
X15581285Y-125361D01*
X15533666Y-77742D01*
X7935933Y-2693942D02*
X7888314Y-2741561D01*
X7745457Y-2789180D01*
X7650219Y-2789180D01*
X7507361Y-2741561D01*
X7412123Y-2646323D01*
X7364504Y-2551085D01*
X7316885Y-2360609D01*
X7316885Y-2217752D01*
X7364504Y-2027276D01*
X7412123Y-1932038D01*
X7507361Y-1836800D01*
X7650219Y-1789180D01*
X7745457Y-1789180D01*
X7888314Y-1836800D01*
X7935933Y-1884419D01*
X8316885Y-1884419D02*
X8364504Y-1836800D01*
X8459742Y-1789180D01*
X8697838Y-1789180D01*
X8793076Y-1836800D01*
X8840695Y-1884419D01*
X8888314Y-1979657D01*
X8888314Y-2074895D01*
X8840695Y-2217752D01*
X8269266Y-2789180D01*
X8888314Y-2789180D01*
X14006533Y-2338342D02*
X13958914Y-2385961D01*
X13816057Y-2433580D01*
X13720819Y-2433580D01*
X13577961Y-2385961D01*
X13482723Y-2290723D01*
X13435104Y-2195485D01*
X13387485Y-2005009D01*
X13387485Y-1862152D01*
X13435104Y-1671676D01*
X13482723Y-1576438D01*
X13577961Y-1481200D01*
X13720819Y-1433580D01*
X13816057Y-1433580D01*
X13958914Y-1481200D01*
X14006533Y-1528819D01*
X14958914Y-2433580D02*
X14387485Y-2433580D01*
X14673200Y-2433580D02*
X14673200Y-1433580D01*
X14577961Y-1576438D01*
X14482723Y-1671676D01*
X14387485Y-1719295D01*
M02*
