G04 #@! TF.GenerationSoftware,KiCad,Pcbnew,(5.1.4)-1*
G04 #@! TF.CreationDate,2019-09-27T16:29:42+02:00*
G04 #@! TF.ProjectId,JoyAdapter,4a6f7941-6461-4707-9465-722e6b696361,rev?*
G04 #@! TF.SameCoordinates,Original*
G04 #@! TF.FileFunction,Paste,Top*
G04 #@! TF.FilePolarity,Positive*
%FSLAX46Y46*%
G04 Gerber Fmt 4.6, Leading zero omitted, Abs format (unit mm)*
G04 Created by KiCad (PCBNEW (5.1.4)-1) date 2019-09-27 16:29:42*
%MOMM*%
%LPD*%
G04 APERTURE LIST*
%ADD10C,0.136863*%
%ADD11C,0.100000*%
%ADD12C,0.250000*%
%ADD13R,3.480000X1.846667*%
%ADD14R,2.000000X1.100000*%
%ADD15R,1.060000X0.650000*%
%ADD16C,1.150000*%
%ADD17C,1.050000*%
G04 APERTURE END LIST*
D10*
X9168000Y6188500D03*
D11*
G36*
X9256779Y6565135D02*
G01*
X9265221Y6562575D01*
X9273001Y6558416D01*
X9279820Y6552820D01*
X9285416Y6546001D01*
X9289575Y6538221D01*
X9292135Y6529779D01*
X9293000Y6521000D01*
X9293000Y5856000D01*
X9292135Y5847221D01*
X9289575Y5838779D01*
X9285416Y5830999D01*
X9279820Y5824180D01*
X9273001Y5818584D01*
X9265221Y5814425D01*
X9256779Y5811865D01*
X9248000Y5811000D01*
X9221640Y5811000D01*
X9212861Y5811865D01*
X9204419Y5814425D01*
X9196639Y5818584D01*
X9189820Y5824180D01*
X9056180Y5957820D01*
X9050584Y5964639D01*
X9046425Y5972419D01*
X9043865Y5980861D01*
X9043000Y5989640D01*
X9043000Y6521000D01*
X9043865Y6529779D01*
X9046425Y6538221D01*
X9050584Y6546001D01*
X9056180Y6552820D01*
X9062999Y6558416D01*
X9070779Y6562575D01*
X9079221Y6565135D01*
X9088000Y6566000D01*
X9248000Y6566000D01*
X9256779Y6565135D01*
X9256779Y6565135D01*
G37*
G36*
X9736626Y6565699D02*
G01*
X9742693Y6564799D01*
X9748643Y6563309D01*
X9754418Y6561242D01*
X9759962Y6558620D01*
X9765223Y6555467D01*
X9770150Y6551813D01*
X9774694Y6547694D01*
X9778813Y6543150D01*
X9782467Y6538223D01*
X9785620Y6532962D01*
X9788242Y6527418D01*
X9790309Y6521643D01*
X9791799Y6515693D01*
X9792699Y6509626D01*
X9793000Y6503500D01*
X9793000Y5753500D01*
X9792699Y5747374D01*
X9791799Y5741307D01*
X9790309Y5735357D01*
X9788242Y5729582D01*
X9785620Y5724038D01*
X9782467Y5718777D01*
X9778813Y5713850D01*
X9774694Y5709306D01*
X9770150Y5705187D01*
X9765223Y5701533D01*
X9759962Y5698380D01*
X9754418Y5695758D01*
X9748643Y5693691D01*
X9742693Y5692201D01*
X9736626Y5691301D01*
X9730500Y5691000D01*
X9605500Y5691000D01*
X9599374Y5691301D01*
X9593307Y5692201D01*
X9587357Y5693691D01*
X9581582Y5695758D01*
X9576038Y5698380D01*
X9570777Y5701533D01*
X9565850Y5705187D01*
X9561306Y5709306D01*
X9557187Y5713850D01*
X9553533Y5718777D01*
X9550380Y5724038D01*
X9547758Y5729582D01*
X9545691Y5735357D01*
X9544201Y5741307D01*
X9543301Y5747374D01*
X9543000Y5753500D01*
X9543000Y6503500D01*
X9543301Y6509626D01*
X9544201Y6515693D01*
X9545691Y6521643D01*
X9547758Y6527418D01*
X9550380Y6532962D01*
X9553533Y6538223D01*
X9557187Y6543150D01*
X9561306Y6547694D01*
X9565850Y6551813D01*
X9570777Y6555467D01*
X9576038Y6558620D01*
X9581582Y6561242D01*
X9587357Y6563309D01*
X9593307Y6564799D01*
X9599374Y6565699D01*
X9605500Y6566000D01*
X9730500Y6566000D01*
X9736626Y6565699D01*
X9736626Y6565699D01*
G37*
D12*
X9668000Y6128500D03*
D11*
G36*
X10236626Y6565699D02*
G01*
X10242693Y6564799D01*
X10248643Y6563309D01*
X10254418Y6561242D01*
X10259962Y6558620D01*
X10265223Y6555467D01*
X10270150Y6551813D01*
X10274694Y6547694D01*
X10278813Y6543150D01*
X10282467Y6538223D01*
X10285620Y6532962D01*
X10288242Y6527418D01*
X10290309Y6521643D01*
X10291799Y6515693D01*
X10292699Y6509626D01*
X10293000Y6503500D01*
X10293000Y5753500D01*
X10292699Y5747374D01*
X10291799Y5741307D01*
X10290309Y5735357D01*
X10288242Y5729582D01*
X10285620Y5724038D01*
X10282467Y5718777D01*
X10278813Y5713850D01*
X10274694Y5709306D01*
X10270150Y5705187D01*
X10265223Y5701533D01*
X10259962Y5698380D01*
X10254418Y5695758D01*
X10248643Y5693691D01*
X10242693Y5692201D01*
X10236626Y5691301D01*
X10230500Y5691000D01*
X10105500Y5691000D01*
X10099374Y5691301D01*
X10093307Y5692201D01*
X10087357Y5693691D01*
X10081582Y5695758D01*
X10076038Y5698380D01*
X10070777Y5701533D01*
X10065850Y5705187D01*
X10061306Y5709306D01*
X10057187Y5713850D01*
X10053533Y5718777D01*
X10050380Y5724038D01*
X10047758Y5729582D01*
X10045691Y5735357D01*
X10044201Y5741307D01*
X10043301Y5747374D01*
X10043000Y5753500D01*
X10043000Y6503500D01*
X10043301Y6509626D01*
X10044201Y6515693D01*
X10045691Y6521643D01*
X10047758Y6527418D01*
X10050380Y6532962D01*
X10053533Y6538223D01*
X10057187Y6543150D01*
X10061306Y6547694D01*
X10065850Y6551813D01*
X10070777Y6555467D01*
X10076038Y6558620D01*
X10081582Y6561242D01*
X10087357Y6563309D01*
X10093307Y6564799D01*
X10099374Y6565699D01*
X10105500Y6566000D01*
X10230500Y6566000D01*
X10236626Y6565699D01*
X10236626Y6565699D01*
G37*
D12*
X10168000Y6128500D03*
D11*
G36*
X10736626Y6565699D02*
G01*
X10742693Y6564799D01*
X10748643Y6563309D01*
X10754418Y6561242D01*
X10759962Y6558620D01*
X10765223Y6555467D01*
X10770150Y6551813D01*
X10774694Y6547694D01*
X10778813Y6543150D01*
X10782467Y6538223D01*
X10785620Y6532962D01*
X10788242Y6527418D01*
X10790309Y6521643D01*
X10791799Y6515693D01*
X10792699Y6509626D01*
X10793000Y6503500D01*
X10793000Y5753500D01*
X10792699Y5747374D01*
X10791799Y5741307D01*
X10790309Y5735357D01*
X10788242Y5729582D01*
X10785620Y5724038D01*
X10782467Y5718777D01*
X10778813Y5713850D01*
X10774694Y5709306D01*
X10770150Y5705187D01*
X10765223Y5701533D01*
X10759962Y5698380D01*
X10754418Y5695758D01*
X10748643Y5693691D01*
X10742693Y5692201D01*
X10736626Y5691301D01*
X10730500Y5691000D01*
X10605500Y5691000D01*
X10599374Y5691301D01*
X10593307Y5692201D01*
X10587357Y5693691D01*
X10581582Y5695758D01*
X10576038Y5698380D01*
X10570777Y5701533D01*
X10565850Y5705187D01*
X10561306Y5709306D01*
X10557187Y5713850D01*
X10553533Y5718777D01*
X10550380Y5724038D01*
X10547758Y5729582D01*
X10545691Y5735357D01*
X10544201Y5741307D01*
X10543301Y5747374D01*
X10543000Y5753500D01*
X10543000Y6503500D01*
X10543301Y6509626D01*
X10544201Y6515693D01*
X10545691Y6521643D01*
X10547758Y6527418D01*
X10550380Y6532962D01*
X10553533Y6538223D01*
X10557187Y6543150D01*
X10561306Y6547694D01*
X10565850Y6551813D01*
X10570777Y6555467D01*
X10576038Y6558620D01*
X10581582Y6561242D01*
X10587357Y6563309D01*
X10593307Y6564799D01*
X10599374Y6565699D01*
X10605500Y6566000D01*
X10730500Y6566000D01*
X10736626Y6565699D01*
X10736626Y6565699D01*
G37*
D12*
X10668000Y6128500D03*
D11*
G36*
X11236626Y6565699D02*
G01*
X11242693Y6564799D01*
X11248643Y6563309D01*
X11254418Y6561242D01*
X11259962Y6558620D01*
X11265223Y6555467D01*
X11270150Y6551813D01*
X11274694Y6547694D01*
X11278813Y6543150D01*
X11282467Y6538223D01*
X11285620Y6532962D01*
X11288242Y6527418D01*
X11290309Y6521643D01*
X11291799Y6515693D01*
X11292699Y6509626D01*
X11293000Y6503500D01*
X11293000Y5753500D01*
X11292699Y5747374D01*
X11291799Y5741307D01*
X11290309Y5735357D01*
X11288242Y5729582D01*
X11285620Y5724038D01*
X11282467Y5718777D01*
X11278813Y5713850D01*
X11274694Y5709306D01*
X11270150Y5705187D01*
X11265223Y5701533D01*
X11259962Y5698380D01*
X11254418Y5695758D01*
X11248643Y5693691D01*
X11242693Y5692201D01*
X11236626Y5691301D01*
X11230500Y5691000D01*
X11105500Y5691000D01*
X11099374Y5691301D01*
X11093307Y5692201D01*
X11087357Y5693691D01*
X11081582Y5695758D01*
X11076038Y5698380D01*
X11070777Y5701533D01*
X11065850Y5705187D01*
X11061306Y5709306D01*
X11057187Y5713850D01*
X11053533Y5718777D01*
X11050380Y5724038D01*
X11047758Y5729582D01*
X11045691Y5735357D01*
X11044201Y5741307D01*
X11043301Y5747374D01*
X11043000Y5753500D01*
X11043000Y6503500D01*
X11043301Y6509626D01*
X11044201Y6515693D01*
X11045691Y6521643D01*
X11047758Y6527418D01*
X11050380Y6532962D01*
X11053533Y6538223D01*
X11057187Y6543150D01*
X11061306Y6547694D01*
X11065850Y6551813D01*
X11070777Y6555467D01*
X11076038Y6558620D01*
X11081582Y6561242D01*
X11087357Y6563309D01*
X11093307Y6564799D01*
X11099374Y6565699D01*
X11105500Y6566000D01*
X11230500Y6566000D01*
X11236626Y6565699D01*
X11236626Y6565699D01*
G37*
D12*
X11168000Y6128500D03*
D11*
G36*
X11736626Y6565699D02*
G01*
X11742693Y6564799D01*
X11748643Y6563309D01*
X11754418Y6561242D01*
X11759962Y6558620D01*
X11765223Y6555467D01*
X11770150Y6551813D01*
X11774694Y6547694D01*
X11778813Y6543150D01*
X11782467Y6538223D01*
X11785620Y6532962D01*
X11788242Y6527418D01*
X11790309Y6521643D01*
X11791799Y6515693D01*
X11792699Y6509626D01*
X11793000Y6503500D01*
X11793000Y5753500D01*
X11792699Y5747374D01*
X11791799Y5741307D01*
X11790309Y5735357D01*
X11788242Y5729582D01*
X11785620Y5724038D01*
X11782467Y5718777D01*
X11778813Y5713850D01*
X11774694Y5709306D01*
X11770150Y5705187D01*
X11765223Y5701533D01*
X11759962Y5698380D01*
X11754418Y5695758D01*
X11748643Y5693691D01*
X11742693Y5692201D01*
X11736626Y5691301D01*
X11730500Y5691000D01*
X11605500Y5691000D01*
X11599374Y5691301D01*
X11593307Y5692201D01*
X11587357Y5693691D01*
X11581582Y5695758D01*
X11576038Y5698380D01*
X11570777Y5701533D01*
X11565850Y5705187D01*
X11561306Y5709306D01*
X11557187Y5713850D01*
X11553533Y5718777D01*
X11550380Y5724038D01*
X11547758Y5729582D01*
X11545691Y5735357D01*
X11544201Y5741307D01*
X11543301Y5747374D01*
X11543000Y5753500D01*
X11543000Y6503500D01*
X11543301Y6509626D01*
X11544201Y6515693D01*
X11545691Y6521643D01*
X11547758Y6527418D01*
X11550380Y6532962D01*
X11553533Y6538223D01*
X11557187Y6543150D01*
X11561306Y6547694D01*
X11565850Y6551813D01*
X11570777Y6555467D01*
X11576038Y6558620D01*
X11581582Y6561242D01*
X11587357Y6563309D01*
X11593307Y6564799D01*
X11599374Y6565699D01*
X11605500Y6566000D01*
X11730500Y6566000D01*
X11736626Y6565699D01*
X11736626Y6565699D01*
G37*
D12*
X11668000Y6128500D03*
D10*
X12168000Y6188500D03*
D11*
G36*
X12256779Y6565135D02*
G01*
X12265221Y6562575D01*
X12273001Y6558416D01*
X12279820Y6552820D01*
X12285416Y6546001D01*
X12289575Y6538221D01*
X12292135Y6529779D01*
X12293000Y6521000D01*
X12293000Y5989640D01*
X12292135Y5980861D01*
X12289575Y5972419D01*
X12285416Y5964639D01*
X12279820Y5957820D01*
X12146180Y5824180D01*
X12139361Y5818584D01*
X12131581Y5814425D01*
X12123139Y5811865D01*
X12114360Y5811000D01*
X12088000Y5811000D01*
X12079221Y5811865D01*
X12070779Y5814425D01*
X12062999Y5818584D01*
X12056180Y5824180D01*
X12050584Y5830999D01*
X12046425Y5838779D01*
X12043865Y5847221D01*
X12043000Y5856000D01*
X12043000Y6521000D01*
X12043865Y6529779D01*
X12046425Y6538221D01*
X12050584Y6546001D01*
X12056180Y6552820D01*
X12062999Y6558416D01*
X12070779Y6562575D01*
X12079221Y6565135D01*
X12088000Y6566000D01*
X12248000Y6566000D01*
X12256779Y6565135D01*
X12256779Y6565135D01*
G37*
D10*
X12665500Y5691000D03*
D11*
G36*
X13006779Y5815135D02*
G01*
X13015221Y5812575D01*
X13023001Y5808416D01*
X13029820Y5802820D01*
X13035416Y5796001D01*
X13039575Y5788221D01*
X13042135Y5779779D01*
X13043000Y5771000D01*
X13043000Y5611000D01*
X13042135Y5602221D01*
X13039575Y5593779D01*
X13035416Y5585999D01*
X13029820Y5579180D01*
X13023001Y5573584D01*
X13015221Y5569425D01*
X13006779Y5566865D01*
X12998000Y5566000D01*
X12333000Y5566000D01*
X12324221Y5566865D01*
X12315779Y5569425D01*
X12307999Y5573584D01*
X12301180Y5579180D01*
X12295584Y5585999D01*
X12291425Y5593779D01*
X12288865Y5602221D01*
X12288000Y5611000D01*
X12288000Y5637360D01*
X12288865Y5646139D01*
X12291425Y5654581D01*
X12295584Y5662361D01*
X12301180Y5669180D01*
X12434820Y5802820D01*
X12441639Y5808416D01*
X12449419Y5812575D01*
X12457861Y5815135D01*
X12466640Y5816000D01*
X12998000Y5816000D01*
X13006779Y5815135D01*
X13006779Y5815135D01*
G37*
G36*
X12986626Y5315699D02*
G01*
X12992693Y5314799D01*
X12998643Y5313309D01*
X13004418Y5311242D01*
X13009962Y5308620D01*
X13015223Y5305467D01*
X13020150Y5301813D01*
X13024694Y5297694D01*
X13028813Y5293150D01*
X13032467Y5288223D01*
X13035620Y5282962D01*
X13038242Y5277418D01*
X13040309Y5271643D01*
X13041799Y5265693D01*
X13042699Y5259626D01*
X13043000Y5253500D01*
X13043000Y5128500D01*
X13042699Y5122374D01*
X13041799Y5116307D01*
X13040309Y5110357D01*
X13038242Y5104582D01*
X13035620Y5099038D01*
X13032467Y5093777D01*
X13028813Y5088850D01*
X13024694Y5084306D01*
X13020150Y5080187D01*
X13015223Y5076533D01*
X13009962Y5073380D01*
X13004418Y5070758D01*
X12998643Y5068691D01*
X12992693Y5067201D01*
X12986626Y5066301D01*
X12980500Y5066000D01*
X12230500Y5066000D01*
X12224374Y5066301D01*
X12218307Y5067201D01*
X12212357Y5068691D01*
X12206582Y5070758D01*
X12201038Y5073380D01*
X12195777Y5076533D01*
X12190850Y5080187D01*
X12186306Y5084306D01*
X12182187Y5088850D01*
X12178533Y5093777D01*
X12175380Y5099038D01*
X12172758Y5104582D01*
X12170691Y5110357D01*
X12169201Y5116307D01*
X12168301Y5122374D01*
X12168000Y5128500D01*
X12168000Y5253500D01*
X12168301Y5259626D01*
X12169201Y5265693D01*
X12170691Y5271643D01*
X12172758Y5277418D01*
X12175380Y5282962D01*
X12178533Y5288223D01*
X12182187Y5293150D01*
X12186306Y5297694D01*
X12190850Y5301813D01*
X12195777Y5305467D01*
X12201038Y5308620D01*
X12206582Y5311242D01*
X12212357Y5313309D01*
X12218307Y5314799D01*
X12224374Y5315699D01*
X12230500Y5316000D01*
X12980500Y5316000D01*
X12986626Y5315699D01*
X12986626Y5315699D01*
G37*
D12*
X12605500Y5191000D03*
D11*
G36*
X12986626Y4815699D02*
G01*
X12992693Y4814799D01*
X12998643Y4813309D01*
X13004418Y4811242D01*
X13009962Y4808620D01*
X13015223Y4805467D01*
X13020150Y4801813D01*
X13024694Y4797694D01*
X13028813Y4793150D01*
X13032467Y4788223D01*
X13035620Y4782962D01*
X13038242Y4777418D01*
X13040309Y4771643D01*
X13041799Y4765693D01*
X13042699Y4759626D01*
X13043000Y4753500D01*
X13043000Y4628500D01*
X13042699Y4622374D01*
X13041799Y4616307D01*
X13040309Y4610357D01*
X13038242Y4604582D01*
X13035620Y4599038D01*
X13032467Y4593777D01*
X13028813Y4588850D01*
X13024694Y4584306D01*
X13020150Y4580187D01*
X13015223Y4576533D01*
X13009962Y4573380D01*
X13004418Y4570758D01*
X12998643Y4568691D01*
X12992693Y4567201D01*
X12986626Y4566301D01*
X12980500Y4566000D01*
X12230500Y4566000D01*
X12224374Y4566301D01*
X12218307Y4567201D01*
X12212357Y4568691D01*
X12206582Y4570758D01*
X12201038Y4573380D01*
X12195777Y4576533D01*
X12190850Y4580187D01*
X12186306Y4584306D01*
X12182187Y4588850D01*
X12178533Y4593777D01*
X12175380Y4599038D01*
X12172758Y4604582D01*
X12170691Y4610357D01*
X12169201Y4616307D01*
X12168301Y4622374D01*
X12168000Y4628500D01*
X12168000Y4753500D01*
X12168301Y4759626D01*
X12169201Y4765693D01*
X12170691Y4771643D01*
X12172758Y4777418D01*
X12175380Y4782962D01*
X12178533Y4788223D01*
X12182187Y4793150D01*
X12186306Y4797694D01*
X12190850Y4801813D01*
X12195777Y4805467D01*
X12201038Y4808620D01*
X12206582Y4811242D01*
X12212357Y4813309D01*
X12218307Y4814799D01*
X12224374Y4815699D01*
X12230500Y4816000D01*
X12980500Y4816000D01*
X12986626Y4815699D01*
X12986626Y4815699D01*
G37*
D12*
X12605500Y4691000D03*
D11*
G36*
X12986626Y4315699D02*
G01*
X12992693Y4314799D01*
X12998643Y4313309D01*
X13004418Y4311242D01*
X13009962Y4308620D01*
X13015223Y4305467D01*
X13020150Y4301813D01*
X13024694Y4297694D01*
X13028813Y4293150D01*
X13032467Y4288223D01*
X13035620Y4282962D01*
X13038242Y4277418D01*
X13040309Y4271643D01*
X13041799Y4265693D01*
X13042699Y4259626D01*
X13043000Y4253500D01*
X13043000Y4128500D01*
X13042699Y4122374D01*
X13041799Y4116307D01*
X13040309Y4110357D01*
X13038242Y4104582D01*
X13035620Y4099038D01*
X13032467Y4093777D01*
X13028813Y4088850D01*
X13024694Y4084306D01*
X13020150Y4080187D01*
X13015223Y4076533D01*
X13009962Y4073380D01*
X13004418Y4070758D01*
X12998643Y4068691D01*
X12992693Y4067201D01*
X12986626Y4066301D01*
X12980500Y4066000D01*
X12230500Y4066000D01*
X12224374Y4066301D01*
X12218307Y4067201D01*
X12212357Y4068691D01*
X12206582Y4070758D01*
X12201038Y4073380D01*
X12195777Y4076533D01*
X12190850Y4080187D01*
X12186306Y4084306D01*
X12182187Y4088850D01*
X12178533Y4093777D01*
X12175380Y4099038D01*
X12172758Y4104582D01*
X12170691Y4110357D01*
X12169201Y4116307D01*
X12168301Y4122374D01*
X12168000Y4128500D01*
X12168000Y4253500D01*
X12168301Y4259626D01*
X12169201Y4265693D01*
X12170691Y4271643D01*
X12172758Y4277418D01*
X12175380Y4282962D01*
X12178533Y4288223D01*
X12182187Y4293150D01*
X12186306Y4297694D01*
X12190850Y4301813D01*
X12195777Y4305467D01*
X12201038Y4308620D01*
X12206582Y4311242D01*
X12212357Y4313309D01*
X12218307Y4314799D01*
X12224374Y4315699D01*
X12230500Y4316000D01*
X12980500Y4316000D01*
X12986626Y4315699D01*
X12986626Y4315699D01*
G37*
D12*
X12605500Y4191000D03*
D11*
G36*
X12986626Y3815699D02*
G01*
X12992693Y3814799D01*
X12998643Y3813309D01*
X13004418Y3811242D01*
X13009962Y3808620D01*
X13015223Y3805467D01*
X13020150Y3801813D01*
X13024694Y3797694D01*
X13028813Y3793150D01*
X13032467Y3788223D01*
X13035620Y3782962D01*
X13038242Y3777418D01*
X13040309Y3771643D01*
X13041799Y3765693D01*
X13042699Y3759626D01*
X13043000Y3753500D01*
X13043000Y3628500D01*
X13042699Y3622374D01*
X13041799Y3616307D01*
X13040309Y3610357D01*
X13038242Y3604582D01*
X13035620Y3599038D01*
X13032467Y3593777D01*
X13028813Y3588850D01*
X13024694Y3584306D01*
X13020150Y3580187D01*
X13015223Y3576533D01*
X13009962Y3573380D01*
X13004418Y3570758D01*
X12998643Y3568691D01*
X12992693Y3567201D01*
X12986626Y3566301D01*
X12980500Y3566000D01*
X12230500Y3566000D01*
X12224374Y3566301D01*
X12218307Y3567201D01*
X12212357Y3568691D01*
X12206582Y3570758D01*
X12201038Y3573380D01*
X12195777Y3576533D01*
X12190850Y3580187D01*
X12186306Y3584306D01*
X12182187Y3588850D01*
X12178533Y3593777D01*
X12175380Y3599038D01*
X12172758Y3604582D01*
X12170691Y3610357D01*
X12169201Y3616307D01*
X12168301Y3622374D01*
X12168000Y3628500D01*
X12168000Y3753500D01*
X12168301Y3759626D01*
X12169201Y3765693D01*
X12170691Y3771643D01*
X12172758Y3777418D01*
X12175380Y3782962D01*
X12178533Y3788223D01*
X12182187Y3793150D01*
X12186306Y3797694D01*
X12190850Y3801813D01*
X12195777Y3805467D01*
X12201038Y3808620D01*
X12206582Y3811242D01*
X12212357Y3813309D01*
X12218307Y3814799D01*
X12224374Y3815699D01*
X12230500Y3816000D01*
X12980500Y3816000D01*
X12986626Y3815699D01*
X12986626Y3815699D01*
G37*
D12*
X12605500Y3691000D03*
D11*
G36*
X12986626Y3315699D02*
G01*
X12992693Y3314799D01*
X12998643Y3313309D01*
X13004418Y3311242D01*
X13009962Y3308620D01*
X13015223Y3305467D01*
X13020150Y3301813D01*
X13024694Y3297694D01*
X13028813Y3293150D01*
X13032467Y3288223D01*
X13035620Y3282962D01*
X13038242Y3277418D01*
X13040309Y3271643D01*
X13041799Y3265693D01*
X13042699Y3259626D01*
X13043000Y3253500D01*
X13043000Y3128500D01*
X13042699Y3122374D01*
X13041799Y3116307D01*
X13040309Y3110357D01*
X13038242Y3104582D01*
X13035620Y3099038D01*
X13032467Y3093777D01*
X13028813Y3088850D01*
X13024694Y3084306D01*
X13020150Y3080187D01*
X13015223Y3076533D01*
X13009962Y3073380D01*
X13004418Y3070758D01*
X12998643Y3068691D01*
X12992693Y3067201D01*
X12986626Y3066301D01*
X12980500Y3066000D01*
X12230500Y3066000D01*
X12224374Y3066301D01*
X12218307Y3067201D01*
X12212357Y3068691D01*
X12206582Y3070758D01*
X12201038Y3073380D01*
X12195777Y3076533D01*
X12190850Y3080187D01*
X12186306Y3084306D01*
X12182187Y3088850D01*
X12178533Y3093777D01*
X12175380Y3099038D01*
X12172758Y3104582D01*
X12170691Y3110357D01*
X12169201Y3116307D01*
X12168301Y3122374D01*
X12168000Y3128500D01*
X12168000Y3253500D01*
X12168301Y3259626D01*
X12169201Y3265693D01*
X12170691Y3271643D01*
X12172758Y3277418D01*
X12175380Y3282962D01*
X12178533Y3288223D01*
X12182187Y3293150D01*
X12186306Y3297694D01*
X12190850Y3301813D01*
X12195777Y3305467D01*
X12201038Y3308620D01*
X12206582Y3311242D01*
X12212357Y3313309D01*
X12218307Y3314799D01*
X12224374Y3315699D01*
X12230500Y3316000D01*
X12980500Y3316000D01*
X12986626Y3315699D01*
X12986626Y3315699D01*
G37*
D12*
X12605500Y3191000D03*
D10*
X12665500Y2691000D03*
D11*
G36*
X13006779Y2815135D02*
G01*
X13015221Y2812575D01*
X13023001Y2808416D01*
X13029820Y2802820D01*
X13035416Y2796001D01*
X13039575Y2788221D01*
X13042135Y2779779D01*
X13043000Y2771000D01*
X13043000Y2611000D01*
X13042135Y2602221D01*
X13039575Y2593779D01*
X13035416Y2585999D01*
X13029820Y2579180D01*
X13023001Y2573584D01*
X13015221Y2569425D01*
X13006779Y2566865D01*
X12998000Y2566000D01*
X12466640Y2566000D01*
X12457861Y2566865D01*
X12449419Y2569425D01*
X12441639Y2573584D01*
X12434820Y2579180D01*
X12301180Y2712820D01*
X12295584Y2719639D01*
X12291425Y2727419D01*
X12288865Y2735861D01*
X12288000Y2744640D01*
X12288000Y2771000D01*
X12288865Y2779779D01*
X12291425Y2788221D01*
X12295584Y2796001D01*
X12301180Y2802820D01*
X12307999Y2808416D01*
X12315779Y2812575D01*
X12324221Y2815135D01*
X12333000Y2816000D01*
X12998000Y2816000D01*
X13006779Y2815135D01*
X13006779Y2815135D01*
G37*
D10*
X12168000Y2193500D03*
D11*
G36*
X12123139Y2570135D02*
G01*
X12131581Y2567575D01*
X12139361Y2563416D01*
X12146180Y2557820D01*
X12279820Y2424180D01*
X12285416Y2417361D01*
X12289575Y2409581D01*
X12292135Y2401139D01*
X12293000Y2392360D01*
X12293000Y1861000D01*
X12292135Y1852221D01*
X12289575Y1843779D01*
X12285416Y1835999D01*
X12279820Y1829180D01*
X12273001Y1823584D01*
X12265221Y1819425D01*
X12256779Y1816865D01*
X12248000Y1816000D01*
X12088000Y1816000D01*
X12079221Y1816865D01*
X12070779Y1819425D01*
X12062999Y1823584D01*
X12056180Y1829180D01*
X12050584Y1835999D01*
X12046425Y1843779D01*
X12043865Y1852221D01*
X12043000Y1861000D01*
X12043000Y2526000D01*
X12043865Y2534779D01*
X12046425Y2543221D01*
X12050584Y2551001D01*
X12056180Y2557820D01*
X12062999Y2563416D01*
X12070779Y2567575D01*
X12079221Y2570135D01*
X12088000Y2571000D01*
X12114360Y2571000D01*
X12123139Y2570135D01*
X12123139Y2570135D01*
G37*
G36*
X11736626Y2690699D02*
G01*
X11742693Y2689799D01*
X11748643Y2688309D01*
X11754418Y2686242D01*
X11759962Y2683620D01*
X11765223Y2680467D01*
X11770150Y2676813D01*
X11774694Y2672694D01*
X11778813Y2668150D01*
X11782467Y2663223D01*
X11785620Y2657962D01*
X11788242Y2652418D01*
X11790309Y2646643D01*
X11791799Y2640693D01*
X11792699Y2634626D01*
X11793000Y2628500D01*
X11793000Y1878500D01*
X11792699Y1872374D01*
X11791799Y1866307D01*
X11790309Y1860357D01*
X11788242Y1854582D01*
X11785620Y1849038D01*
X11782467Y1843777D01*
X11778813Y1838850D01*
X11774694Y1834306D01*
X11770150Y1830187D01*
X11765223Y1826533D01*
X11759962Y1823380D01*
X11754418Y1820758D01*
X11748643Y1818691D01*
X11742693Y1817201D01*
X11736626Y1816301D01*
X11730500Y1816000D01*
X11605500Y1816000D01*
X11599374Y1816301D01*
X11593307Y1817201D01*
X11587357Y1818691D01*
X11581582Y1820758D01*
X11576038Y1823380D01*
X11570777Y1826533D01*
X11565850Y1830187D01*
X11561306Y1834306D01*
X11557187Y1838850D01*
X11553533Y1843777D01*
X11550380Y1849038D01*
X11547758Y1854582D01*
X11545691Y1860357D01*
X11544201Y1866307D01*
X11543301Y1872374D01*
X11543000Y1878500D01*
X11543000Y2628500D01*
X11543301Y2634626D01*
X11544201Y2640693D01*
X11545691Y2646643D01*
X11547758Y2652418D01*
X11550380Y2657962D01*
X11553533Y2663223D01*
X11557187Y2668150D01*
X11561306Y2672694D01*
X11565850Y2676813D01*
X11570777Y2680467D01*
X11576038Y2683620D01*
X11581582Y2686242D01*
X11587357Y2688309D01*
X11593307Y2689799D01*
X11599374Y2690699D01*
X11605500Y2691000D01*
X11730500Y2691000D01*
X11736626Y2690699D01*
X11736626Y2690699D01*
G37*
D12*
X11668000Y2253500D03*
D11*
G36*
X11236626Y2690699D02*
G01*
X11242693Y2689799D01*
X11248643Y2688309D01*
X11254418Y2686242D01*
X11259962Y2683620D01*
X11265223Y2680467D01*
X11270150Y2676813D01*
X11274694Y2672694D01*
X11278813Y2668150D01*
X11282467Y2663223D01*
X11285620Y2657962D01*
X11288242Y2652418D01*
X11290309Y2646643D01*
X11291799Y2640693D01*
X11292699Y2634626D01*
X11293000Y2628500D01*
X11293000Y1878500D01*
X11292699Y1872374D01*
X11291799Y1866307D01*
X11290309Y1860357D01*
X11288242Y1854582D01*
X11285620Y1849038D01*
X11282467Y1843777D01*
X11278813Y1838850D01*
X11274694Y1834306D01*
X11270150Y1830187D01*
X11265223Y1826533D01*
X11259962Y1823380D01*
X11254418Y1820758D01*
X11248643Y1818691D01*
X11242693Y1817201D01*
X11236626Y1816301D01*
X11230500Y1816000D01*
X11105500Y1816000D01*
X11099374Y1816301D01*
X11093307Y1817201D01*
X11087357Y1818691D01*
X11081582Y1820758D01*
X11076038Y1823380D01*
X11070777Y1826533D01*
X11065850Y1830187D01*
X11061306Y1834306D01*
X11057187Y1838850D01*
X11053533Y1843777D01*
X11050380Y1849038D01*
X11047758Y1854582D01*
X11045691Y1860357D01*
X11044201Y1866307D01*
X11043301Y1872374D01*
X11043000Y1878500D01*
X11043000Y2628500D01*
X11043301Y2634626D01*
X11044201Y2640693D01*
X11045691Y2646643D01*
X11047758Y2652418D01*
X11050380Y2657962D01*
X11053533Y2663223D01*
X11057187Y2668150D01*
X11061306Y2672694D01*
X11065850Y2676813D01*
X11070777Y2680467D01*
X11076038Y2683620D01*
X11081582Y2686242D01*
X11087357Y2688309D01*
X11093307Y2689799D01*
X11099374Y2690699D01*
X11105500Y2691000D01*
X11230500Y2691000D01*
X11236626Y2690699D01*
X11236626Y2690699D01*
G37*
D12*
X11168000Y2253500D03*
D11*
G36*
X10736626Y2690699D02*
G01*
X10742693Y2689799D01*
X10748643Y2688309D01*
X10754418Y2686242D01*
X10759962Y2683620D01*
X10765223Y2680467D01*
X10770150Y2676813D01*
X10774694Y2672694D01*
X10778813Y2668150D01*
X10782467Y2663223D01*
X10785620Y2657962D01*
X10788242Y2652418D01*
X10790309Y2646643D01*
X10791799Y2640693D01*
X10792699Y2634626D01*
X10793000Y2628500D01*
X10793000Y1878500D01*
X10792699Y1872374D01*
X10791799Y1866307D01*
X10790309Y1860357D01*
X10788242Y1854582D01*
X10785620Y1849038D01*
X10782467Y1843777D01*
X10778813Y1838850D01*
X10774694Y1834306D01*
X10770150Y1830187D01*
X10765223Y1826533D01*
X10759962Y1823380D01*
X10754418Y1820758D01*
X10748643Y1818691D01*
X10742693Y1817201D01*
X10736626Y1816301D01*
X10730500Y1816000D01*
X10605500Y1816000D01*
X10599374Y1816301D01*
X10593307Y1817201D01*
X10587357Y1818691D01*
X10581582Y1820758D01*
X10576038Y1823380D01*
X10570777Y1826533D01*
X10565850Y1830187D01*
X10561306Y1834306D01*
X10557187Y1838850D01*
X10553533Y1843777D01*
X10550380Y1849038D01*
X10547758Y1854582D01*
X10545691Y1860357D01*
X10544201Y1866307D01*
X10543301Y1872374D01*
X10543000Y1878500D01*
X10543000Y2628500D01*
X10543301Y2634626D01*
X10544201Y2640693D01*
X10545691Y2646643D01*
X10547758Y2652418D01*
X10550380Y2657962D01*
X10553533Y2663223D01*
X10557187Y2668150D01*
X10561306Y2672694D01*
X10565850Y2676813D01*
X10570777Y2680467D01*
X10576038Y2683620D01*
X10581582Y2686242D01*
X10587357Y2688309D01*
X10593307Y2689799D01*
X10599374Y2690699D01*
X10605500Y2691000D01*
X10730500Y2691000D01*
X10736626Y2690699D01*
X10736626Y2690699D01*
G37*
D12*
X10668000Y2253500D03*
D11*
G36*
X10236626Y2690699D02*
G01*
X10242693Y2689799D01*
X10248643Y2688309D01*
X10254418Y2686242D01*
X10259962Y2683620D01*
X10265223Y2680467D01*
X10270150Y2676813D01*
X10274694Y2672694D01*
X10278813Y2668150D01*
X10282467Y2663223D01*
X10285620Y2657962D01*
X10288242Y2652418D01*
X10290309Y2646643D01*
X10291799Y2640693D01*
X10292699Y2634626D01*
X10293000Y2628500D01*
X10293000Y1878500D01*
X10292699Y1872374D01*
X10291799Y1866307D01*
X10290309Y1860357D01*
X10288242Y1854582D01*
X10285620Y1849038D01*
X10282467Y1843777D01*
X10278813Y1838850D01*
X10274694Y1834306D01*
X10270150Y1830187D01*
X10265223Y1826533D01*
X10259962Y1823380D01*
X10254418Y1820758D01*
X10248643Y1818691D01*
X10242693Y1817201D01*
X10236626Y1816301D01*
X10230500Y1816000D01*
X10105500Y1816000D01*
X10099374Y1816301D01*
X10093307Y1817201D01*
X10087357Y1818691D01*
X10081582Y1820758D01*
X10076038Y1823380D01*
X10070777Y1826533D01*
X10065850Y1830187D01*
X10061306Y1834306D01*
X10057187Y1838850D01*
X10053533Y1843777D01*
X10050380Y1849038D01*
X10047758Y1854582D01*
X10045691Y1860357D01*
X10044201Y1866307D01*
X10043301Y1872374D01*
X10043000Y1878500D01*
X10043000Y2628500D01*
X10043301Y2634626D01*
X10044201Y2640693D01*
X10045691Y2646643D01*
X10047758Y2652418D01*
X10050380Y2657962D01*
X10053533Y2663223D01*
X10057187Y2668150D01*
X10061306Y2672694D01*
X10065850Y2676813D01*
X10070777Y2680467D01*
X10076038Y2683620D01*
X10081582Y2686242D01*
X10087357Y2688309D01*
X10093307Y2689799D01*
X10099374Y2690699D01*
X10105500Y2691000D01*
X10230500Y2691000D01*
X10236626Y2690699D01*
X10236626Y2690699D01*
G37*
D12*
X10168000Y2253500D03*
D11*
G36*
X9736626Y2690699D02*
G01*
X9742693Y2689799D01*
X9748643Y2688309D01*
X9754418Y2686242D01*
X9759962Y2683620D01*
X9765223Y2680467D01*
X9770150Y2676813D01*
X9774694Y2672694D01*
X9778813Y2668150D01*
X9782467Y2663223D01*
X9785620Y2657962D01*
X9788242Y2652418D01*
X9790309Y2646643D01*
X9791799Y2640693D01*
X9792699Y2634626D01*
X9793000Y2628500D01*
X9793000Y1878500D01*
X9792699Y1872374D01*
X9791799Y1866307D01*
X9790309Y1860357D01*
X9788242Y1854582D01*
X9785620Y1849038D01*
X9782467Y1843777D01*
X9778813Y1838850D01*
X9774694Y1834306D01*
X9770150Y1830187D01*
X9765223Y1826533D01*
X9759962Y1823380D01*
X9754418Y1820758D01*
X9748643Y1818691D01*
X9742693Y1817201D01*
X9736626Y1816301D01*
X9730500Y1816000D01*
X9605500Y1816000D01*
X9599374Y1816301D01*
X9593307Y1817201D01*
X9587357Y1818691D01*
X9581582Y1820758D01*
X9576038Y1823380D01*
X9570777Y1826533D01*
X9565850Y1830187D01*
X9561306Y1834306D01*
X9557187Y1838850D01*
X9553533Y1843777D01*
X9550380Y1849038D01*
X9547758Y1854582D01*
X9545691Y1860357D01*
X9544201Y1866307D01*
X9543301Y1872374D01*
X9543000Y1878500D01*
X9543000Y2628500D01*
X9543301Y2634626D01*
X9544201Y2640693D01*
X9545691Y2646643D01*
X9547758Y2652418D01*
X9550380Y2657962D01*
X9553533Y2663223D01*
X9557187Y2668150D01*
X9561306Y2672694D01*
X9565850Y2676813D01*
X9570777Y2680467D01*
X9576038Y2683620D01*
X9581582Y2686242D01*
X9587357Y2688309D01*
X9593307Y2689799D01*
X9599374Y2690699D01*
X9605500Y2691000D01*
X9730500Y2691000D01*
X9736626Y2690699D01*
X9736626Y2690699D01*
G37*
D12*
X9668000Y2253500D03*
D10*
X9168000Y2193500D03*
D11*
G36*
X9256779Y2570135D02*
G01*
X9265221Y2567575D01*
X9273001Y2563416D01*
X9279820Y2557820D01*
X9285416Y2551001D01*
X9289575Y2543221D01*
X9292135Y2534779D01*
X9293000Y2526000D01*
X9293000Y1861000D01*
X9292135Y1852221D01*
X9289575Y1843779D01*
X9285416Y1835999D01*
X9279820Y1829180D01*
X9273001Y1823584D01*
X9265221Y1819425D01*
X9256779Y1816865D01*
X9248000Y1816000D01*
X9088000Y1816000D01*
X9079221Y1816865D01*
X9070779Y1819425D01*
X9062999Y1823584D01*
X9056180Y1829180D01*
X9050584Y1835999D01*
X9046425Y1843779D01*
X9043865Y1852221D01*
X9043000Y1861000D01*
X9043000Y2392360D01*
X9043865Y2401139D01*
X9046425Y2409581D01*
X9050584Y2417361D01*
X9056180Y2424180D01*
X9189820Y2557820D01*
X9196639Y2563416D01*
X9204419Y2567575D01*
X9212861Y2570135D01*
X9221640Y2571000D01*
X9248000Y2571000D01*
X9256779Y2570135D01*
X9256779Y2570135D01*
G37*
D10*
X8670500Y2691000D03*
D11*
G36*
X9011779Y2815135D02*
G01*
X9020221Y2812575D01*
X9028001Y2808416D01*
X9034820Y2802820D01*
X9040416Y2796001D01*
X9044575Y2788221D01*
X9047135Y2779779D01*
X9048000Y2771000D01*
X9048000Y2744640D01*
X9047135Y2735861D01*
X9044575Y2727419D01*
X9040416Y2719639D01*
X9034820Y2712820D01*
X8901180Y2579180D01*
X8894361Y2573584D01*
X8886581Y2569425D01*
X8878139Y2566865D01*
X8869360Y2566000D01*
X8338000Y2566000D01*
X8329221Y2566865D01*
X8320779Y2569425D01*
X8312999Y2573584D01*
X8306180Y2579180D01*
X8300584Y2585999D01*
X8296425Y2593779D01*
X8293865Y2602221D01*
X8293000Y2611000D01*
X8293000Y2771000D01*
X8293865Y2779779D01*
X8296425Y2788221D01*
X8300584Y2796001D01*
X8306180Y2802820D01*
X8312999Y2808416D01*
X8320779Y2812575D01*
X8329221Y2815135D01*
X8338000Y2816000D01*
X9003000Y2816000D01*
X9011779Y2815135D01*
X9011779Y2815135D01*
G37*
G36*
X9111626Y3315699D02*
G01*
X9117693Y3314799D01*
X9123643Y3313309D01*
X9129418Y3311242D01*
X9134962Y3308620D01*
X9140223Y3305467D01*
X9145150Y3301813D01*
X9149694Y3297694D01*
X9153813Y3293150D01*
X9157467Y3288223D01*
X9160620Y3282962D01*
X9163242Y3277418D01*
X9165309Y3271643D01*
X9166799Y3265693D01*
X9167699Y3259626D01*
X9168000Y3253500D01*
X9168000Y3128500D01*
X9167699Y3122374D01*
X9166799Y3116307D01*
X9165309Y3110357D01*
X9163242Y3104582D01*
X9160620Y3099038D01*
X9157467Y3093777D01*
X9153813Y3088850D01*
X9149694Y3084306D01*
X9145150Y3080187D01*
X9140223Y3076533D01*
X9134962Y3073380D01*
X9129418Y3070758D01*
X9123643Y3068691D01*
X9117693Y3067201D01*
X9111626Y3066301D01*
X9105500Y3066000D01*
X8355500Y3066000D01*
X8349374Y3066301D01*
X8343307Y3067201D01*
X8337357Y3068691D01*
X8331582Y3070758D01*
X8326038Y3073380D01*
X8320777Y3076533D01*
X8315850Y3080187D01*
X8311306Y3084306D01*
X8307187Y3088850D01*
X8303533Y3093777D01*
X8300380Y3099038D01*
X8297758Y3104582D01*
X8295691Y3110357D01*
X8294201Y3116307D01*
X8293301Y3122374D01*
X8293000Y3128500D01*
X8293000Y3253500D01*
X8293301Y3259626D01*
X8294201Y3265693D01*
X8295691Y3271643D01*
X8297758Y3277418D01*
X8300380Y3282962D01*
X8303533Y3288223D01*
X8307187Y3293150D01*
X8311306Y3297694D01*
X8315850Y3301813D01*
X8320777Y3305467D01*
X8326038Y3308620D01*
X8331582Y3311242D01*
X8337357Y3313309D01*
X8343307Y3314799D01*
X8349374Y3315699D01*
X8355500Y3316000D01*
X9105500Y3316000D01*
X9111626Y3315699D01*
X9111626Y3315699D01*
G37*
D12*
X8730500Y3191000D03*
D11*
G36*
X9111626Y3815699D02*
G01*
X9117693Y3814799D01*
X9123643Y3813309D01*
X9129418Y3811242D01*
X9134962Y3808620D01*
X9140223Y3805467D01*
X9145150Y3801813D01*
X9149694Y3797694D01*
X9153813Y3793150D01*
X9157467Y3788223D01*
X9160620Y3782962D01*
X9163242Y3777418D01*
X9165309Y3771643D01*
X9166799Y3765693D01*
X9167699Y3759626D01*
X9168000Y3753500D01*
X9168000Y3628500D01*
X9167699Y3622374D01*
X9166799Y3616307D01*
X9165309Y3610357D01*
X9163242Y3604582D01*
X9160620Y3599038D01*
X9157467Y3593777D01*
X9153813Y3588850D01*
X9149694Y3584306D01*
X9145150Y3580187D01*
X9140223Y3576533D01*
X9134962Y3573380D01*
X9129418Y3570758D01*
X9123643Y3568691D01*
X9117693Y3567201D01*
X9111626Y3566301D01*
X9105500Y3566000D01*
X8355500Y3566000D01*
X8349374Y3566301D01*
X8343307Y3567201D01*
X8337357Y3568691D01*
X8331582Y3570758D01*
X8326038Y3573380D01*
X8320777Y3576533D01*
X8315850Y3580187D01*
X8311306Y3584306D01*
X8307187Y3588850D01*
X8303533Y3593777D01*
X8300380Y3599038D01*
X8297758Y3604582D01*
X8295691Y3610357D01*
X8294201Y3616307D01*
X8293301Y3622374D01*
X8293000Y3628500D01*
X8293000Y3753500D01*
X8293301Y3759626D01*
X8294201Y3765693D01*
X8295691Y3771643D01*
X8297758Y3777418D01*
X8300380Y3782962D01*
X8303533Y3788223D01*
X8307187Y3793150D01*
X8311306Y3797694D01*
X8315850Y3801813D01*
X8320777Y3805467D01*
X8326038Y3808620D01*
X8331582Y3811242D01*
X8337357Y3813309D01*
X8343307Y3814799D01*
X8349374Y3815699D01*
X8355500Y3816000D01*
X9105500Y3816000D01*
X9111626Y3815699D01*
X9111626Y3815699D01*
G37*
D12*
X8730500Y3691000D03*
D11*
G36*
X9111626Y4315699D02*
G01*
X9117693Y4314799D01*
X9123643Y4313309D01*
X9129418Y4311242D01*
X9134962Y4308620D01*
X9140223Y4305467D01*
X9145150Y4301813D01*
X9149694Y4297694D01*
X9153813Y4293150D01*
X9157467Y4288223D01*
X9160620Y4282962D01*
X9163242Y4277418D01*
X9165309Y4271643D01*
X9166799Y4265693D01*
X9167699Y4259626D01*
X9168000Y4253500D01*
X9168000Y4128500D01*
X9167699Y4122374D01*
X9166799Y4116307D01*
X9165309Y4110357D01*
X9163242Y4104582D01*
X9160620Y4099038D01*
X9157467Y4093777D01*
X9153813Y4088850D01*
X9149694Y4084306D01*
X9145150Y4080187D01*
X9140223Y4076533D01*
X9134962Y4073380D01*
X9129418Y4070758D01*
X9123643Y4068691D01*
X9117693Y4067201D01*
X9111626Y4066301D01*
X9105500Y4066000D01*
X8355500Y4066000D01*
X8349374Y4066301D01*
X8343307Y4067201D01*
X8337357Y4068691D01*
X8331582Y4070758D01*
X8326038Y4073380D01*
X8320777Y4076533D01*
X8315850Y4080187D01*
X8311306Y4084306D01*
X8307187Y4088850D01*
X8303533Y4093777D01*
X8300380Y4099038D01*
X8297758Y4104582D01*
X8295691Y4110357D01*
X8294201Y4116307D01*
X8293301Y4122374D01*
X8293000Y4128500D01*
X8293000Y4253500D01*
X8293301Y4259626D01*
X8294201Y4265693D01*
X8295691Y4271643D01*
X8297758Y4277418D01*
X8300380Y4282962D01*
X8303533Y4288223D01*
X8307187Y4293150D01*
X8311306Y4297694D01*
X8315850Y4301813D01*
X8320777Y4305467D01*
X8326038Y4308620D01*
X8331582Y4311242D01*
X8337357Y4313309D01*
X8343307Y4314799D01*
X8349374Y4315699D01*
X8355500Y4316000D01*
X9105500Y4316000D01*
X9111626Y4315699D01*
X9111626Y4315699D01*
G37*
D12*
X8730500Y4191000D03*
D11*
G36*
X9111626Y4815699D02*
G01*
X9117693Y4814799D01*
X9123643Y4813309D01*
X9129418Y4811242D01*
X9134962Y4808620D01*
X9140223Y4805467D01*
X9145150Y4801813D01*
X9149694Y4797694D01*
X9153813Y4793150D01*
X9157467Y4788223D01*
X9160620Y4782962D01*
X9163242Y4777418D01*
X9165309Y4771643D01*
X9166799Y4765693D01*
X9167699Y4759626D01*
X9168000Y4753500D01*
X9168000Y4628500D01*
X9167699Y4622374D01*
X9166799Y4616307D01*
X9165309Y4610357D01*
X9163242Y4604582D01*
X9160620Y4599038D01*
X9157467Y4593777D01*
X9153813Y4588850D01*
X9149694Y4584306D01*
X9145150Y4580187D01*
X9140223Y4576533D01*
X9134962Y4573380D01*
X9129418Y4570758D01*
X9123643Y4568691D01*
X9117693Y4567201D01*
X9111626Y4566301D01*
X9105500Y4566000D01*
X8355500Y4566000D01*
X8349374Y4566301D01*
X8343307Y4567201D01*
X8337357Y4568691D01*
X8331582Y4570758D01*
X8326038Y4573380D01*
X8320777Y4576533D01*
X8315850Y4580187D01*
X8311306Y4584306D01*
X8307187Y4588850D01*
X8303533Y4593777D01*
X8300380Y4599038D01*
X8297758Y4604582D01*
X8295691Y4610357D01*
X8294201Y4616307D01*
X8293301Y4622374D01*
X8293000Y4628500D01*
X8293000Y4753500D01*
X8293301Y4759626D01*
X8294201Y4765693D01*
X8295691Y4771643D01*
X8297758Y4777418D01*
X8300380Y4782962D01*
X8303533Y4788223D01*
X8307187Y4793150D01*
X8311306Y4797694D01*
X8315850Y4801813D01*
X8320777Y4805467D01*
X8326038Y4808620D01*
X8331582Y4811242D01*
X8337357Y4813309D01*
X8343307Y4814799D01*
X8349374Y4815699D01*
X8355500Y4816000D01*
X9105500Y4816000D01*
X9111626Y4815699D01*
X9111626Y4815699D01*
G37*
D12*
X8730500Y4691000D03*
D11*
G36*
X9111626Y5315699D02*
G01*
X9117693Y5314799D01*
X9123643Y5313309D01*
X9129418Y5311242D01*
X9134962Y5308620D01*
X9140223Y5305467D01*
X9145150Y5301813D01*
X9149694Y5297694D01*
X9153813Y5293150D01*
X9157467Y5288223D01*
X9160620Y5282962D01*
X9163242Y5277418D01*
X9165309Y5271643D01*
X9166799Y5265693D01*
X9167699Y5259626D01*
X9168000Y5253500D01*
X9168000Y5128500D01*
X9167699Y5122374D01*
X9166799Y5116307D01*
X9165309Y5110357D01*
X9163242Y5104582D01*
X9160620Y5099038D01*
X9157467Y5093777D01*
X9153813Y5088850D01*
X9149694Y5084306D01*
X9145150Y5080187D01*
X9140223Y5076533D01*
X9134962Y5073380D01*
X9129418Y5070758D01*
X9123643Y5068691D01*
X9117693Y5067201D01*
X9111626Y5066301D01*
X9105500Y5066000D01*
X8355500Y5066000D01*
X8349374Y5066301D01*
X8343307Y5067201D01*
X8337357Y5068691D01*
X8331582Y5070758D01*
X8326038Y5073380D01*
X8320777Y5076533D01*
X8315850Y5080187D01*
X8311306Y5084306D01*
X8307187Y5088850D01*
X8303533Y5093777D01*
X8300380Y5099038D01*
X8297758Y5104582D01*
X8295691Y5110357D01*
X8294201Y5116307D01*
X8293301Y5122374D01*
X8293000Y5128500D01*
X8293000Y5253500D01*
X8293301Y5259626D01*
X8294201Y5265693D01*
X8295691Y5271643D01*
X8297758Y5277418D01*
X8300380Y5282962D01*
X8303533Y5288223D01*
X8307187Y5293150D01*
X8311306Y5297694D01*
X8315850Y5301813D01*
X8320777Y5305467D01*
X8326038Y5308620D01*
X8331582Y5311242D01*
X8337357Y5313309D01*
X8343307Y5314799D01*
X8349374Y5315699D01*
X8355500Y5316000D01*
X9105500Y5316000D01*
X9111626Y5315699D01*
X9111626Y5315699D01*
G37*
D12*
X8730500Y5191000D03*
D10*
X8670500Y5691000D03*
D11*
G36*
X8878139Y5815135D02*
G01*
X8886581Y5812575D01*
X8894361Y5808416D01*
X8901180Y5802820D01*
X9034820Y5669180D01*
X9040416Y5662361D01*
X9044575Y5654581D01*
X9047135Y5646139D01*
X9048000Y5637360D01*
X9048000Y5611000D01*
X9047135Y5602221D01*
X9044575Y5593779D01*
X9040416Y5585999D01*
X9034820Y5579180D01*
X9028001Y5573584D01*
X9020221Y5569425D01*
X9011779Y5566865D01*
X9003000Y5566000D01*
X8338000Y5566000D01*
X8329221Y5566865D01*
X8320779Y5569425D01*
X8312999Y5573584D01*
X8306180Y5579180D01*
X8300584Y5585999D01*
X8296425Y5593779D01*
X8293865Y5602221D01*
X8293000Y5611000D01*
X8293000Y5771000D01*
X8293865Y5779779D01*
X8296425Y5788221D01*
X8300584Y5796001D01*
X8306180Y5802820D01*
X8312999Y5808416D01*
X8320779Y5812575D01*
X8329221Y5815135D01*
X8338000Y5816000D01*
X8869360Y5816000D01*
X8878139Y5815135D01*
X8878139Y5815135D01*
G37*
D13*
X1778000Y-5540000D03*
X1778000Y-2770000D03*
X1778000Y0D03*
X1778000Y2770000D03*
X1778000Y5540000D03*
D14*
X19593000Y-3500000D03*
X19593000Y3500000D03*
X19593000Y-1000000D03*
X19593000Y1000000D03*
D15*
X9992000Y-5715000D03*
X9992000Y-3815000D03*
X12192000Y-3815000D03*
X12192000Y-4765000D03*
X12192000Y-5715000D03*
D11*
G36*
X6595905Y-3100204D02*
G01*
X6620173Y-3103804D01*
X6643972Y-3109765D01*
X6667071Y-3118030D01*
X6689250Y-3128520D01*
X6710293Y-3141132D01*
X6729999Y-3155747D01*
X6748177Y-3172223D01*
X6764653Y-3190401D01*
X6779268Y-3210107D01*
X6791880Y-3231150D01*
X6802370Y-3253329D01*
X6810635Y-3276428D01*
X6816596Y-3300227D01*
X6820196Y-3324495D01*
X6821400Y-3348999D01*
X6821400Y-3999001D01*
X6820196Y-4023505D01*
X6816596Y-4047773D01*
X6810635Y-4071572D01*
X6802370Y-4094671D01*
X6791880Y-4116850D01*
X6779268Y-4137893D01*
X6764653Y-4157599D01*
X6748177Y-4175777D01*
X6729999Y-4192253D01*
X6710293Y-4206868D01*
X6689250Y-4219480D01*
X6667071Y-4229970D01*
X6643972Y-4238235D01*
X6620173Y-4244196D01*
X6595905Y-4247796D01*
X6571401Y-4249000D01*
X5671399Y-4249000D01*
X5646895Y-4247796D01*
X5622627Y-4244196D01*
X5598828Y-4238235D01*
X5575729Y-4229970D01*
X5553550Y-4219480D01*
X5532507Y-4206868D01*
X5512801Y-4192253D01*
X5494623Y-4175777D01*
X5478147Y-4157599D01*
X5463532Y-4137893D01*
X5450920Y-4116850D01*
X5440430Y-4094671D01*
X5432165Y-4071572D01*
X5426204Y-4047773D01*
X5422604Y-4023505D01*
X5421400Y-3999001D01*
X5421400Y-3348999D01*
X5422604Y-3324495D01*
X5426204Y-3300227D01*
X5432165Y-3276428D01*
X5440430Y-3253329D01*
X5450920Y-3231150D01*
X5463532Y-3210107D01*
X5478147Y-3190401D01*
X5494623Y-3172223D01*
X5512801Y-3155747D01*
X5532507Y-3141132D01*
X5553550Y-3128520D01*
X5575729Y-3118030D01*
X5598828Y-3109765D01*
X5622627Y-3103804D01*
X5646895Y-3100204D01*
X5671399Y-3099000D01*
X6571401Y-3099000D01*
X6595905Y-3100204D01*
X6595905Y-3100204D01*
G37*
D16*
X6121400Y-3674000D03*
D11*
G36*
X6595905Y-5150204D02*
G01*
X6620173Y-5153804D01*
X6643972Y-5159765D01*
X6667071Y-5168030D01*
X6689250Y-5178520D01*
X6710293Y-5191132D01*
X6729999Y-5205747D01*
X6748177Y-5222223D01*
X6764653Y-5240401D01*
X6779268Y-5260107D01*
X6791880Y-5281150D01*
X6802370Y-5303329D01*
X6810635Y-5326428D01*
X6816596Y-5350227D01*
X6820196Y-5374495D01*
X6821400Y-5398999D01*
X6821400Y-6049001D01*
X6820196Y-6073505D01*
X6816596Y-6097773D01*
X6810635Y-6121572D01*
X6802370Y-6144671D01*
X6791880Y-6166850D01*
X6779268Y-6187893D01*
X6764653Y-6207599D01*
X6748177Y-6225777D01*
X6729999Y-6242253D01*
X6710293Y-6256868D01*
X6689250Y-6269480D01*
X6667071Y-6279970D01*
X6643972Y-6288235D01*
X6620173Y-6294196D01*
X6595905Y-6297796D01*
X6571401Y-6299000D01*
X5671399Y-6299000D01*
X5646895Y-6297796D01*
X5622627Y-6294196D01*
X5598828Y-6288235D01*
X5575729Y-6279970D01*
X5553550Y-6269480D01*
X5532507Y-6256868D01*
X5512801Y-6242253D01*
X5494623Y-6225777D01*
X5478147Y-6207599D01*
X5463532Y-6187893D01*
X5450920Y-6166850D01*
X5440430Y-6144671D01*
X5432165Y-6121572D01*
X5426204Y-6097773D01*
X5422604Y-6073505D01*
X5421400Y-6049001D01*
X5421400Y-5398999D01*
X5422604Y-5374495D01*
X5426204Y-5350227D01*
X5432165Y-5326428D01*
X5440430Y-5303329D01*
X5450920Y-5281150D01*
X5463532Y-5260107D01*
X5478147Y-5240401D01*
X5494623Y-5222223D01*
X5512801Y-5205747D01*
X5532507Y-5191132D01*
X5553550Y-5178520D01*
X5575729Y-5168030D01*
X5598828Y-5159765D01*
X5622627Y-5153804D01*
X5646895Y-5150204D01*
X5671399Y-5149000D01*
X6571401Y-5149000D01*
X6595905Y-5150204D01*
X6595905Y-5150204D01*
G37*
D16*
X6121400Y-5724000D03*
D11*
G36*
X15714505Y2215796D02*
G01*
X15738773Y2212196D01*
X15762572Y2206235D01*
X15785671Y2197970D01*
X15807850Y2187480D01*
X15828893Y2174868D01*
X15848599Y2160253D01*
X15866777Y2143777D01*
X15883253Y2125599D01*
X15897868Y2105893D01*
X15910480Y2084850D01*
X15920970Y2062671D01*
X15929235Y2039572D01*
X15935196Y2015773D01*
X15938796Y1991505D01*
X15940000Y1967001D01*
X15940000Y1316999D01*
X15938796Y1292495D01*
X15935196Y1268227D01*
X15929235Y1244428D01*
X15920970Y1221329D01*
X15910480Y1199150D01*
X15897868Y1178107D01*
X15883253Y1158401D01*
X15866777Y1140223D01*
X15848599Y1123747D01*
X15828893Y1109132D01*
X15807850Y1096520D01*
X15785671Y1086030D01*
X15762572Y1077765D01*
X15738773Y1071804D01*
X15714505Y1068204D01*
X15690001Y1067000D01*
X14789999Y1067000D01*
X14765495Y1068204D01*
X14741227Y1071804D01*
X14717428Y1077765D01*
X14694329Y1086030D01*
X14672150Y1096520D01*
X14651107Y1109132D01*
X14631401Y1123747D01*
X14613223Y1140223D01*
X14596747Y1158401D01*
X14582132Y1178107D01*
X14569520Y1199150D01*
X14559030Y1221329D01*
X14550765Y1244428D01*
X14544804Y1268227D01*
X14541204Y1292495D01*
X14540000Y1316999D01*
X14540000Y1967001D01*
X14541204Y1991505D01*
X14544804Y2015773D01*
X14550765Y2039572D01*
X14559030Y2062671D01*
X14569520Y2084850D01*
X14582132Y2105893D01*
X14596747Y2125599D01*
X14613223Y2143777D01*
X14631401Y2160253D01*
X14651107Y2174868D01*
X14672150Y2187480D01*
X14694329Y2197970D01*
X14717428Y2206235D01*
X14741227Y2212196D01*
X14765495Y2215796D01*
X14789999Y2217000D01*
X15690001Y2217000D01*
X15714505Y2215796D01*
X15714505Y2215796D01*
G37*
D16*
X15240000Y1642000D03*
D11*
G36*
X15714505Y4265796D02*
G01*
X15738773Y4262196D01*
X15762572Y4256235D01*
X15785671Y4247970D01*
X15807850Y4237480D01*
X15828893Y4224868D01*
X15848599Y4210253D01*
X15866777Y4193777D01*
X15883253Y4175599D01*
X15897868Y4155893D01*
X15910480Y4134850D01*
X15920970Y4112671D01*
X15929235Y4089572D01*
X15935196Y4065773D01*
X15938796Y4041505D01*
X15940000Y4017001D01*
X15940000Y3366999D01*
X15938796Y3342495D01*
X15935196Y3318227D01*
X15929235Y3294428D01*
X15920970Y3271329D01*
X15910480Y3249150D01*
X15897868Y3228107D01*
X15883253Y3208401D01*
X15866777Y3190223D01*
X15848599Y3173747D01*
X15828893Y3159132D01*
X15807850Y3146520D01*
X15785671Y3136030D01*
X15762572Y3127765D01*
X15738773Y3121804D01*
X15714505Y3118204D01*
X15690001Y3117000D01*
X14789999Y3117000D01*
X14765495Y3118204D01*
X14741227Y3121804D01*
X14717428Y3127765D01*
X14694329Y3136030D01*
X14672150Y3146520D01*
X14651107Y3159132D01*
X14631401Y3173747D01*
X14613223Y3190223D01*
X14596747Y3208401D01*
X14582132Y3228107D01*
X14569520Y3249150D01*
X14559030Y3271329D01*
X14550765Y3294428D01*
X14544804Y3318227D01*
X14541204Y3342495D01*
X14540000Y3366999D01*
X14540000Y4017001D01*
X14541204Y4041505D01*
X14544804Y4065773D01*
X14550765Y4089572D01*
X14559030Y4112671D01*
X14569520Y4134850D01*
X14582132Y4155893D01*
X14596747Y4175599D01*
X14613223Y4193777D01*
X14631401Y4210253D01*
X14651107Y4224868D01*
X14672150Y4237480D01*
X14694329Y4247970D01*
X14717428Y4256235D01*
X14741227Y4262196D01*
X14765495Y4265796D01*
X14789999Y4267000D01*
X15690001Y4267000D01*
X15714505Y4265796D01*
X15714505Y4265796D01*
G37*
D16*
X15240000Y3692000D03*
D11*
G36*
X8602505Y-3091204D02*
G01*
X8626773Y-3094804D01*
X8650572Y-3100765D01*
X8673671Y-3109030D01*
X8695850Y-3119520D01*
X8716893Y-3132132D01*
X8736599Y-3146747D01*
X8754777Y-3163223D01*
X8771253Y-3181401D01*
X8785868Y-3201107D01*
X8798480Y-3222150D01*
X8808970Y-3244329D01*
X8817235Y-3267428D01*
X8823196Y-3291227D01*
X8826796Y-3315495D01*
X8828000Y-3339999D01*
X8828000Y-3990001D01*
X8826796Y-4014505D01*
X8823196Y-4038773D01*
X8817235Y-4062572D01*
X8808970Y-4085671D01*
X8798480Y-4107850D01*
X8785868Y-4128893D01*
X8771253Y-4148599D01*
X8754777Y-4166777D01*
X8736599Y-4183253D01*
X8716893Y-4197868D01*
X8695850Y-4210480D01*
X8673671Y-4220970D01*
X8650572Y-4229235D01*
X8626773Y-4235196D01*
X8602505Y-4238796D01*
X8578001Y-4240000D01*
X7677999Y-4240000D01*
X7653495Y-4238796D01*
X7629227Y-4235196D01*
X7605428Y-4229235D01*
X7582329Y-4220970D01*
X7560150Y-4210480D01*
X7539107Y-4197868D01*
X7519401Y-4183253D01*
X7501223Y-4166777D01*
X7484747Y-4148599D01*
X7470132Y-4128893D01*
X7457520Y-4107850D01*
X7447030Y-4085671D01*
X7438765Y-4062572D01*
X7432804Y-4038773D01*
X7429204Y-4014505D01*
X7428000Y-3990001D01*
X7428000Y-3339999D01*
X7429204Y-3315495D01*
X7432804Y-3291227D01*
X7438765Y-3267428D01*
X7447030Y-3244329D01*
X7457520Y-3222150D01*
X7470132Y-3201107D01*
X7484747Y-3181401D01*
X7501223Y-3163223D01*
X7519401Y-3146747D01*
X7539107Y-3132132D01*
X7560150Y-3119520D01*
X7582329Y-3109030D01*
X7605428Y-3100765D01*
X7629227Y-3094804D01*
X7653495Y-3091204D01*
X7677999Y-3090000D01*
X8578001Y-3090000D01*
X8602505Y-3091204D01*
X8602505Y-3091204D01*
G37*
D16*
X8128000Y-3665000D03*
D11*
G36*
X8602505Y-5141204D02*
G01*
X8626773Y-5144804D01*
X8650572Y-5150765D01*
X8673671Y-5159030D01*
X8695850Y-5169520D01*
X8716893Y-5182132D01*
X8736599Y-5196747D01*
X8754777Y-5213223D01*
X8771253Y-5231401D01*
X8785868Y-5251107D01*
X8798480Y-5272150D01*
X8808970Y-5294329D01*
X8817235Y-5317428D01*
X8823196Y-5341227D01*
X8826796Y-5365495D01*
X8828000Y-5389999D01*
X8828000Y-6040001D01*
X8826796Y-6064505D01*
X8823196Y-6088773D01*
X8817235Y-6112572D01*
X8808970Y-6135671D01*
X8798480Y-6157850D01*
X8785868Y-6178893D01*
X8771253Y-6198599D01*
X8754777Y-6216777D01*
X8736599Y-6233253D01*
X8716893Y-6247868D01*
X8695850Y-6260480D01*
X8673671Y-6270970D01*
X8650572Y-6279235D01*
X8626773Y-6285196D01*
X8602505Y-6288796D01*
X8578001Y-6290000D01*
X7677999Y-6290000D01*
X7653495Y-6288796D01*
X7629227Y-6285196D01*
X7605428Y-6279235D01*
X7582329Y-6270970D01*
X7560150Y-6260480D01*
X7539107Y-6247868D01*
X7519401Y-6233253D01*
X7501223Y-6216777D01*
X7484747Y-6198599D01*
X7470132Y-6178893D01*
X7457520Y-6157850D01*
X7447030Y-6135671D01*
X7438765Y-6112572D01*
X7432804Y-6088773D01*
X7429204Y-6064505D01*
X7428000Y-6040001D01*
X7428000Y-5389999D01*
X7429204Y-5365495D01*
X7432804Y-5341227D01*
X7438765Y-5317428D01*
X7447030Y-5294329D01*
X7457520Y-5272150D01*
X7470132Y-5251107D01*
X7484747Y-5231401D01*
X7501223Y-5213223D01*
X7519401Y-5196747D01*
X7539107Y-5182132D01*
X7560150Y-5169520D01*
X7582329Y-5159030D01*
X7605428Y-5150765D01*
X7629227Y-5144804D01*
X7653495Y-5141204D01*
X7677999Y-5140000D01*
X8578001Y-5140000D01*
X8602505Y-5141204D01*
X8602505Y-5141204D01*
G37*
D16*
X8128000Y-5715000D03*
D11*
G36*
X14396505Y-4857204D02*
G01*
X14420773Y-4860804D01*
X14444572Y-4866765D01*
X14467671Y-4875030D01*
X14489850Y-4885520D01*
X14510893Y-4898132D01*
X14530599Y-4912747D01*
X14548777Y-4929223D01*
X14565253Y-4947401D01*
X14579868Y-4967107D01*
X14592480Y-4988150D01*
X14602970Y-5010329D01*
X14611235Y-5033428D01*
X14617196Y-5057227D01*
X14620796Y-5081495D01*
X14622000Y-5105999D01*
X14622000Y-5906001D01*
X14620796Y-5930505D01*
X14617196Y-5954773D01*
X14611235Y-5978572D01*
X14602970Y-6001671D01*
X14592480Y-6023850D01*
X14579868Y-6044893D01*
X14565253Y-6064599D01*
X14548777Y-6082777D01*
X14530599Y-6099253D01*
X14510893Y-6113868D01*
X14489850Y-6126480D01*
X14467671Y-6136970D01*
X14444572Y-6145235D01*
X14420773Y-6151196D01*
X14396505Y-6154796D01*
X14372001Y-6156000D01*
X13821999Y-6156000D01*
X13797495Y-6154796D01*
X13773227Y-6151196D01*
X13749428Y-6145235D01*
X13726329Y-6136970D01*
X13704150Y-6126480D01*
X13683107Y-6113868D01*
X13663401Y-6099253D01*
X13645223Y-6082777D01*
X13628747Y-6064599D01*
X13614132Y-6044893D01*
X13601520Y-6023850D01*
X13591030Y-6001671D01*
X13582765Y-5978572D01*
X13576804Y-5954773D01*
X13573204Y-5930505D01*
X13572000Y-5906001D01*
X13572000Y-5105999D01*
X13573204Y-5081495D01*
X13576804Y-5057227D01*
X13582765Y-5033428D01*
X13591030Y-5010329D01*
X13601520Y-4988150D01*
X13614132Y-4967107D01*
X13628747Y-4947401D01*
X13645223Y-4929223D01*
X13663401Y-4912747D01*
X13683107Y-4898132D01*
X13704150Y-4885520D01*
X13726329Y-4875030D01*
X13749428Y-4866765D01*
X13773227Y-4860804D01*
X13797495Y-4857204D01*
X13821999Y-4856000D01*
X14372001Y-4856000D01*
X14396505Y-4857204D01*
X14396505Y-4857204D01*
G37*
D17*
X14097000Y-5506000D03*
D11*
G36*
X14396505Y-2907204D02*
G01*
X14420773Y-2910804D01*
X14444572Y-2916765D01*
X14467671Y-2925030D01*
X14489850Y-2935520D01*
X14510893Y-2948132D01*
X14530599Y-2962747D01*
X14548777Y-2979223D01*
X14565253Y-2997401D01*
X14579868Y-3017107D01*
X14592480Y-3038150D01*
X14602970Y-3060329D01*
X14611235Y-3083428D01*
X14617196Y-3107227D01*
X14620796Y-3131495D01*
X14622000Y-3155999D01*
X14622000Y-3956001D01*
X14620796Y-3980505D01*
X14617196Y-4004773D01*
X14611235Y-4028572D01*
X14602970Y-4051671D01*
X14592480Y-4073850D01*
X14579868Y-4094893D01*
X14565253Y-4114599D01*
X14548777Y-4132777D01*
X14530599Y-4149253D01*
X14510893Y-4163868D01*
X14489850Y-4176480D01*
X14467671Y-4186970D01*
X14444572Y-4195235D01*
X14420773Y-4201196D01*
X14396505Y-4204796D01*
X14372001Y-4206000D01*
X13821999Y-4206000D01*
X13797495Y-4204796D01*
X13773227Y-4201196D01*
X13749428Y-4195235D01*
X13726329Y-4186970D01*
X13704150Y-4176480D01*
X13683107Y-4163868D01*
X13663401Y-4149253D01*
X13645223Y-4132777D01*
X13628747Y-4114599D01*
X13614132Y-4094893D01*
X13601520Y-4073850D01*
X13591030Y-4051671D01*
X13582765Y-4028572D01*
X13576804Y-4004773D01*
X13573204Y-3980505D01*
X13572000Y-3956001D01*
X13572000Y-3155999D01*
X13573204Y-3131495D01*
X13576804Y-3107227D01*
X13582765Y-3083428D01*
X13591030Y-3060329D01*
X13601520Y-3038150D01*
X13614132Y-3017107D01*
X13628747Y-2997401D01*
X13645223Y-2979223D01*
X13663401Y-2962747D01*
X13683107Y-2948132D01*
X13704150Y-2935520D01*
X13726329Y-2925030D01*
X13749428Y-2916765D01*
X13773227Y-2910804D01*
X13797495Y-2907204D01*
X13821999Y-2906000D01*
X14372001Y-2906000D01*
X14396505Y-2907204D01*
X14396505Y-2907204D01*
G37*
D17*
X14097000Y-3556000D03*
M02*
