G04 #@! TF.GenerationSoftware,KiCad,Pcbnew,(5.1.4)-1*
G04 #@! TF.CreationDate,2019-09-27T16:29:42+02:00*
G04 #@! TF.ProjectId,JoyAdapter,4a6f7941-6461-4707-9465-722e6b696361,rev?*
G04 #@! TF.SameCoordinates,Original*
G04 #@! TF.FileFunction,Soldermask,Top*
G04 #@! TF.FilePolarity,Negative*
%FSLAX46Y46*%
G04 Gerber Fmt 4.6, Leading zero omitted, Abs format (unit mm)*
G04 Created by KiCad (PCBNEW (5.1.4)-1) date 2019-09-27 16:29:42*
%MOMM*%
%LPD*%
G04 APERTURE LIST*
%ADD10C,0.100000*%
G04 APERTURE END LIST*
D10*
G36*
X23459823Y-5011313D02*
G01*
X23620242Y-5059976D01*
X23730140Y-5118718D01*
X23768078Y-5138996D01*
X23897659Y-5245341D01*
X24004004Y-5374922D01*
X24004005Y-5374924D01*
X24083024Y-5522758D01*
X24131687Y-5683177D01*
X24148117Y-5850000D01*
X24131687Y-6016823D01*
X24083024Y-6177242D01*
X24033293Y-6270282D01*
X24004004Y-6325078D01*
X23897659Y-6454659D01*
X23768078Y-6561004D01*
X23768076Y-6561005D01*
X23620242Y-6640024D01*
X23459823Y-6688687D01*
X23334804Y-6701000D01*
X20851196Y-6701000D01*
X20726177Y-6688687D01*
X20565758Y-6640024D01*
X20417924Y-6561005D01*
X20417922Y-6561004D01*
X20288341Y-6454659D01*
X20181996Y-6325078D01*
X20152707Y-6270282D01*
X20102976Y-6177242D01*
X20054313Y-6016823D01*
X20037883Y-5850000D01*
X20054313Y-5683177D01*
X20102976Y-5522758D01*
X20181995Y-5374924D01*
X20181996Y-5374922D01*
X20288341Y-5245341D01*
X20417922Y-5138996D01*
X20455860Y-5118718D01*
X20565758Y-5059976D01*
X20726177Y-5011313D01*
X20851196Y-4999000D01*
X23334804Y-4999000D01*
X23459823Y-5011313D01*
X23459823Y-5011313D01*
G37*
G36*
X3569000Y-6514333D02*
G01*
X-13000Y-6514333D01*
X-13000Y-4565667D01*
X3569000Y-4565667D01*
X3569000Y-6514333D01*
X3569000Y-6514333D01*
G37*
G36*
X6710074Y-5102465D02*
G01*
X6747767Y-5113899D01*
X6782503Y-5132466D01*
X6812948Y-5157452D01*
X6837934Y-5187897D01*
X6856501Y-5222633D01*
X6867935Y-5260326D01*
X6872400Y-5305661D01*
X6872400Y-6142339D01*
X6867935Y-6187674D01*
X6856501Y-6225367D01*
X6837934Y-6260103D01*
X6812948Y-6290548D01*
X6782503Y-6315534D01*
X6747767Y-6334101D01*
X6710074Y-6345535D01*
X6664739Y-6350000D01*
X5578061Y-6350000D01*
X5532726Y-6345535D01*
X5495033Y-6334101D01*
X5460297Y-6315534D01*
X5429852Y-6290548D01*
X5404866Y-6260103D01*
X5386299Y-6225367D01*
X5374865Y-6187674D01*
X5370400Y-6142339D01*
X5370400Y-5305661D01*
X5374865Y-5260326D01*
X5386299Y-5222633D01*
X5404866Y-5187897D01*
X5429852Y-5157452D01*
X5460297Y-5132466D01*
X5495033Y-5113899D01*
X5532726Y-5102465D01*
X5578061Y-5098000D01*
X6664739Y-5098000D01*
X6710074Y-5102465D01*
X6710074Y-5102465D01*
G37*
G36*
X8716674Y-5093465D02*
G01*
X8754367Y-5104899D01*
X8789103Y-5123466D01*
X8819548Y-5148452D01*
X8844534Y-5178897D01*
X8863101Y-5213633D01*
X8874535Y-5251326D01*
X8879000Y-5296661D01*
X8879000Y-6133339D01*
X8874535Y-6178674D01*
X8863101Y-6216367D01*
X8844534Y-6251103D01*
X8819548Y-6281548D01*
X8789103Y-6306534D01*
X8754367Y-6325101D01*
X8716674Y-6336535D01*
X8671339Y-6341000D01*
X7584661Y-6341000D01*
X7539326Y-6336535D01*
X7501633Y-6325101D01*
X7466897Y-6306534D01*
X7436452Y-6281548D01*
X7411466Y-6251103D01*
X7392899Y-6216367D01*
X7381465Y-6178674D01*
X7377000Y-6133339D01*
X7377000Y-5296661D01*
X7381465Y-5251326D01*
X7392899Y-5213633D01*
X7411466Y-5178897D01*
X7436452Y-5148452D01*
X7466897Y-5123466D01*
X7501633Y-5104899D01*
X7539326Y-5093465D01*
X7584661Y-5089000D01*
X8671339Y-5089000D01*
X8716674Y-5093465D01*
X8716674Y-5093465D01*
G37*
G36*
X14504811Y-4809605D02*
G01*
X14543867Y-4821453D01*
X14579862Y-4840693D01*
X14611414Y-4866586D01*
X14637307Y-4898138D01*
X14656547Y-4934133D01*
X14668395Y-4973189D01*
X14673000Y-5019949D01*
X14673000Y-5992051D01*
X14668395Y-6038811D01*
X14656547Y-6077867D01*
X14637307Y-6113862D01*
X14611414Y-6145414D01*
X14579862Y-6171307D01*
X14543867Y-6190547D01*
X14504811Y-6202395D01*
X14458051Y-6207000D01*
X13735949Y-6207000D01*
X13689189Y-6202395D01*
X13650133Y-6190547D01*
X13614138Y-6171307D01*
X13582586Y-6145414D01*
X13556693Y-6113862D01*
X13537453Y-6077867D01*
X13525605Y-6038811D01*
X13521000Y-5992051D01*
X13521000Y-5019949D01*
X13525605Y-4973189D01*
X13537453Y-4934133D01*
X13556693Y-4898138D01*
X13582586Y-4866586D01*
X13614138Y-4840693D01*
X13650133Y-4821453D01*
X13689189Y-4809605D01*
X13735949Y-4805000D01*
X14458051Y-4805000D01*
X14504811Y-4809605D01*
X14504811Y-4809605D01*
G37*
G36*
X12773000Y-6091000D02*
G01*
X11611000Y-6091000D01*
X11611000Y-3439000D01*
X12773000Y-3439000D01*
X12773000Y-6091000D01*
X12773000Y-6091000D01*
G37*
G36*
X10573000Y-6091000D02*
G01*
X9411000Y-6091000D01*
X9411000Y-5339000D01*
X10573000Y-5339000D01*
X10573000Y-6091000D01*
X10573000Y-6091000D01*
G37*
G36*
X6710074Y-3052465D02*
G01*
X6747767Y-3063899D01*
X6782503Y-3082466D01*
X6812948Y-3107452D01*
X6837934Y-3137897D01*
X6856501Y-3172633D01*
X6867935Y-3210326D01*
X6872400Y-3255661D01*
X6872400Y-4092339D01*
X6867935Y-4137674D01*
X6856501Y-4175367D01*
X6837934Y-4210103D01*
X6812948Y-4240548D01*
X6782503Y-4265534D01*
X6747767Y-4284101D01*
X6710074Y-4295535D01*
X6664739Y-4300000D01*
X5578061Y-4300000D01*
X5532726Y-4295535D01*
X5495033Y-4284101D01*
X5460297Y-4265534D01*
X5429852Y-4240548D01*
X5404866Y-4210103D01*
X5386299Y-4175367D01*
X5374865Y-4137674D01*
X5370400Y-4092339D01*
X5370400Y-3255661D01*
X5374865Y-3210326D01*
X5386299Y-3172633D01*
X5404866Y-3137897D01*
X5429852Y-3107452D01*
X5460297Y-3082466D01*
X5495033Y-3063899D01*
X5532726Y-3052465D01*
X5578061Y-3048000D01*
X6664739Y-3048000D01*
X6710074Y-3052465D01*
X6710074Y-3052465D01*
G37*
G36*
X8716674Y-3043465D02*
G01*
X8754367Y-3054899D01*
X8789103Y-3073466D01*
X8819548Y-3098452D01*
X8844534Y-3128897D01*
X8863101Y-3163633D01*
X8874535Y-3201326D01*
X8879000Y-3246661D01*
X8879000Y-4083339D01*
X8874535Y-4128674D01*
X8863101Y-4166367D01*
X8844534Y-4201103D01*
X8819548Y-4231548D01*
X8789103Y-4256534D01*
X8754367Y-4275101D01*
X8716674Y-4286535D01*
X8671339Y-4291000D01*
X7584661Y-4291000D01*
X7539326Y-4286535D01*
X7501633Y-4275101D01*
X7466897Y-4256534D01*
X7436452Y-4231548D01*
X7411466Y-4201103D01*
X7392899Y-4166367D01*
X7381465Y-4128674D01*
X7377000Y-4083339D01*
X7377000Y-3246661D01*
X7381465Y-3201326D01*
X7392899Y-3163633D01*
X7411466Y-3128897D01*
X7436452Y-3098452D01*
X7466897Y-3073466D01*
X7501633Y-3054899D01*
X7539326Y-3043465D01*
X7584661Y-3039000D01*
X8671339Y-3039000D01*
X8716674Y-3043465D01*
X8716674Y-3043465D01*
G37*
G36*
X14504811Y-2859605D02*
G01*
X14543867Y-2871453D01*
X14579862Y-2890693D01*
X14611414Y-2916586D01*
X14637307Y-2948138D01*
X14656547Y-2984133D01*
X14668395Y-3023189D01*
X14673000Y-3069949D01*
X14673000Y-4042051D01*
X14668395Y-4088811D01*
X14656547Y-4127867D01*
X14637307Y-4163862D01*
X14611414Y-4195414D01*
X14579862Y-4221307D01*
X14543867Y-4240547D01*
X14504811Y-4252395D01*
X14458051Y-4257000D01*
X13735949Y-4257000D01*
X13689189Y-4252395D01*
X13650133Y-4240547D01*
X13614138Y-4221307D01*
X13582586Y-4195414D01*
X13556693Y-4163862D01*
X13537453Y-4127867D01*
X13525605Y-4088811D01*
X13521000Y-4042051D01*
X13521000Y-3069949D01*
X13525605Y-3023189D01*
X13537453Y-2984133D01*
X13556693Y-2948138D01*
X13582586Y-2916586D01*
X13614138Y-2890693D01*
X13650133Y-2871453D01*
X13689189Y-2859605D01*
X13735949Y-2855000D01*
X14458051Y-2855000D01*
X14504811Y-2859605D01*
X14504811Y-2859605D01*
G37*
G36*
X10573000Y-4191000D02*
G01*
X9411000Y-4191000D01*
X9411000Y-3439000D01*
X10573000Y-3439000D01*
X10573000Y-4191000D01*
X10573000Y-4191000D01*
G37*
G36*
X20644000Y-4101000D02*
G01*
X18542000Y-4101000D01*
X18542000Y-2899000D01*
X20644000Y-2899000D01*
X20644000Y-4101000D01*
X20644000Y-4101000D01*
G37*
G36*
X3569000Y-3744333D02*
G01*
X-13000Y-3744333D01*
X-13000Y-1795667D01*
X3569000Y-1795667D01*
X3569000Y-3744333D01*
X3569000Y-3744333D01*
G37*
G36*
X22229601Y-1714397D02*
G01*
X22268305Y-1722096D01*
X22300340Y-1735365D01*
X22377680Y-1767400D01*
X22476115Y-1833173D01*
X22559827Y-1916885D01*
X22625600Y-2015320D01*
X22670904Y-2124696D01*
X22694000Y-2240805D01*
X22694000Y-2359195D01*
X22670904Y-2475304D01*
X22625600Y-2584680D01*
X22559827Y-2683115D01*
X22476115Y-2766827D01*
X22377680Y-2832600D01*
X22310877Y-2860270D01*
X22268305Y-2877904D01*
X22229601Y-2885603D01*
X22152195Y-2901000D01*
X22033805Y-2901000D01*
X21956399Y-2885603D01*
X21917695Y-2877904D01*
X21875123Y-2860270D01*
X21808320Y-2832600D01*
X21709885Y-2766827D01*
X21626173Y-2683115D01*
X21560400Y-2584680D01*
X21515096Y-2475304D01*
X21492000Y-2359195D01*
X21492000Y-2240805D01*
X21515096Y-2124696D01*
X21560400Y-2015320D01*
X21626173Y-1916885D01*
X21709885Y-1833173D01*
X21808320Y-1767400D01*
X21885660Y-1735365D01*
X21917695Y-1722096D01*
X21956399Y-1714397D01*
X22033805Y-1699000D01*
X22152195Y-1699000D01*
X22229601Y-1714397D01*
X22229601Y-1714397D01*
G37*
G36*
X20644000Y-1601000D02*
G01*
X18542000Y-1601000D01*
X18542000Y-399000D01*
X20644000Y-399000D01*
X20644000Y-1601000D01*
X20644000Y-1601000D01*
G37*
G36*
X12876287Y1251004D02*
G01*
X13113053Y1152932D01*
X13113055Y1152931D01*
X13249339Y1061869D01*
X13326139Y1010553D01*
X13507353Y829339D01*
X13649732Y616253D01*
X13747804Y379487D01*
X13797800Y128139D01*
X13797800Y-128139D01*
X13747804Y-379487D01*
X13739721Y-399000D01*
X13649731Y-616255D01*
X13507353Y-829339D01*
X13326139Y-1010553D01*
X13113055Y-1152931D01*
X13113054Y-1152932D01*
X13113053Y-1152932D01*
X12876287Y-1251004D01*
X12624939Y-1301000D01*
X12368661Y-1301000D01*
X12117313Y-1251004D01*
X11880547Y-1152932D01*
X11880546Y-1152932D01*
X11880545Y-1152931D01*
X11667461Y-1010553D01*
X11486247Y-829339D01*
X11343869Y-616255D01*
X11253879Y-399000D01*
X11245796Y-379487D01*
X11195800Y-128139D01*
X11195800Y128139D01*
X11245796Y379487D01*
X11343868Y616253D01*
X11486247Y829339D01*
X11667461Y1010553D01*
X11744261Y1061869D01*
X11880545Y1152931D01*
X11880547Y1152932D01*
X12117313Y1251004D01*
X12368661Y1301000D01*
X12624939Y1301000D01*
X12876287Y1251004D01*
X12876287Y1251004D01*
G37*
G36*
X3569000Y-974333D02*
G01*
X-13000Y-974333D01*
X-13000Y974333D01*
X3569000Y974333D01*
X3569000Y-974333D01*
X3569000Y-974333D01*
G37*
G36*
X9040395Y914454D02*
G01*
X9213466Y842766D01*
X9213467Y842765D01*
X9369227Y738690D01*
X9501690Y606227D01*
X9501691Y606225D01*
X9605766Y450466D01*
X9677454Y277395D01*
X9714000Y93667D01*
X9714000Y-93667D01*
X9677454Y-277395D01*
X9605766Y-450466D01*
X9605765Y-450467D01*
X9501690Y-606227D01*
X9369227Y-738690D01*
X9290818Y-791081D01*
X9213466Y-842766D01*
X9040395Y-914454D01*
X8856667Y-951000D01*
X8669333Y-951000D01*
X8485605Y-914454D01*
X8312534Y-842766D01*
X8235182Y-791081D01*
X8156773Y-738690D01*
X8024310Y-606227D01*
X7920235Y-450467D01*
X7920234Y-450466D01*
X7848546Y-277395D01*
X7812000Y-93667D01*
X7812000Y93667D01*
X7848546Y277395D01*
X7920234Y450466D01*
X8024309Y606225D01*
X8024310Y606227D01*
X8156773Y738690D01*
X8312533Y842765D01*
X8312534Y842766D01*
X8485605Y914454D01*
X8669333Y951000D01*
X8856667Y951000D01*
X9040395Y914454D01*
X9040395Y914454D01*
G37*
G36*
X7174000Y-951000D02*
G01*
X5272000Y-951000D01*
X5272000Y951000D01*
X7174000Y951000D01*
X7174000Y-951000D01*
X7174000Y-951000D01*
G37*
G36*
X20644000Y399000D02*
G01*
X18542000Y399000D01*
X18542000Y1601000D01*
X20644000Y1601000D01*
X20644000Y399000D01*
X20644000Y399000D01*
G37*
G36*
X15828674Y2263535D02*
G01*
X15866367Y2252101D01*
X15901103Y2233534D01*
X15931548Y2208548D01*
X15956534Y2178103D01*
X15975101Y2143367D01*
X15986535Y2105674D01*
X15991000Y2060339D01*
X15991000Y1223661D01*
X15986535Y1178326D01*
X15975101Y1140633D01*
X15956534Y1105897D01*
X15931548Y1075452D01*
X15901103Y1050466D01*
X15866367Y1031899D01*
X15828674Y1020465D01*
X15783339Y1016000D01*
X14696661Y1016000D01*
X14651326Y1020465D01*
X14613633Y1031899D01*
X14578897Y1050466D01*
X14548452Y1075452D01*
X14523466Y1105897D01*
X14504899Y1140633D01*
X14493465Y1178326D01*
X14489000Y1223661D01*
X14489000Y2060339D01*
X14493465Y2105674D01*
X14504899Y2143367D01*
X14523466Y2178103D01*
X14548452Y2208548D01*
X14578897Y2233534D01*
X14613633Y2252101D01*
X14651326Y2263535D01*
X14696661Y2268000D01*
X15783339Y2268000D01*
X15828674Y2263535D01*
X15828674Y2263535D01*
G37*
G36*
X22229601Y2885603D02*
G01*
X22268305Y2877904D01*
X22278046Y2873869D01*
X22377680Y2832600D01*
X22476115Y2766827D01*
X22559827Y2683115D01*
X22625600Y2584680D01*
X22670904Y2475304D01*
X22694000Y2359195D01*
X22694000Y2240805D01*
X22670904Y2124696D01*
X22625600Y2015320D01*
X22559827Y1916885D01*
X22476115Y1833173D01*
X22377680Y1767400D01*
X22300340Y1735365D01*
X22268305Y1722096D01*
X22229601Y1714397D01*
X22152195Y1699000D01*
X22033805Y1699000D01*
X21956399Y1714397D01*
X21917695Y1722096D01*
X21885660Y1735365D01*
X21808320Y1767400D01*
X21709885Y1833173D01*
X21626173Y1916885D01*
X21560400Y2015320D01*
X21515096Y2124696D01*
X21492000Y2240805D01*
X21492000Y2359195D01*
X21515096Y2475304D01*
X21560400Y2584680D01*
X21626173Y2683115D01*
X21709885Y2766827D01*
X21808320Y2832600D01*
X21907954Y2873869D01*
X21917695Y2877904D01*
X21956399Y2885603D01*
X22033805Y2901000D01*
X22152195Y2901000D01*
X22229601Y2885603D01*
X22229601Y2885603D01*
G37*
G36*
X9255880Y6617314D02*
G01*
X9275994Y6613314D01*
X9280085Y6611619D01*
X9280093Y6611617D01*
X9289381Y6607770D01*
X9289390Y6607765D01*
X9293480Y6606071D01*
X9309192Y6595573D01*
X9310316Y6594449D01*
X9329258Y6578904D01*
X9350869Y6567353D01*
X9374318Y6560240D01*
X9398704Y6557838D01*
X9423090Y6560240D01*
X9446539Y6567353D01*
X9468150Y6578904D01*
X9487092Y6594449D01*
X9495331Y6603540D01*
X9499897Y6609104D01*
X9503669Y6612200D01*
X9507971Y6614499D01*
X9512645Y6615917D01*
X9523641Y6617000D01*
X9812359Y6617000D01*
X9823355Y6615917D01*
X9828029Y6614499D01*
X9832330Y6612200D01*
X9838702Y6606971D01*
X9859076Y6593357D01*
X9881715Y6583980D01*
X9905749Y6579200D01*
X9930253Y6579200D01*
X9954286Y6583981D01*
X9976925Y6593358D01*
X9997298Y6606971D01*
X10003670Y6612200D01*
X10007971Y6614499D01*
X10012645Y6615917D01*
X10023641Y6617000D01*
X10312359Y6617000D01*
X10323355Y6615917D01*
X10328029Y6614499D01*
X10332330Y6612200D01*
X10338702Y6606971D01*
X10359076Y6593357D01*
X10381715Y6583980D01*
X10405749Y6579200D01*
X10430253Y6579200D01*
X10454286Y6583981D01*
X10476925Y6593358D01*
X10497298Y6606971D01*
X10503670Y6612200D01*
X10507971Y6614499D01*
X10512645Y6615917D01*
X10523641Y6617000D01*
X10812359Y6617000D01*
X10823355Y6615917D01*
X10828029Y6614499D01*
X10832330Y6612200D01*
X10838702Y6606971D01*
X10859076Y6593357D01*
X10881715Y6583980D01*
X10905749Y6579200D01*
X10930253Y6579200D01*
X10954286Y6583981D01*
X10976925Y6593358D01*
X10997298Y6606971D01*
X11003670Y6612200D01*
X11007971Y6614499D01*
X11012645Y6615917D01*
X11023641Y6617000D01*
X11312359Y6617000D01*
X11323355Y6615917D01*
X11328029Y6614499D01*
X11332330Y6612200D01*
X11338702Y6606971D01*
X11359076Y6593357D01*
X11381715Y6583980D01*
X11405749Y6579200D01*
X11430253Y6579200D01*
X11454286Y6583981D01*
X11476925Y6593358D01*
X11497298Y6606971D01*
X11503670Y6612200D01*
X11507971Y6614499D01*
X11512645Y6615917D01*
X11523641Y6617000D01*
X11812359Y6617000D01*
X11823355Y6615917D01*
X11828029Y6614499D01*
X11832331Y6612200D01*
X11836103Y6609104D01*
X11840669Y6603540D01*
X11857996Y6586213D01*
X11878370Y6572599D01*
X11901008Y6563221D01*
X11925042Y6558440D01*
X11949546Y6558440D01*
X11973579Y6563220D01*
X11996218Y6572597D01*
X12016593Y6586210D01*
X12025684Y6594449D01*
X12026808Y6595573D01*
X12042520Y6606071D01*
X12046610Y6607765D01*
X12046619Y6607770D01*
X12055907Y6611617D01*
X12055915Y6611619D01*
X12060006Y6613314D01*
X12080120Y6617314D01*
X12091061Y6617852D01*
X12244939Y6617852D01*
X12255880Y6617314D01*
X12275994Y6613314D01*
X12280085Y6611619D01*
X12280093Y6611617D01*
X12289381Y6607770D01*
X12289390Y6607765D01*
X12293480Y6606071D01*
X12309192Y6595573D01*
X12322573Y6582192D01*
X12333071Y6566480D01*
X12334765Y6562390D01*
X12334770Y6562381D01*
X12338617Y6553093D01*
X12338619Y6553085D01*
X12340314Y6548994D01*
X12344314Y6528880D01*
X12344852Y6517939D01*
X12344852Y5992851D01*
X12347254Y5968465D01*
X12354367Y5945016D01*
X12365918Y5923405D01*
X12381463Y5904463D01*
X12400405Y5888918D01*
X12422016Y5877367D01*
X12445465Y5870254D01*
X12469851Y5867852D01*
X12994939Y5867852D01*
X13005880Y5867314D01*
X13025994Y5863314D01*
X13030085Y5861619D01*
X13030093Y5861617D01*
X13039381Y5857770D01*
X13039390Y5857765D01*
X13043480Y5856071D01*
X13059192Y5845573D01*
X13072573Y5832192D01*
X13083071Y5816480D01*
X13084765Y5812390D01*
X13084770Y5812381D01*
X13088617Y5803093D01*
X13088619Y5803085D01*
X13090314Y5798994D01*
X13094314Y5778880D01*
X13094852Y5767939D01*
X13094852Y5614061D01*
X13094314Y5603120D01*
X13090314Y5583006D01*
X13088619Y5578915D01*
X13088617Y5578907D01*
X13084770Y5569619D01*
X13084765Y5569610D01*
X13083071Y5565520D01*
X13072573Y5549808D01*
X13071449Y5548684D01*
X13055904Y5529742D01*
X13044353Y5508131D01*
X13037240Y5484682D01*
X13034838Y5460296D01*
X13037240Y5435910D01*
X13044353Y5412461D01*
X13055904Y5390850D01*
X13071449Y5371908D01*
X13080540Y5363669D01*
X13086104Y5359103D01*
X13089200Y5355331D01*
X13091499Y5351029D01*
X13092917Y5346355D01*
X13094000Y5335359D01*
X13094000Y5046641D01*
X13092917Y5035645D01*
X13091499Y5030971D01*
X13089200Y5026670D01*
X13083971Y5020298D01*
X13070357Y4999924D01*
X13060980Y4977285D01*
X13056200Y4953251D01*
X13056200Y4928747D01*
X13060981Y4904714D01*
X13070358Y4882075D01*
X13083971Y4861702D01*
X13089200Y4855330D01*
X13091499Y4851029D01*
X13092917Y4846355D01*
X13094000Y4835359D01*
X13094000Y4546641D01*
X13092917Y4535645D01*
X13091499Y4530971D01*
X13089200Y4526670D01*
X13083971Y4520298D01*
X13070357Y4499924D01*
X13060980Y4477285D01*
X13056200Y4453251D01*
X13056200Y4428747D01*
X13060981Y4404714D01*
X13070358Y4382075D01*
X13083971Y4361702D01*
X13089200Y4355330D01*
X13091499Y4351029D01*
X13092917Y4346355D01*
X13094000Y4335359D01*
X13094000Y4046641D01*
X13092917Y4035645D01*
X13091499Y4030971D01*
X13089200Y4026670D01*
X13083971Y4020298D01*
X13070357Y3999924D01*
X13060980Y3977285D01*
X13056200Y3953251D01*
X13056200Y3928747D01*
X13060981Y3904714D01*
X13070358Y3882075D01*
X13083971Y3861702D01*
X13089200Y3855330D01*
X13091499Y3851029D01*
X13092917Y3846355D01*
X13094000Y3835359D01*
X13094000Y3546641D01*
X13092917Y3535645D01*
X13091499Y3530971D01*
X13089200Y3526670D01*
X13083971Y3520298D01*
X13070357Y3499924D01*
X13060980Y3477285D01*
X13056200Y3453251D01*
X13056200Y3428747D01*
X13060981Y3404714D01*
X13070358Y3382075D01*
X13083971Y3361702D01*
X13089200Y3355330D01*
X13091499Y3351029D01*
X13092917Y3346355D01*
X13094000Y3335359D01*
X13094000Y3046641D01*
X13092917Y3035645D01*
X13091499Y3030971D01*
X13089200Y3026669D01*
X13086104Y3022897D01*
X13080540Y3018331D01*
X13063213Y3001004D01*
X13049599Y2980630D01*
X13040221Y2957992D01*
X13035440Y2933958D01*
X13035440Y2909454D01*
X13040220Y2885421D01*
X13049597Y2862782D01*
X13063210Y2842407D01*
X13071449Y2833316D01*
X13072573Y2832192D01*
X13083071Y2816480D01*
X13084765Y2812390D01*
X13084770Y2812381D01*
X13088617Y2803093D01*
X13088619Y2803085D01*
X13090314Y2798994D01*
X13094314Y2778880D01*
X13094852Y2767939D01*
X13094852Y2614061D01*
X13094314Y2603120D01*
X13090314Y2583006D01*
X13088619Y2578915D01*
X13088617Y2578907D01*
X13084770Y2569619D01*
X13084765Y2569610D01*
X13083071Y2565520D01*
X13072573Y2549808D01*
X13059192Y2536427D01*
X13043480Y2525929D01*
X13039390Y2524235D01*
X13039381Y2524230D01*
X13030093Y2520383D01*
X13030085Y2520381D01*
X13025994Y2518686D01*
X13005880Y2514686D01*
X12994939Y2514148D01*
X12469851Y2514148D01*
X12445465Y2511746D01*
X12422016Y2504633D01*
X12400405Y2493082D01*
X12381463Y2477537D01*
X12365918Y2458595D01*
X12354367Y2436984D01*
X12347254Y2413535D01*
X12344852Y2389149D01*
X12344852Y1864061D01*
X12344314Y1853120D01*
X12340314Y1833006D01*
X12338619Y1828915D01*
X12338617Y1828907D01*
X12334770Y1819619D01*
X12334765Y1819610D01*
X12333071Y1815520D01*
X12322573Y1799808D01*
X12309192Y1786427D01*
X12293480Y1775929D01*
X12289390Y1774235D01*
X12289381Y1774230D01*
X12280093Y1770383D01*
X12280085Y1770381D01*
X12275994Y1768686D01*
X12255880Y1764686D01*
X12244939Y1764148D01*
X12091061Y1764148D01*
X12080120Y1764686D01*
X12060006Y1768686D01*
X12055915Y1770381D01*
X12055907Y1770383D01*
X12046619Y1774230D01*
X12046610Y1774235D01*
X12042520Y1775929D01*
X12026808Y1786427D01*
X12025684Y1787551D01*
X12006742Y1803096D01*
X11985131Y1814647D01*
X11961682Y1821760D01*
X11937296Y1824162D01*
X11912910Y1821760D01*
X11889461Y1814647D01*
X11867850Y1803096D01*
X11848908Y1787551D01*
X11840669Y1778460D01*
X11836103Y1772896D01*
X11832331Y1769800D01*
X11828029Y1767501D01*
X11823355Y1766083D01*
X11812359Y1765000D01*
X11523641Y1765000D01*
X11512645Y1766083D01*
X11507971Y1767501D01*
X11503670Y1769800D01*
X11497298Y1775029D01*
X11476924Y1788643D01*
X11454285Y1798020D01*
X11430251Y1802800D01*
X11405747Y1802800D01*
X11381714Y1798019D01*
X11359075Y1788642D01*
X11338702Y1775029D01*
X11332330Y1769800D01*
X11328029Y1767501D01*
X11323355Y1766083D01*
X11312359Y1765000D01*
X11023641Y1765000D01*
X11012645Y1766083D01*
X11007971Y1767501D01*
X11003670Y1769800D01*
X10997298Y1775029D01*
X10976924Y1788643D01*
X10954285Y1798020D01*
X10930251Y1802800D01*
X10905747Y1802800D01*
X10881714Y1798019D01*
X10859075Y1788642D01*
X10838702Y1775029D01*
X10832330Y1769800D01*
X10828029Y1767501D01*
X10823355Y1766083D01*
X10812359Y1765000D01*
X10523641Y1765000D01*
X10512645Y1766083D01*
X10507971Y1767501D01*
X10503670Y1769800D01*
X10497298Y1775029D01*
X10476924Y1788643D01*
X10454285Y1798020D01*
X10430251Y1802800D01*
X10405747Y1802800D01*
X10381714Y1798019D01*
X10359075Y1788642D01*
X10338702Y1775029D01*
X10332330Y1769800D01*
X10328029Y1767501D01*
X10323355Y1766083D01*
X10312359Y1765000D01*
X10023641Y1765000D01*
X10012645Y1766083D01*
X10007971Y1767501D01*
X10003670Y1769800D01*
X9997298Y1775029D01*
X9976924Y1788643D01*
X9954285Y1798020D01*
X9930251Y1802800D01*
X9905747Y1802800D01*
X9881714Y1798019D01*
X9859075Y1788642D01*
X9838702Y1775029D01*
X9832330Y1769800D01*
X9828029Y1767501D01*
X9823355Y1766083D01*
X9812359Y1765000D01*
X9523641Y1765000D01*
X9512645Y1766083D01*
X9507971Y1767501D01*
X9503669Y1769800D01*
X9499897Y1772896D01*
X9495331Y1778460D01*
X9478004Y1795787D01*
X9457630Y1809401D01*
X9434992Y1818779D01*
X9410958Y1823560D01*
X9386454Y1823560D01*
X9362421Y1818780D01*
X9339782Y1809403D01*
X9319407Y1795790D01*
X9310316Y1787551D01*
X9309192Y1786427D01*
X9293480Y1775929D01*
X9289390Y1774235D01*
X9289381Y1774230D01*
X9280093Y1770383D01*
X9280085Y1770381D01*
X9275994Y1768686D01*
X9255880Y1764686D01*
X9244939Y1764148D01*
X9091061Y1764148D01*
X9080120Y1764686D01*
X9060006Y1768686D01*
X9055915Y1770381D01*
X9055907Y1770383D01*
X9046619Y1774230D01*
X9046610Y1774235D01*
X9042520Y1775929D01*
X9026808Y1786427D01*
X9013427Y1799808D01*
X9002929Y1815520D01*
X9001235Y1819610D01*
X9001230Y1819619D01*
X8997383Y1828907D01*
X8997381Y1828915D01*
X8995686Y1833006D01*
X8991686Y1853120D01*
X8991148Y1864061D01*
X8991148Y2389149D01*
X8988746Y2413535D01*
X8981633Y2436984D01*
X8970082Y2458595D01*
X8954537Y2477537D01*
X8935595Y2493082D01*
X8913984Y2504633D01*
X8890535Y2511746D01*
X8866149Y2514148D01*
X8341061Y2514148D01*
X8330120Y2514686D01*
X8310006Y2518686D01*
X8305915Y2520381D01*
X8305907Y2520383D01*
X8296619Y2524230D01*
X8296610Y2524235D01*
X8292520Y2525929D01*
X8276808Y2536427D01*
X8263427Y2549808D01*
X8252929Y2565520D01*
X8251235Y2569610D01*
X8251230Y2569619D01*
X8247383Y2578907D01*
X8247381Y2578915D01*
X8245686Y2583006D01*
X8241686Y2603120D01*
X8241148Y2614061D01*
X8241148Y2767939D01*
X8241686Y2778880D01*
X8245686Y2798994D01*
X8247381Y2803085D01*
X8247383Y2803093D01*
X8251230Y2812381D01*
X8251235Y2812390D01*
X8252929Y2816480D01*
X8263427Y2832192D01*
X8264551Y2833316D01*
X8280096Y2852258D01*
X8291647Y2873869D01*
X8298760Y2897318D01*
X8301162Y2921704D01*
X8298760Y2946090D01*
X8291647Y2969539D01*
X8280096Y2991150D01*
X8264551Y3010092D01*
X8255460Y3018331D01*
X8249896Y3022897D01*
X8246800Y3026669D01*
X8244501Y3030971D01*
X8243083Y3035645D01*
X8242000Y3046641D01*
X8242000Y3335359D01*
X8243083Y3346355D01*
X8244501Y3351029D01*
X8246800Y3355330D01*
X8252029Y3361702D01*
X8265643Y3382076D01*
X8275020Y3404715D01*
X8279800Y3428749D01*
X8279800Y3453253D01*
X8275019Y3477286D01*
X8265642Y3499925D01*
X8252029Y3520298D01*
X8246800Y3526670D01*
X8244501Y3530971D01*
X8243083Y3535645D01*
X8242000Y3546641D01*
X8242000Y3835359D01*
X8243083Y3846355D01*
X8244501Y3851029D01*
X8246800Y3855330D01*
X8252029Y3861702D01*
X8265643Y3882076D01*
X8275020Y3904715D01*
X8279800Y3928749D01*
X8279800Y3953253D01*
X8275019Y3977286D01*
X8265642Y3999925D01*
X8252029Y4020298D01*
X8246800Y4026670D01*
X8244501Y4030971D01*
X8243083Y4035645D01*
X8242000Y4046641D01*
X8242000Y4335359D01*
X8243083Y4346355D01*
X8244501Y4351029D01*
X8246800Y4355330D01*
X8252029Y4361702D01*
X8265643Y4382076D01*
X8275020Y4404715D01*
X8279800Y4428749D01*
X8279800Y4453253D01*
X8275019Y4477286D01*
X8265642Y4499925D01*
X8252029Y4520298D01*
X8246800Y4526670D01*
X8244501Y4530971D01*
X8243083Y4535645D01*
X8242000Y4546641D01*
X8242000Y4835359D01*
X8243083Y4846355D01*
X8244501Y4851029D01*
X8246800Y4855330D01*
X8252029Y4861702D01*
X8265643Y4882076D01*
X8275020Y4904715D01*
X8279800Y4928749D01*
X8279800Y4953253D01*
X8275019Y4977286D01*
X8265642Y4999925D01*
X8252029Y5020298D01*
X8246800Y5026670D01*
X8244501Y5030971D01*
X8243083Y5035645D01*
X8242000Y5046641D01*
X8242000Y5335359D01*
X8243083Y5346355D01*
X8244501Y5351029D01*
X8246800Y5355331D01*
X8249896Y5359103D01*
X8255460Y5363669D01*
X8272787Y5380996D01*
X8286401Y5401370D01*
X8295779Y5424008D01*
X8300560Y5448042D01*
X8300560Y5472546D01*
X8296692Y5491996D01*
X9064282Y5491996D01*
X9066684Y5467610D01*
X9073798Y5444161D01*
X9085350Y5422551D01*
X9100896Y5403609D01*
X9119838Y5388064D01*
X9141449Y5376514D01*
X9164898Y5369401D01*
X9181265Y5367789D01*
X9181247Y5367602D01*
X9198355Y5365917D01*
X9203029Y5364499D01*
X9207331Y5362200D01*
X9211104Y5359104D01*
X9214200Y5355331D01*
X9216499Y5351029D01*
X9217917Y5346355D01*
X9219000Y5335359D01*
X9219000Y5046641D01*
X9217917Y5035645D01*
X9216499Y5030971D01*
X9214200Y5026670D01*
X9208971Y5020298D01*
X9195357Y4999924D01*
X9185980Y4977285D01*
X9181200Y4953251D01*
X9181200Y4928747D01*
X9185981Y4904714D01*
X9195358Y4882075D01*
X9208971Y4861702D01*
X9214200Y4855330D01*
X9216499Y4851029D01*
X9217917Y4846355D01*
X9219000Y4835359D01*
X9219000Y4546641D01*
X9217917Y4535645D01*
X9216499Y4530971D01*
X9214200Y4526670D01*
X9208971Y4520298D01*
X9195357Y4499924D01*
X9185980Y4477285D01*
X9181200Y4453251D01*
X9181200Y4428747D01*
X9185981Y4404714D01*
X9195358Y4382075D01*
X9208971Y4361702D01*
X9214200Y4355330D01*
X9216499Y4351029D01*
X9217917Y4346355D01*
X9219000Y4335359D01*
X9219000Y4046641D01*
X9217917Y4035645D01*
X9216499Y4030971D01*
X9214200Y4026670D01*
X9208971Y4020298D01*
X9195357Y3999924D01*
X9185980Y3977285D01*
X9181200Y3953251D01*
X9181200Y3928747D01*
X9185981Y3904714D01*
X9195358Y3882075D01*
X9208971Y3861702D01*
X9214200Y3855330D01*
X9216499Y3851029D01*
X9217917Y3846355D01*
X9219000Y3835359D01*
X9219000Y3546641D01*
X9217917Y3535645D01*
X9216499Y3530971D01*
X9214200Y3526670D01*
X9208971Y3520298D01*
X9195357Y3499924D01*
X9185980Y3477285D01*
X9181200Y3453251D01*
X9181200Y3428747D01*
X9185981Y3404714D01*
X9195358Y3382075D01*
X9208971Y3361702D01*
X9214200Y3355330D01*
X9216499Y3351029D01*
X9217917Y3346355D01*
X9219000Y3335359D01*
X9219000Y3046641D01*
X9217917Y3035645D01*
X9216499Y3030971D01*
X9214200Y3026669D01*
X9211104Y3022896D01*
X9207331Y3019800D01*
X9203029Y3017501D01*
X9198355Y3016083D01*
X9181247Y3014398D01*
X9181265Y3014210D01*
X9164895Y3012598D01*
X9141446Y3005485D01*
X9119835Y2993934D01*
X9100893Y2978389D01*
X9085348Y2959447D01*
X9073797Y2937836D01*
X9066684Y2914387D01*
X9064282Y2890001D01*
X9066684Y2865615D01*
X9073797Y2842166D01*
X9085346Y2820558D01*
X9088072Y2816478D01*
X9089766Y2812389D01*
X9089770Y2812381D01*
X9093617Y2803093D01*
X9093619Y2803085D01*
X9095314Y2798994D01*
X9099314Y2778880D01*
X9099852Y2767939D01*
X9099852Y2747851D01*
X9102254Y2723465D01*
X9109367Y2700016D01*
X9120918Y2678405D01*
X9136463Y2659463D01*
X9155405Y2643918D01*
X9177016Y2632367D01*
X9200465Y2625254D01*
X9224851Y2622852D01*
X9244939Y2622852D01*
X9255880Y2622314D01*
X9275994Y2618314D01*
X9280085Y2616619D01*
X9280093Y2616617D01*
X9289381Y2612770D01*
X9289389Y2612766D01*
X9293478Y2611072D01*
X9297558Y2608346D01*
X9319169Y2596796D01*
X9342618Y2589683D01*
X9367004Y2587282D01*
X9391390Y2589684D01*
X9414839Y2596798D01*
X9436449Y2608350D01*
X9455391Y2623896D01*
X9470936Y2642838D01*
X9482486Y2664449D01*
X9489599Y2687898D01*
X9491211Y2704265D01*
X9491398Y2704247D01*
X9493083Y2721355D01*
X9494501Y2726029D01*
X9496800Y2730331D01*
X9499896Y2734104D01*
X9503669Y2737200D01*
X9507971Y2739499D01*
X9512645Y2740917D01*
X9523641Y2742000D01*
X9812359Y2742000D01*
X9823355Y2740917D01*
X9828029Y2739499D01*
X9832330Y2737200D01*
X9838702Y2731971D01*
X9859076Y2718357D01*
X9881715Y2708980D01*
X9905749Y2704200D01*
X9930253Y2704200D01*
X9954286Y2708981D01*
X9976925Y2718358D01*
X9997298Y2731971D01*
X10003670Y2737200D01*
X10007971Y2739499D01*
X10012645Y2740917D01*
X10023641Y2742000D01*
X10312359Y2742000D01*
X10323355Y2740917D01*
X10328029Y2739499D01*
X10332330Y2737200D01*
X10338702Y2731971D01*
X10359076Y2718357D01*
X10381715Y2708980D01*
X10405749Y2704200D01*
X10430253Y2704200D01*
X10454286Y2708981D01*
X10476925Y2718358D01*
X10497298Y2731971D01*
X10503670Y2737200D01*
X10507971Y2739499D01*
X10512645Y2740917D01*
X10523641Y2742000D01*
X10812359Y2742000D01*
X10823355Y2740917D01*
X10828029Y2739499D01*
X10832330Y2737200D01*
X10838702Y2731971D01*
X10859076Y2718357D01*
X10881715Y2708980D01*
X10905749Y2704200D01*
X10930253Y2704200D01*
X10954286Y2708981D01*
X10976925Y2718358D01*
X10997298Y2731971D01*
X11003670Y2737200D01*
X11007971Y2739499D01*
X11012645Y2740917D01*
X11023641Y2742000D01*
X11312359Y2742000D01*
X11323355Y2740917D01*
X11328029Y2739499D01*
X11332330Y2737200D01*
X11338702Y2731971D01*
X11359076Y2718357D01*
X11381715Y2708980D01*
X11405749Y2704200D01*
X11430253Y2704200D01*
X11454286Y2708981D01*
X11476925Y2718358D01*
X11497298Y2731971D01*
X11503670Y2737200D01*
X11507971Y2739499D01*
X11512645Y2740917D01*
X11523641Y2742000D01*
X11812359Y2742000D01*
X11823355Y2740917D01*
X11828029Y2739499D01*
X11832331Y2737200D01*
X11836104Y2734104D01*
X11839200Y2730331D01*
X11841499Y2726029D01*
X11842917Y2721355D01*
X11844602Y2704247D01*
X11844790Y2704265D01*
X11846402Y2687895D01*
X11853515Y2664446D01*
X11865066Y2642835D01*
X11880611Y2623893D01*
X11899553Y2608348D01*
X11921164Y2596797D01*
X11944613Y2589684D01*
X11968999Y2587282D01*
X11993385Y2589684D01*
X12016834Y2596797D01*
X12038442Y2608346D01*
X12042522Y2611072D01*
X12046611Y2612766D01*
X12046619Y2612770D01*
X12055907Y2616617D01*
X12055915Y2616619D01*
X12060006Y2618314D01*
X12080120Y2622314D01*
X12091061Y2622852D01*
X12111149Y2622852D01*
X12135535Y2625254D01*
X12158984Y2632367D01*
X12180595Y2643918D01*
X12199537Y2659463D01*
X12215082Y2678405D01*
X12226633Y2700016D01*
X12233746Y2723465D01*
X12236148Y2747851D01*
X12236148Y2767939D01*
X12236686Y2778880D01*
X12240686Y2798994D01*
X12242381Y2803085D01*
X12242383Y2803093D01*
X12246230Y2812381D01*
X12246234Y2812389D01*
X12247928Y2816478D01*
X12250654Y2820558D01*
X12262204Y2842169D01*
X12269317Y2865618D01*
X12271718Y2890004D01*
X12269316Y2914390D01*
X12262202Y2937839D01*
X12250650Y2959449D01*
X12235104Y2978391D01*
X12216162Y2993936D01*
X12194551Y3005486D01*
X12171102Y3012599D01*
X12154735Y3014211D01*
X12154753Y3014398D01*
X12137645Y3016083D01*
X12132971Y3017501D01*
X12128669Y3019800D01*
X12124896Y3022896D01*
X12121800Y3026669D01*
X12119501Y3030971D01*
X12118083Y3035645D01*
X12117000Y3046641D01*
X12117000Y3335359D01*
X12118083Y3346355D01*
X12119501Y3351029D01*
X12121800Y3355330D01*
X12127029Y3361702D01*
X12140643Y3382076D01*
X12150020Y3404715D01*
X12154800Y3428749D01*
X12154800Y3453253D01*
X12150019Y3477286D01*
X12140642Y3499925D01*
X12127029Y3520298D01*
X12121800Y3526670D01*
X12119501Y3530971D01*
X12118083Y3535645D01*
X12117000Y3546641D01*
X12117000Y3835359D01*
X12118083Y3846355D01*
X12119501Y3851029D01*
X12121800Y3855330D01*
X12127029Y3861702D01*
X12140643Y3882076D01*
X12150020Y3904715D01*
X12154800Y3928749D01*
X12154800Y3953253D01*
X12150019Y3977286D01*
X12140642Y3999925D01*
X12127029Y4020298D01*
X12121800Y4026670D01*
X12119501Y4030971D01*
X12118083Y4035645D01*
X12117000Y4046641D01*
X12117000Y4335359D01*
X12118083Y4346355D01*
X12119501Y4351029D01*
X12121800Y4355330D01*
X12127029Y4361702D01*
X12140643Y4382076D01*
X12150020Y4404715D01*
X12154800Y4428749D01*
X12154800Y4453253D01*
X12150019Y4477286D01*
X12140642Y4499925D01*
X12127029Y4520298D01*
X12121800Y4526670D01*
X12119501Y4530971D01*
X12118083Y4535645D01*
X12117000Y4546641D01*
X12117000Y4835359D01*
X12118083Y4846355D01*
X12119501Y4851029D01*
X12121800Y4855330D01*
X12127029Y4861702D01*
X12140643Y4882076D01*
X12150020Y4904715D01*
X12154800Y4928749D01*
X12154800Y4953253D01*
X12150019Y4977286D01*
X12140642Y4999925D01*
X12127029Y5020298D01*
X12121800Y5026670D01*
X12119501Y5030971D01*
X12118083Y5035645D01*
X12117000Y5046641D01*
X12117000Y5335359D01*
X12118083Y5346355D01*
X12119501Y5351029D01*
X12121800Y5355331D01*
X12124896Y5359104D01*
X12128669Y5362200D01*
X12132971Y5364499D01*
X12137645Y5365917D01*
X12154753Y5367602D01*
X12154735Y5367790D01*
X12171105Y5369402D01*
X12194554Y5376515D01*
X12216165Y5388066D01*
X12235107Y5403611D01*
X12250652Y5422553D01*
X12262203Y5444164D01*
X12269316Y5467613D01*
X12271718Y5491999D01*
X12269316Y5516385D01*
X12262203Y5539834D01*
X12250654Y5561442D01*
X12247928Y5565522D01*
X12246234Y5569611D01*
X12246230Y5569619D01*
X12242383Y5578907D01*
X12242381Y5578915D01*
X12240686Y5583006D01*
X12236686Y5603120D01*
X12236148Y5614061D01*
X12236148Y5634149D01*
X12233746Y5658535D01*
X12226633Y5681984D01*
X12215082Y5703595D01*
X12199537Y5722537D01*
X12180595Y5738082D01*
X12158984Y5749633D01*
X12135535Y5756746D01*
X12111149Y5759148D01*
X12091061Y5759148D01*
X12080120Y5759686D01*
X12060006Y5763686D01*
X12055915Y5765381D01*
X12055907Y5765383D01*
X12046619Y5769230D01*
X12046611Y5769234D01*
X12042522Y5770928D01*
X12038442Y5773654D01*
X12016831Y5785204D01*
X11993382Y5792317D01*
X11968996Y5794718D01*
X11944610Y5792316D01*
X11921161Y5785202D01*
X11899551Y5773650D01*
X11880609Y5758104D01*
X11865064Y5739162D01*
X11853514Y5717551D01*
X11846401Y5694102D01*
X11844789Y5677735D01*
X11844602Y5677753D01*
X11842917Y5660645D01*
X11841499Y5655971D01*
X11839200Y5651669D01*
X11836104Y5647896D01*
X11832331Y5644800D01*
X11828029Y5642501D01*
X11823355Y5641083D01*
X11812359Y5640000D01*
X11523641Y5640000D01*
X11512645Y5641083D01*
X11507971Y5642501D01*
X11503670Y5644800D01*
X11497298Y5650029D01*
X11476924Y5663643D01*
X11454285Y5673020D01*
X11430251Y5677800D01*
X11405747Y5677800D01*
X11381714Y5673019D01*
X11359075Y5663642D01*
X11338702Y5650029D01*
X11332330Y5644800D01*
X11328029Y5642501D01*
X11323355Y5641083D01*
X11312359Y5640000D01*
X11023641Y5640000D01*
X11012645Y5641083D01*
X11007971Y5642501D01*
X11003670Y5644800D01*
X10997298Y5650029D01*
X10976924Y5663643D01*
X10954285Y5673020D01*
X10930251Y5677800D01*
X10905747Y5677800D01*
X10881714Y5673019D01*
X10859075Y5663642D01*
X10838702Y5650029D01*
X10832330Y5644800D01*
X10828029Y5642501D01*
X10823355Y5641083D01*
X10812359Y5640000D01*
X10523641Y5640000D01*
X10512645Y5641083D01*
X10507971Y5642501D01*
X10503670Y5644800D01*
X10497298Y5650029D01*
X10476924Y5663643D01*
X10454285Y5673020D01*
X10430251Y5677800D01*
X10405747Y5677800D01*
X10381714Y5673019D01*
X10359075Y5663642D01*
X10338702Y5650029D01*
X10332330Y5644800D01*
X10328029Y5642501D01*
X10323355Y5641083D01*
X10312359Y5640000D01*
X10023641Y5640000D01*
X10012645Y5641083D01*
X10007971Y5642501D01*
X10003670Y5644800D01*
X9997298Y5650029D01*
X9976924Y5663643D01*
X9954285Y5673020D01*
X9930251Y5677800D01*
X9905747Y5677800D01*
X9881714Y5673019D01*
X9859075Y5663642D01*
X9838702Y5650029D01*
X9832330Y5644800D01*
X9828029Y5642501D01*
X9823355Y5641083D01*
X9812359Y5640000D01*
X9523641Y5640000D01*
X9512645Y5641083D01*
X9507971Y5642501D01*
X9503669Y5644800D01*
X9499896Y5647896D01*
X9496800Y5651669D01*
X9494501Y5655971D01*
X9493083Y5660645D01*
X9491398Y5677753D01*
X9491210Y5677735D01*
X9489598Y5694105D01*
X9482485Y5717554D01*
X9470934Y5739165D01*
X9455389Y5758107D01*
X9436447Y5773652D01*
X9414836Y5785203D01*
X9391387Y5792316D01*
X9367001Y5794718D01*
X9342615Y5792316D01*
X9319166Y5785203D01*
X9297558Y5773654D01*
X9293478Y5770928D01*
X9289389Y5769234D01*
X9289381Y5769230D01*
X9280093Y5765383D01*
X9280085Y5765381D01*
X9275994Y5763686D01*
X9255880Y5759686D01*
X9244939Y5759148D01*
X9224851Y5759148D01*
X9200465Y5756746D01*
X9177016Y5749633D01*
X9155405Y5738082D01*
X9136463Y5722537D01*
X9120918Y5703595D01*
X9109367Y5681984D01*
X9102254Y5658535D01*
X9099852Y5634149D01*
X9099852Y5614061D01*
X9099314Y5603120D01*
X9095314Y5583006D01*
X9093619Y5578915D01*
X9093617Y5578907D01*
X9089770Y5569619D01*
X9089766Y5569611D01*
X9088072Y5565522D01*
X9085346Y5561442D01*
X9073796Y5539831D01*
X9066683Y5516382D01*
X9064282Y5491996D01*
X8296692Y5491996D01*
X8295780Y5496579D01*
X8286403Y5519218D01*
X8272790Y5539593D01*
X8264551Y5548684D01*
X8263427Y5549808D01*
X8252929Y5565520D01*
X8251235Y5569610D01*
X8251230Y5569619D01*
X8247383Y5578907D01*
X8247381Y5578915D01*
X8245686Y5583006D01*
X8241686Y5603120D01*
X8241148Y5614061D01*
X8241148Y5767939D01*
X8241686Y5778880D01*
X8245686Y5798994D01*
X8247381Y5803085D01*
X8247383Y5803093D01*
X8251230Y5812381D01*
X8251235Y5812390D01*
X8252929Y5816480D01*
X8263427Y5832192D01*
X8276808Y5845573D01*
X8292520Y5856071D01*
X8296610Y5857765D01*
X8296619Y5857770D01*
X8305907Y5861617D01*
X8305915Y5861619D01*
X8310006Y5863314D01*
X8330120Y5867314D01*
X8341061Y5867852D01*
X8866149Y5867852D01*
X8890535Y5870254D01*
X8913984Y5877367D01*
X8935595Y5888918D01*
X8954537Y5904463D01*
X8970082Y5923405D01*
X8981633Y5945016D01*
X8988746Y5968465D01*
X8991148Y5992851D01*
X8991148Y6517939D01*
X8991686Y6528880D01*
X8995686Y6548994D01*
X8997381Y6553085D01*
X8997383Y6553093D01*
X9001230Y6562381D01*
X9001235Y6562390D01*
X9002929Y6566480D01*
X9013427Y6582192D01*
X9026808Y6595573D01*
X9042520Y6606071D01*
X9046610Y6607765D01*
X9046619Y6607770D01*
X9055907Y6611617D01*
X9055915Y6611619D01*
X9060006Y6613314D01*
X9080120Y6617314D01*
X9091061Y6617852D01*
X9244939Y6617852D01*
X9255880Y6617314D01*
X9255880Y6617314D01*
G37*
G36*
X3569000Y1795667D02*
G01*
X-13000Y1795667D01*
X-13000Y3744333D01*
X3569000Y3744333D01*
X3569000Y1795667D01*
X3569000Y1795667D01*
G37*
G36*
X7536000Y3513000D02*
G01*
X7307735Y3513000D01*
X7283349Y3510598D01*
X7259900Y3503485D01*
X7238289Y3491934D01*
X7219347Y3476389D01*
X7203802Y3457447D01*
X7192251Y3435836D01*
X7185138Y3412387D01*
X7182736Y3388001D01*
X7185138Y3363615D01*
X7192251Y3340166D01*
X7203802Y3318555D01*
X7219347Y3299613D01*
X7238289Y3284068D01*
X7248802Y3277767D01*
X7292600Y3254356D01*
X7292602Y3254355D01*
X7292601Y3254355D01*
X7376501Y3185501D01*
X7445357Y3101600D01*
X7474733Y3046641D01*
X7496521Y3005879D01*
X7528027Y2902015D01*
X7538666Y2794000D01*
X7528027Y2685985D01*
X7496521Y2582121D01*
X7481995Y2554945D01*
X7445357Y2486400D01*
X7376501Y2402499D01*
X7292600Y2333643D01*
X7224055Y2297005D01*
X7196879Y2282479D01*
X7093015Y2250973D01*
X7012067Y2243000D01*
X6957933Y2243000D01*
X6876985Y2250973D01*
X6773121Y2282479D01*
X6745945Y2297005D01*
X6677400Y2333643D01*
X6593499Y2402499D01*
X6524643Y2486400D01*
X6488005Y2554945D01*
X6473479Y2582121D01*
X6441973Y2685985D01*
X6431334Y2794000D01*
X6441973Y2902015D01*
X6473479Y3005879D01*
X6495267Y3046641D01*
X6524643Y3101600D01*
X6593499Y3185501D01*
X6677399Y3254355D01*
X6677398Y3254355D01*
X6677400Y3254356D01*
X6721193Y3277764D01*
X6741563Y3291375D01*
X6758890Y3308702D01*
X6772504Y3329076D01*
X6781881Y3351715D01*
X6786662Y3375748D01*
X6786662Y3400252D01*
X6781882Y3424286D01*
X6772505Y3446924D01*
X6758891Y3467299D01*
X6741564Y3484626D01*
X6721190Y3498240D01*
X6698551Y3507617D01*
X6674518Y3512398D01*
X6662265Y3513000D01*
X6434000Y3513000D01*
X6434000Y4615000D01*
X7536000Y4615000D01*
X7536000Y3513000D01*
X7536000Y3513000D01*
G37*
G36*
X20644000Y2899000D02*
G01*
X18542000Y2899000D01*
X18542000Y4101000D01*
X20644000Y4101000D01*
X20644000Y2899000D01*
X20644000Y2899000D01*
G37*
G36*
X15828674Y4313535D02*
G01*
X15866367Y4302101D01*
X15901103Y4283534D01*
X15931548Y4258548D01*
X15956534Y4228103D01*
X15975101Y4193367D01*
X15986535Y4155674D01*
X15991000Y4110339D01*
X15991000Y3273661D01*
X15986535Y3228326D01*
X15975101Y3190633D01*
X15956534Y3155897D01*
X15931548Y3125452D01*
X15901103Y3100466D01*
X15866367Y3081899D01*
X15828674Y3070465D01*
X15783339Y3066000D01*
X14696661Y3066000D01*
X14651326Y3070465D01*
X14613633Y3081899D01*
X14578897Y3100466D01*
X14548452Y3125452D01*
X14523466Y3155897D01*
X14504899Y3190633D01*
X14493465Y3228326D01*
X14489000Y3273661D01*
X14489000Y4110339D01*
X14493465Y4155674D01*
X14504899Y4193367D01*
X14523466Y4228103D01*
X14548452Y4258548D01*
X14578897Y4283534D01*
X14613633Y4302101D01*
X14651326Y4313535D01*
X14696661Y4318000D01*
X15783339Y4318000D01*
X15828674Y4313535D01*
X15828674Y4313535D01*
G37*
G36*
X3569000Y4565667D02*
G01*
X-13000Y4565667D01*
X-13000Y6514333D01*
X3569000Y6514333D01*
X3569000Y4565667D01*
X3569000Y4565667D01*
G37*
G36*
X23459823Y6688687D02*
G01*
X23620242Y6640024D01*
X23736486Y6577890D01*
X23768078Y6561004D01*
X23897659Y6454659D01*
X24004004Y6325078D01*
X24004005Y6325076D01*
X24083024Y6177242D01*
X24131687Y6016823D01*
X24148117Y5850000D01*
X24131687Y5683177D01*
X24083024Y5522758D01*
X24019337Y5403609D01*
X24004004Y5374922D01*
X23897659Y5245341D01*
X23768078Y5138996D01*
X23768076Y5138995D01*
X23620242Y5059976D01*
X23459823Y5011313D01*
X23334804Y4999000D01*
X20851196Y4999000D01*
X20726177Y5011313D01*
X20565758Y5059976D01*
X20417924Y5138995D01*
X20417922Y5138996D01*
X20288341Y5245341D01*
X20181996Y5374922D01*
X20166663Y5403609D01*
X20102976Y5522758D01*
X20054313Y5683177D01*
X20037883Y5850000D01*
X20054313Y6016823D01*
X20102976Y6177242D01*
X20181995Y6325076D01*
X20181996Y6325078D01*
X20288341Y6454659D01*
X20417922Y6561004D01*
X20449514Y6577890D01*
X20565758Y6640024D01*
X20726177Y6688687D01*
X20851196Y6701000D01*
X23334804Y6701000D01*
X23459823Y6688687D01*
X23459823Y6688687D01*
G37*
G36*
X14521000Y7180735D02*
G01*
X14523402Y7156349D01*
X14530515Y7132900D01*
X14542066Y7111289D01*
X14557611Y7092347D01*
X14576553Y7076802D01*
X14598164Y7065251D01*
X14621613Y7058138D01*
X14645999Y7055736D01*
X14670385Y7058138D01*
X14693834Y7065251D01*
X14715445Y7076802D01*
X14734387Y7092347D01*
X14749932Y7111289D01*
X14756233Y7121802D01*
X14779644Y7165600D01*
X14848499Y7249501D01*
X14932400Y7318357D01*
X15000945Y7354995D01*
X15028121Y7369521D01*
X15131985Y7401027D01*
X15212933Y7409000D01*
X15267067Y7409000D01*
X15348015Y7401027D01*
X15451879Y7369521D01*
X15479055Y7354995D01*
X15547600Y7318357D01*
X15631501Y7249501D01*
X15700357Y7165600D01*
X15736995Y7097055D01*
X15751521Y7069879D01*
X15783027Y6966015D01*
X15793666Y6858000D01*
X15783027Y6749985D01*
X15751521Y6646121D01*
X15748262Y6640024D01*
X15700357Y6550400D01*
X15631501Y6466499D01*
X15547600Y6397643D01*
X15479055Y6361005D01*
X15451879Y6346479D01*
X15348015Y6314973D01*
X15267067Y6307000D01*
X15212933Y6307000D01*
X15131985Y6314973D01*
X15028121Y6346479D01*
X15000945Y6361005D01*
X14932400Y6397643D01*
X14848499Y6466499D01*
X14779645Y6550399D01*
X14778205Y6553093D01*
X14756236Y6594193D01*
X14742625Y6614563D01*
X14725298Y6631890D01*
X14704924Y6645504D01*
X14682285Y6654881D01*
X14658252Y6659662D01*
X14633748Y6659662D01*
X14609714Y6654882D01*
X14587076Y6645505D01*
X14566701Y6631891D01*
X14549374Y6614564D01*
X14535760Y6594190D01*
X14526383Y6571551D01*
X14521602Y6547518D01*
X14521000Y6535265D01*
X14521000Y6307000D01*
X13419000Y6307000D01*
X13419000Y7409000D01*
X14521000Y7409000D01*
X14521000Y7180735D01*
X14521000Y7180735D01*
G37*
M02*
