G04 #@! TF.GenerationSoftware,KiCad,Pcbnew,(5.1.4)-1*
G04 #@! TF.CreationDate,2019-09-27T16:29:42+02:00*
G04 #@! TF.ProjectId,JoyAdapter,4a6f7941-6461-4707-9465-722e6b696361,rev?*
G04 #@! TF.SameCoordinates,Original*
G04 #@! TF.FileFunction,Copper,L2,Bot*
G04 #@! TF.FilePolarity,Positive*
%FSLAX46Y46*%
G04 Gerber Fmt 4.6, Leading zero omitted, Abs format (unit mm)*
G04 Created by KiCad (PCBNEW (5.1.4)-1) date 2019-09-27 16:29:42*
%MOMM*%
%LPD*%
G04 APERTURE LIST*
%ADD10O,1.000000X1.000000*%
%ADD11R,1.000000X1.000000*%
%ADD12R,3.480000X1.846667*%
%ADD13O,4.000000X1.600000*%
%ADD14C,1.800000*%
%ADD15R,1.800000X1.800000*%
%ADD16C,0.800000*%
%ADD17C,0.508000*%
%ADD18C,0.400000*%
%ADD19C,0.203200*%
G04 APERTURE END LIST*
D10*
X6985000Y2794000D03*
D11*
X6985000Y4064000D03*
D10*
X15240000Y6858000D03*
D11*
X13970000Y6858000D03*
D12*
X1778000Y-4155000D03*
X1778000Y-1385000D03*
X1778000Y1385000D03*
X1778000Y4155000D03*
D13*
X22093000Y-5850000D03*
X22093000Y5850000D03*
D14*
X8763000Y0D03*
D15*
X6223000Y0D03*
D16*
X12293600Y-2336800D03*
D17*
X13655800Y3191000D03*
X4800600Y-5740400D03*
D16*
X18669000Y5054600D03*
X15468600Y-3556000D03*
X9042400Y-2209800D03*
D17*
X9093200Y-5715000D03*
X10269600Y3691000D03*
X3873500Y-4127502D03*
X10676002Y7086590D03*
X17449800Y1524012D03*
X17475654Y507988D03*
D18*
X15468600Y-3556000D02*
X17881600Y-3556000D01*
X18669000Y-2768600D02*
X18669000Y5054600D01*
X17881600Y-3556000D02*
X18669000Y-2768600D01*
X4872999Y-893333D02*
X4872999Y-1260001D01*
X2594666Y1385000D02*
X4872999Y-893333D01*
X8476715Y-2209800D02*
X9042400Y-2209800D01*
X1778000Y1385000D02*
X2594666Y1385000D01*
X5822798Y-2209800D02*
X8476715Y-2209800D01*
X4872999Y-1260001D02*
X5822798Y-2209800D01*
X10269600Y-4538600D02*
X9093200Y-5715000D01*
X10269600Y3691000D02*
X10269600Y-4538600D01*
D19*
X1778000Y-4155000D02*
X3846002Y-4155000D01*
X3846002Y-4155000D02*
X3873500Y-4127502D01*
X4267190Y7086590D02*
X10676002Y7086590D01*
X2717790Y7086590D02*
X4267190Y7086590D01*
X1778000Y4155000D02*
X1778000Y6146800D01*
X1778000Y6146800D02*
X2717790Y7086590D01*
X17449800Y1524012D02*
X17449800Y533842D01*
X17449800Y533842D02*
X17475654Y507988D01*
G36*
X13181242Y7646758D02*
G01*
X13130456Y7584876D01*
X13092719Y7514275D01*
X13069481Y7437668D01*
X13061634Y7358000D01*
X13061634Y6358000D01*
X13069481Y6278332D01*
X13092719Y6201725D01*
X13130456Y6131124D01*
X13181242Y6069242D01*
X13243124Y6018456D01*
X13313725Y5980719D01*
X13390332Y5957481D01*
X13470000Y5949634D01*
X14470000Y5949634D01*
X14549668Y5957481D01*
X14626275Y5980719D01*
X14696876Y6018456D01*
X14758758Y6069242D01*
X14769158Y6081915D01*
X14891458Y6016544D01*
X15062315Y5964715D01*
X15195477Y5951600D01*
X15284523Y5951600D01*
X15417685Y5964715D01*
X15588542Y6016544D01*
X15746005Y6100710D01*
X15884022Y6213978D01*
X15997290Y6351995D01*
X16081456Y6509458D01*
X16133285Y6680315D01*
X16150785Y6858000D01*
X16133285Y7035685D01*
X16081456Y7206542D01*
X15997290Y7364005D01*
X15884022Y7502022D01*
X15746005Y7615290D01*
X15593885Y7696600D01*
X17363301Y7696600D01*
X21204501Y7056400D01*
X20867600Y7056400D01*
X20632731Y7028264D01*
X20407864Y6954848D01*
X20201641Y6838973D01*
X20021986Y6685093D01*
X19875804Y6499121D01*
X19768712Y6288203D01*
X19705690Y6063768D01*
X19788492Y5875400D01*
X22067600Y5875400D01*
X22067600Y5895400D01*
X22118400Y5895400D01*
X22118400Y5875400D01*
X24397508Y5875400D01*
X24480310Y6063768D01*
X24417288Y6288203D01*
X24310196Y6499121D01*
X24274319Y6544764D01*
X24587600Y6492550D01*
X24587601Y-6492550D01*
X24274319Y-6544764D01*
X24310196Y-6499121D01*
X24417288Y-6288203D01*
X24480310Y-6063768D01*
X24397508Y-5875400D01*
X22118400Y-5875400D01*
X22118400Y-5895400D01*
X22067600Y-5895400D01*
X22067600Y-5875400D01*
X19788492Y-5875400D01*
X19705690Y-6063768D01*
X19768712Y-6288203D01*
X19875804Y-6499121D01*
X20021986Y-6685093D01*
X20201641Y-6838973D01*
X20407864Y-6954848D01*
X20632731Y-7028264D01*
X20867600Y-7056400D01*
X21204501Y-7056400D01*
X17363301Y-7696600D01*
X431400Y-7696600D01*
X431400Y-5486699D01*
X3518000Y-5486699D01*
X3597668Y-5478852D01*
X3674275Y-5455614D01*
X3744876Y-5417877D01*
X3806758Y-5367091D01*
X3857544Y-5305209D01*
X3895281Y-5234608D01*
X3918519Y-5158001D01*
X3926366Y-5078333D01*
X3926366Y-4787902D01*
X3938544Y-4787902D01*
X4066131Y-4762523D01*
X4186317Y-4712741D01*
X4294480Y-4640468D01*
X4386466Y-4548482D01*
X4458739Y-4440319D01*
X4508521Y-4320133D01*
X4533900Y-4192546D01*
X4533900Y-4062458D01*
X4508521Y-3934871D01*
X4458739Y-3814685D01*
X4386466Y-3706522D01*
X4294480Y-3614536D01*
X4186317Y-3542263D01*
X4066131Y-3492481D01*
X3938544Y-3467102D01*
X3926366Y-3467102D01*
X3926366Y-3231667D01*
X3918519Y-3151999D01*
X3895281Y-3075392D01*
X3857544Y-3004791D01*
X3806758Y-2942909D01*
X3744876Y-2892123D01*
X3674275Y-2854386D01*
X3597668Y-2831148D01*
X3518000Y-2823301D01*
X431400Y-2823301D01*
X431400Y-2716220D01*
X1651000Y-2714733D01*
X1752600Y-2613133D01*
X1752600Y-1410400D01*
X1803400Y-1410400D01*
X1803400Y-2613133D01*
X1905000Y-2714733D01*
X3518000Y-2716699D01*
X3597668Y-2708852D01*
X3674275Y-2685614D01*
X3744876Y-2647877D01*
X3806758Y-2597091D01*
X3857544Y-2535209D01*
X3895281Y-2464608D01*
X3918519Y-2388001D01*
X3926366Y-2308333D01*
X3924400Y-1512000D01*
X3822800Y-1410400D01*
X1803400Y-1410400D01*
X1752600Y-1410400D01*
X1732600Y-1410400D01*
X1732600Y-1359600D01*
X1752600Y-1359600D01*
X1752600Y-156867D01*
X1651000Y-55267D01*
X431400Y-53780D01*
X431400Y53301D01*
X3068787Y53301D01*
X3175806Y-53718D01*
X1905000Y-55267D01*
X1803400Y-156867D01*
X1803400Y-1359600D01*
X3822800Y-1359600D01*
X3924400Y-1258000D01*
X3925522Y-803435D01*
X4266599Y-1144512D01*
X4266599Y-1230219D01*
X4263666Y-1260001D01*
X4266599Y-1289783D01*
X4266599Y-1289791D01*
X4275373Y-1378876D01*
X4310048Y-1493183D01*
X4311114Y-1495177D01*
X4366357Y-1598529D01*
X4406013Y-1646849D01*
X4442136Y-1690865D01*
X4465274Y-1709854D01*
X5372944Y-2617525D01*
X5391934Y-2640664D01*
X5484270Y-2716443D01*
X5589616Y-2772751D01*
X5703923Y-2807426D01*
X5793008Y-2816200D01*
X5793016Y-2816200D01*
X5822798Y-2819133D01*
X5852580Y-2816200D01*
X8508378Y-2816200D01*
X8528350Y-2836172D01*
X8660426Y-2924423D01*
X8807182Y-2985211D01*
X8962977Y-3016200D01*
X9121823Y-3016200D01*
X9277618Y-2985211D01*
X9424374Y-2924423D01*
X9556450Y-2836172D01*
X9663201Y-2729421D01*
X9663201Y-4287420D01*
X8849482Y-5101140D01*
X8780383Y-5129761D01*
X8672220Y-5202034D01*
X8580234Y-5294020D01*
X8507961Y-5402183D01*
X8458179Y-5522369D01*
X8432800Y-5649956D01*
X8432800Y-5780044D01*
X8458179Y-5907631D01*
X8507961Y-6027817D01*
X8580234Y-6135980D01*
X8672220Y-6227966D01*
X8780383Y-6300239D01*
X8900569Y-6350021D01*
X9028156Y-6375400D01*
X9158244Y-6375400D01*
X9285831Y-6350021D01*
X9406017Y-6300239D01*
X9514180Y-6227966D01*
X9606166Y-6135980D01*
X9678439Y-6027817D01*
X9707060Y-5958718D01*
X10029546Y-5636232D01*
X19705690Y-5636232D01*
X19788492Y-5824600D01*
X22067600Y-5824600D01*
X22067600Y-4643600D01*
X22118400Y-4643600D01*
X22118400Y-5824600D01*
X24397508Y-5824600D01*
X24480310Y-5636232D01*
X24417288Y-5411797D01*
X24310196Y-5200879D01*
X24164014Y-5014907D01*
X23984359Y-4861027D01*
X23778136Y-4745152D01*
X23553269Y-4671736D01*
X23318400Y-4643600D01*
X22118400Y-4643600D01*
X22067600Y-4643600D01*
X20867600Y-4643600D01*
X20632731Y-4671736D01*
X20407864Y-4745152D01*
X20201641Y-4861027D01*
X20021986Y-5014907D01*
X19875804Y-5200879D01*
X19768712Y-5411797D01*
X19705690Y-5636232D01*
X10029546Y-5636232D01*
X10677325Y-4988454D01*
X10700464Y-4969464D01*
X10776243Y-4877128D01*
X10832551Y-4771782D01*
X10867226Y-4657475D01*
X10876000Y-4568390D01*
X10876000Y-4568382D01*
X10878933Y-4538600D01*
X10876000Y-4508818D01*
X10876000Y-3476577D01*
X14662200Y-3476577D01*
X14662200Y-3635423D01*
X14693189Y-3791218D01*
X14753977Y-3937974D01*
X14842228Y-4070050D01*
X14954550Y-4182372D01*
X15086626Y-4270623D01*
X15233382Y-4331411D01*
X15389177Y-4362400D01*
X15548023Y-4362400D01*
X15703818Y-4331411D01*
X15850574Y-4270623D01*
X15982650Y-4182372D01*
X16002622Y-4162400D01*
X17851818Y-4162400D01*
X17881600Y-4165333D01*
X17911382Y-4162400D01*
X17911390Y-4162400D01*
X18000475Y-4153626D01*
X18114782Y-4118951D01*
X18220128Y-4062643D01*
X18312464Y-3986864D01*
X18331458Y-3963720D01*
X19076726Y-3218452D01*
X19099864Y-3199464D01*
X19175643Y-3107128D01*
X19231951Y-3001782D01*
X19245119Y-2958374D01*
X19266626Y-2887476D01*
X19271166Y-2841377D01*
X19275400Y-2798390D01*
X19275400Y-2798382D01*
X19278333Y-2768600D01*
X19275400Y-2738818D01*
X19275400Y-2205803D01*
X21136600Y-2205803D01*
X21136600Y-2394197D01*
X21173354Y-2578972D01*
X21245449Y-2753025D01*
X21350115Y-2909670D01*
X21483330Y-3042885D01*
X21639975Y-3147551D01*
X21814028Y-3219646D01*
X21998803Y-3256400D01*
X22187197Y-3256400D01*
X22371972Y-3219646D01*
X22546025Y-3147551D01*
X22702670Y-3042885D01*
X22835885Y-2909670D01*
X22940551Y-2753025D01*
X23012646Y-2578972D01*
X23049400Y-2394197D01*
X23049400Y-2205803D01*
X23012646Y-2021028D01*
X22940551Y-1846975D01*
X22835885Y-1690330D01*
X22702670Y-1557115D01*
X22546025Y-1452449D01*
X22371972Y-1380354D01*
X22187197Y-1343600D01*
X21998803Y-1343600D01*
X21814028Y-1380354D01*
X21639975Y-1452449D01*
X21483330Y-1557115D01*
X21350115Y-1690330D01*
X21245449Y-1846975D01*
X21173354Y-2021028D01*
X21136600Y-2205803D01*
X19275400Y-2205803D01*
X19275400Y2394197D01*
X21136600Y2394197D01*
X21136600Y2205803D01*
X21173354Y2021028D01*
X21245449Y1846975D01*
X21350115Y1690330D01*
X21483330Y1557115D01*
X21639975Y1452449D01*
X21814028Y1380354D01*
X21998803Y1343600D01*
X22187197Y1343600D01*
X22371972Y1380354D01*
X22546025Y1452449D01*
X22702670Y1557115D01*
X22835885Y1690330D01*
X22940551Y1846975D01*
X23012646Y2021028D01*
X23049400Y2205803D01*
X23049400Y2394197D01*
X23012646Y2578972D01*
X22940551Y2753025D01*
X22835885Y2909670D01*
X22702670Y3042885D01*
X22546025Y3147551D01*
X22371972Y3219646D01*
X22187197Y3256400D01*
X21998803Y3256400D01*
X21814028Y3219646D01*
X21639975Y3147551D01*
X21483330Y3042885D01*
X21350115Y2909670D01*
X21245449Y2753025D01*
X21173354Y2578972D01*
X21136600Y2394197D01*
X19275400Y2394197D01*
X19275400Y4520578D01*
X19295372Y4540550D01*
X19383623Y4672626D01*
X19444411Y4819382D01*
X19475400Y4975177D01*
X19475400Y5134023D01*
X19444411Y5289818D01*
X19383623Y5436574D01*
X19295372Y5568650D01*
X19227790Y5636232D01*
X19705690Y5636232D01*
X19768712Y5411797D01*
X19875804Y5200879D01*
X20021986Y5014907D01*
X20201641Y4861027D01*
X20407864Y4745152D01*
X20632731Y4671736D01*
X20867600Y4643600D01*
X22067600Y4643600D01*
X22067600Y5824600D01*
X22118400Y5824600D01*
X22118400Y4643600D01*
X23318400Y4643600D01*
X23553269Y4671736D01*
X23778136Y4745152D01*
X23984359Y4861027D01*
X24164014Y5014907D01*
X24310196Y5200879D01*
X24417288Y5411797D01*
X24480310Y5636232D01*
X24397508Y5824600D01*
X22118400Y5824600D01*
X22067600Y5824600D01*
X19788492Y5824600D01*
X19705690Y5636232D01*
X19227790Y5636232D01*
X19183050Y5680972D01*
X19050974Y5769223D01*
X18904218Y5830011D01*
X18748423Y5861000D01*
X18589577Y5861000D01*
X18433782Y5830011D01*
X18287026Y5769223D01*
X18154950Y5680972D01*
X18042628Y5568650D01*
X17954377Y5436574D01*
X17893589Y5289818D01*
X17862600Y5134023D01*
X17862600Y4975177D01*
X17893589Y4819382D01*
X17954377Y4672626D01*
X18042628Y4540550D01*
X18062601Y4520577D01*
X18062601Y1770289D01*
X18035039Y1836829D01*
X17962766Y1944992D01*
X17870780Y2036978D01*
X17762617Y2109251D01*
X17642431Y2159033D01*
X17514844Y2184412D01*
X17384756Y2184412D01*
X17257169Y2159033D01*
X17136983Y2109251D01*
X17028820Y2036978D01*
X16936834Y1944992D01*
X16864561Y1836829D01*
X16814779Y1716643D01*
X16789400Y1589056D01*
X16789400Y1458968D01*
X16814779Y1331381D01*
X16864561Y1211195D01*
X16936834Y1103032D01*
X16941800Y1098066D01*
X16941801Y897708D01*
X16890415Y820805D01*
X16840633Y700619D01*
X16815254Y573032D01*
X16815254Y442944D01*
X16840633Y315357D01*
X16890415Y195171D01*
X16962688Y87008D01*
X17054674Y-4978D01*
X17162837Y-77251D01*
X17283023Y-127033D01*
X17410610Y-152412D01*
X17540698Y-152412D01*
X17668285Y-127033D01*
X17788471Y-77251D01*
X17896634Y-4978D01*
X17988620Y87008D01*
X18060893Y195171D01*
X18062600Y199293D01*
X18062600Y-2517421D01*
X17630422Y-2949600D01*
X16002622Y-2949600D01*
X15982650Y-2929628D01*
X15850574Y-2841377D01*
X15703818Y-2780589D01*
X15548023Y-2749600D01*
X15389177Y-2749600D01*
X15233382Y-2780589D01*
X15086626Y-2841377D01*
X14954550Y-2929628D01*
X14842228Y-3041950D01*
X14753977Y-3174026D01*
X14693189Y-3320782D01*
X14662200Y-3476577D01*
X10876000Y-3476577D01*
X10876000Y-342116D01*
X10904054Y-483154D01*
X11028917Y-784600D01*
X11210190Y-1055894D01*
X11440906Y-1286610D01*
X11712200Y-1467883D01*
X12013646Y-1592746D01*
X12333659Y-1656400D01*
X12659941Y-1656400D01*
X12979954Y-1592746D01*
X13281400Y-1467883D01*
X13552694Y-1286610D01*
X13783410Y-1055894D01*
X13964683Y-784600D01*
X14089546Y-483154D01*
X14153200Y-163141D01*
X14153200Y163141D01*
X14089546Y483154D01*
X13964683Y784600D01*
X13783410Y1055894D01*
X13552694Y1286610D01*
X13281400Y1467883D01*
X12979954Y1592746D01*
X12659941Y1656400D01*
X12333659Y1656400D01*
X12013646Y1592746D01*
X11712200Y1467883D01*
X11440906Y1286610D01*
X11210190Y1055894D01*
X11028917Y784600D01*
X10904054Y483154D01*
X10876000Y342116D01*
X10876000Y3429271D01*
X10904621Y3498369D01*
X10930000Y3625956D01*
X10930000Y3756044D01*
X10904621Y3883631D01*
X10854839Y4003817D01*
X10782566Y4111980D01*
X10690580Y4203966D01*
X10582417Y4276239D01*
X10462231Y4326021D01*
X10334644Y4351400D01*
X10204556Y4351400D01*
X10076969Y4326021D01*
X9956783Y4276239D01*
X9848620Y4203966D01*
X9756634Y4111980D01*
X9684361Y4003817D01*
X9634579Y3883631D01*
X9609200Y3756044D01*
X9609200Y3625956D01*
X9634579Y3498369D01*
X9663200Y3429271D01*
X9663200Y947328D01*
X9595781Y1014747D01*
X9381812Y1157717D01*
X9144063Y1256196D01*
X8891669Y1306400D01*
X8634331Y1306400D01*
X8381937Y1256196D01*
X8144188Y1157717D01*
X7930219Y1014747D01*
X7748253Y832781D01*
X7605283Y618812D01*
X7531366Y440361D01*
X7531366Y900000D01*
X7523519Y979668D01*
X7500281Y1056275D01*
X7462544Y1126876D01*
X7411758Y1188758D01*
X7349876Y1239544D01*
X7279275Y1277281D01*
X7202668Y1300519D01*
X7123000Y1308366D01*
X5323000Y1308366D01*
X5243332Y1300519D01*
X5166725Y1277281D01*
X5096124Y1239544D01*
X5034242Y1188758D01*
X4983456Y1126876D01*
X4945719Y1056275D01*
X4922481Y979668D01*
X4914634Y900000D01*
X4914634Y-77389D01*
X3926366Y910878D01*
X3926366Y2308333D01*
X3918519Y2388001D01*
X3895281Y2464608D01*
X3857544Y2535209D01*
X3806758Y2597091D01*
X3770100Y2627176D01*
X6094084Y2627176D01*
X6098058Y2607184D01*
X6151546Y2437740D01*
X6237063Y2281987D01*
X6351323Y2145910D01*
X6489935Y2034739D01*
X6647572Y1952746D01*
X6818176Y1903082D01*
X6959600Y1989554D01*
X6959600Y2768600D01*
X7010400Y2768600D01*
X7010400Y1989554D01*
X7151824Y1903082D01*
X7322428Y1952746D01*
X7480065Y2034739D01*
X7618677Y2145910D01*
X7732937Y2281987D01*
X7818454Y2437740D01*
X7871942Y2607184D01*
X7875916Y2627176D01*
X7789399Y2768600D01*
X7010400Y2768600D01*
X6959600Y2768600D01*
X6180601Y2768600D01*
X6094084Y2627176D01*
X3770100Y2627176D01*
X3744876Y2647877D01*
X3674275Y2685614D01*
X3597668Y2708852D01*
X3518000Y2716699D01*
X431400Y2716699D01*
X431400Y2823301D01*
X3518000Y2823301D01*
X3597668Y2831148D01*
X3674275Y2854386D01*
X3744876Y2892123D01*
X3806758Y2942909D01*
X3857544Y3004791D01*
X3895281Y3075392D01*
X3918519Y3151999D01*
X3926366Y3231667D01*
X3926366Y4564000D01*
X6076634Y4564000D01*
X6076634Y3564000D01*
X6084481Y3484332D01*
X6107719Y3407725D01*
X6145456Y3337124D01*
X6196242Y3275242D01*
X6212736Y3261706D01*
X6151546Y3150260D01*
X6098058Y2980816D01*
X6094084Y2960824D01*
X6180601Y2819400D01*
X6959600Y2819400D01*
X6959600Y2839400D01*
X7010400Y2839400D01*
X7010400Y2819400D01*
X7789399Y2819400D01*
X7875916Y2960824D01*
X7871942Y2980816D01*
X7818454Y3150260D01*
X7757264Y3261706D01*
X7773758Y3275242D01*
X7824544Y3337124D01*
X7862281Y3407725D01*
X7885519Y3484332D01*
X7893366Y3564000D01*
X7893366Y4564000D01*
X7885519Y4643668D01*
X7862281Y4720275D01*
X7824544Y4790876D01*
X7773758Y4852758D01*
X7711876Y4903544D01*
X7641275Y4941281D01*
X7564668Y4964519D01*
X7485000Y4972366D01*
X6485000Y4972366D01*
X6405332Y4964519D01*
X6328725Y4941281D01*
X6258124Y4903544D01*
X6196242Y4852758D01*
X6145456Y4790876D01*
X6107719Y4720275D01*
X6084481Y4643668D01*
X6076634Y4564000D01*
X3926366Y4564000D01*
X3926366Y5078333D01*
X3918519Y5158001D01*
X3895281Y5234608D01*
X3857544Y5305209D01*
X3806758Y5367091D01*
X3744876Y5417877D01*
X3674275Y5455614D01*
X3597668Y5478852D01*
X3518000Y5486699D01*
X2286000Y5486699D01*
X2286000Y5936380D01*
X2928210Y6578590D01*
X10250056Y6578590D01*
X10255022Y6573624D01*
X10363185Y6501351D01*
X10483371Y6451569D01*
X10610958Y6426190D01*
X10741046Y6426190D01*
X10868633Y6451569D01*
X10988819Y6501351D01*
X11096982Y6573624D01*
X11188968Y6665610D01*
X11261241Y6773773D01*
X11311023Y6893959D01*
X11336402Y7021546D01*
X11336402Y7151634D01*
X11311023Y7279221D01*
X11261241Y7399407D01*
X11188968Y7507570D01*
X11096982Y7599556D01*
X10988819Y7671829D01*
X10929016Y7696600D01*
X13241974Y7696600D01*
X13181242Y7646758D01*
X13181242Y7646758D01*
G37*
X13181242Y7646758D02*
X13130456Y7584876D01*
X13092719Y7514275D01*
X13069481Y7437668D01*
X13061634Y7358000D01*
X13061634Y6358000D01*
X13069481Y6278332D01*
X13092719Y6201725D01*
X13130456Y6131124D01*
X13181242Y6069242D01*
X13243124Y6018456D01*
X13313725Y5980719D01*
X13390332Y5957481D01*
X13470000Y5949634D01*
X14470000Y5949634D01*
X14549668Y5957481D01*
X14626275Y5980719D01*
X14696876Y6018456D01*
X14758758Y6069242D01*
X14769158Y6081915D01*
X14891458Y6016544D01*
X15062315Y5964715D01*
X15195477Y5951600D01*
X15284523Y5951600D01*
X15417685Y5964715D01*
X15588542Y6016544D01*
X15746005Y6100710D01*
X15884022Y6213978D01*
X15997290Y6351995D01*
X16081456Y6509458D01*
X16133285Y6680315D01*
X16150785Y6858000D01*
X16133285Y7035685D01*
X16081456Y7206542D01*
X15997290Y7364005D01*
X15884022Y7502022D01*
X15746005Y7615290D01*
X15593885Y7696600D01*
X17363301Y7696600D01*
X21204501Y7056400D01*
X20867600Y7056400D01*
X20632731Y7028264D01*
X20407864Y6954848D01*
X20201641Y6838973D01*
X20021986Y6685093D01*
X19875804Y6499121D01*
X19768712Y6288203D01*
X19705690Y6063768D01*
X19788492Y5875400D01*
X22067600Y5875400D01*
X22067600Y5895400D01*
X22118400Y5895400D01*
X22118400Y5875400D01*
X24397508Y5875400D01*
X24480310Y6063768D01*
X24417288Y6288203D01*
X24310196Y6499121D01*
X24274319Y6544764D01*
X24587600Y6492550D01*
X24587601Y-6492550D01*
X24274319Y-6544764D01*
X24310196Y-6499121D01*
X24417288Y-6288203D01*
X24480310Y-6063768D01*
X24397508Y-5875400D01*
X22118400Y-5875400D01*
X22118400Y-5895400D01*
X22067600Y-5895400D01*
X22067600Y-5875400D01*
X19788492Y-5875400D01*
X19705690Y-6063768D01*
X19768712Y-6288203D01*
X19875804Y-6499121D01*
X20021986Y-6685093D01*
X20201641Y-6838973D01*
X20407864Y-6954848D01*
X20632731Y-7028264D01*
X20867600Y-7056400D01*
X21204501Y-7056400D01*
X17363301Y-7696600D01*
X431400Y-7696600D01*
X431400Y-5486699D01*
X3518000Y-5486699D01*
X3597668Y-5478852D01*
X3674275Y-5455614D01*
X3744876Y-5417877D01*
X3806758Y-5367091D01*
X3857544Y-5305209D01*
X3895281Y-5234608D01*
X3918519Y-5158001D01*
X3926366Y-5078333D01*
X3926366Y-4787902D01*
X3938544Y-4787902D01*
X4066131Y-4762523D01*
X4186317Y-4712741D01*
X4294480Y-4640468D01*
X4386466Y-4548482D01*
X4458739Y-4440319D01*
X4508521Y-4320133D01*
X4533900Y-4192546D01*
X4533900Y-4062458D01*
X4508521Y-3934871D01*
X4458739Y-3814685D01*
X4386466Y-3706522D01*
X4294480Y-3614536D01*
X4186317Y-3542263D01*
X4066131Y-3492481D01*
X3938544Y-3467102D01*
X3926366Y-3467102D01*
X3926366Y-3231667D01*
X3918519Y-3151999D01*
X3895281Y-3075392D01*
X3857544Y-3004791D01*
X3806758Y-2942909D01*
X3744876Y-2892123D01*
X3674275Y-2854386D01*
X3597668Y-2831148D01*
X3518000Y-2823301D01*
X431400Y-2823301D01*
X431400Y-2716220D01*
X1651000Y-2714733D01*
X1752600Y-2613133D01*
X1752600Y-1410400D01*
X1803400Y-1410400D01*
X1803400Y-2613133D01*
X1905000Y-2714733D01*
X3518000Y-2716699D01*
X3597668Y-2708852D01*
X3674275Y-2685614D01*
X3744876Y-2647877D01*
X3806758Y-2597091D01*
X3857544Y-2535209D01*
X3895281Y-2464608D01*
X3918519Y-2388001D01*
X3926366Y-2308333D01*
X3924400Y-1512000D01*
X3822800Y-1410400D01*
X1803400Y-1410400D01*
X1752600Y-1410400D01*
X1732600Y-1410400D01*
X1732600Y-1359600D01*
X1752600Y-1359600D01*
X1752600Y-156867D01*
X1651000Y-55267D01*
X431400Y-53780D01*
X431400Y53301D01*
X3068787Y53301D01*
X3175806Y-53718D01*
X1905000Y-55267D01*
X1803400Y-156867D01*
X1803400Y-1359600D01*
X3822800Y-1359600D01*
X3924400Y-1258000D01*
X3925522Y-803435D01*
X4266599Y-1144512D01*
X4266599Y-1230219D01*
X4263666Y-1260001D01*
X4266599Y-1289783D01*
X4266599Y-1289791D01*
X4275373Y-1378876D01*
X4310048Y-1493183D01*
X4311114Y-1495177D01*
X4366357Y-1598529D01*
X4406013Y-1646849D01*
X4442136Y-1690865D01*
X4465274Y-1709854D01*
X5372944Y-2617525D01*
X5391934Y-2640664D01*
X5484270Y-2716443D01*
X5589616Y-2772751D01*
X5703923Y-2807426D01*
X5793008Y-2816200D01*
X5793016Y-2816200D01*
X5822798Y-2819133D01*
X5852580Y-2816200D01*
X8508378Y-2816200D01*
X8528350Y-2836172D01*
X8660426Y-2924423D01*
X8807182Y-2985211D01*
X8962977Y-3016200D01*
X9121823Y-3016200D01*
X9277618Y-2985211D01*
X9424374Y-2924423D01*
X9556450Y-2836172D01*
X9663201Y-2729421D01*
X9663201Y-4287420D01*
X8849482Y-5101140D01*
X8780383Y-5129761D01*
X8672220Y-5202034D01*
X8580234Y-5294020D01*
X8507961Y-5402183D01*
X8458179Y-5522369D01*
X8432800Y-5649956D01*
X8432800Y-5780044D01*
X8458179Y-5907631D01*
X8507961Y-6027817D01*
X8580234Y-6135980D01*
X8672220Y-6227966D01*
X8780383Y-6300239D01*
X8900569Y-6350021D01*
X9028156Y-6375400D01*
X9158244Y-6375400D01*
X9285831Y-6350021D01*
X9406017Y-6300239D01*
X9514180Y-6227966D01*
X9606166Y-6135980D01*
X9678439Y-6027817D01*
X9707060Y-5958718D01*
X10029546Y-5636232D01*
X19705690Y-5636232D01*
X19788492Y-5824600D01*
X22067600Y-5824600D01*
X22067600Y-4643600D01*
X22118400Y-4643600D01*
X22118400Y-5824600D01*
X24397508Y-5824600D01*
X24480310Y-5636232D01*
X24417288Y-5411797D01*
X24310196Y-5200879D01*
X24164014Y-5014907D01*
X23984359Y-4861027D01*
X23778136Y-4745152D01*
X23553269Y-4671736D01*
X23318400Y-4643600D01*
X22118400Y-4643600D01*
X22067600Y-4643600D01*
X20867600Y-4643600D01*
X20632731Y-4671736D01*
X20407864Y-4745152D01*
X20201641Y-4861027D01*
X20021986Y-5014907D01*
X19875804Y-5200879D01*
X19768712Y-5411797D01*
X19705690Y-5636232D01*
X10029546Y-5636232D01*
X10677325Y-4988454D01*
X10700464Y-4969464D01*
X10776243Y-4877128D01*
X10832551Y-4771782D01*
X10867226Y-4657475D01*
X10876000Y-4568390D01*
X10876000Y-4568382D01*
X10878933Y-4538600D01*
X10876000Y-4508818D01*
X10876000Y-3476577D01*
X14662200Y-3476577D01*
X14662200Y-3635423D01*
X14693189Y-3791218D01*
X14753977Y-3937974D01*
X14842228Y-4070050D01*
X14954550Y-4182372D01*
X15086626Y-4270623D01*
X15233382Y-4331411D01*
X15389177Y-4362400D01*
X15548023Y-4362400D01*
X15703818Y-4331411D01*
X15850574Y-4270623D01*
X15982650Y-4182372D01*
X16002622Y-4162400D01*
X17851818Y-4162400D01*
X17881600Y-4165333D01*
X17911382Y-4162400D01*
X17911390Y-4162400D01*
X18000475Y-4153626D01*
X18114782Y-4118951D01*
X18220128Y-4062643D01*
X18312464Y-3986864D01*
X18331458Y-3963720D01*
X19076726Y-3218452D01*
X19099864Y-3199464D01*
X19175643Y-3107128D01*
X19231951Y-3001782D01*
X19245119Y-2958374D01*
X19266626Y-2887476D01*
X19271166Y-2841377D01*
X19275400Y-2798390D01*
X19275400Y-2798382D01*
X19278333Y-2768600D01*
X19275400Y-2738818D01*
X19275400Y-2205803D01*
X21136600Y-2205803D01*
X21136600Y-2394197D01*
X21173354Y-2578972D01*
X21245449Y-2753025D01*
X21350115Y-2909670D01*
X21483330Y-3042885D01*
X21639975Y-3147551D01*
X21814028Y-3219646D01*
X21998803Y-3256400D01*
X22187197Y-3256400D01*
X22371972Y-3219646D01*
X22546025Y-3147551D01*
X22702670Y-3042885D01*
X22835885Y-2909670D01*
X22940551Y-2753025D01*
X23012646Y-2578972D01*
X23049400Y-2394197D01*
X23049400Y-2205803D01*
X23012646Y-2021028D01*
X22940551Y-1846975D01*
X22835885Y-1690330D01*
X22702670Y-1557115D01*
X22546025Y-1452449D01*
X22371972Y-1380354D01*
X22187197Y-1343600D01*
X21998803Y-1343600D01*
X21814028Y-1380354D01*
X21639975Y-1452449D01*
X21483330Y-1557115D01*
X21350115Y-1690330D01*
X21245449Y-1846975D01*
X21173354Y-2021028D01*
X21136600Y-2205803D01*
X19275400Y-2205803D01*
X19275400Y2394197D01*
X21136600Y2394197D01*
X21136600Y2205803D01*
X21173354Y2021028D01*
X21245449Y1846975D01*
X21350115Y1690330D01*
X21483330Y1557115D01*
X21639975Y1452449D01*
X21814028Y1380354D01*
X21998803Y1343600D01*
X22187197Y1343600D01*
X22371972Y1380354D01*
X22546025Y1452449D01*
X22702670Y1557115D01*
X22835885Y1690330D01*
X22940551Y1846975D01*
X23012646Y2021028D01*
X23049400Y2205803D01*
X23049400Y2394197D01*
X23012646Y2578972D01*
X22940551Y2753025D01*
X22835885Y2909670D01*
X22702670Y3042885D01*
X22546025Y3147551D01*
X22371972Y3219646D01*
X22187197Y3256400D01*
X21998803Y3256400D01*
X21814028Y3219646D01*
X21639975Y3147551D01*
X21483330Y3042885D01*
X21350115Y2909670D01*
X21245449Y2753025D01*
X21173354Y2578972D01*
X21136600Y2394197D01*
X19275400Y2394197D01*
X19275400Y4520578D01*
X19295372Y4540550D01*
X19383623Y4672626D01*
X19444411Y4819382D01*
X19475400Y4975177D01*
X19475400Y5134023D01*
X19444411Y5289818D01*
X19383623Y5436574D01*
X19295372Y5568650D01*
X19227790Y5636232D01*
X19705690Y5636232D01*
X19768712Y5411797D01*
X19875804Y5200879D01*
X20021986Y5014907D01*
X20201641Y4861027D01*
X20407864Y4745152D01*
X20632731Y4671736D01*
X20867600Y4643600D01*
X22067600Y4643600D01*
X22067600Y5824600D01*
X22118400Y5824600D01*
X22118400Y4643600D01*
X23318400Y4643600D01*
X23553269Y4671736D01*
X23778136Y4745152D01*
X23984359Y4861027D01*
X24164014Y5014907D01*
X24310196Y5200879D01*
X24417288Y5411797D01*
X24480310Y5636232D01*
X24397508Y5824600D01*
X22118400Y5824600D01*
X22067600Y5824600D01*
X19788492Y5824600D01*
X19705690Y5636232D01*
X19227790Y5636232D01*
X19183050Y5680972D01*
X19050974Y5769223D01*
X18904218Y5830011D01*
X18748423Y5861000D01*
X18589577Y5861000D01*
X18433782Y5830011D01*
X18287026Y5769223D01*
X18154950Y5680972D01*
X18042628Y5568650D01*
X17954377Y5436574D01*
X17893589Y5289818D01*
X17862600Y5134023D01*
X17862600Y4975177D01*
X17893589Y4819382D01*
X17954377Y4672626D01*
X18042628Y4540550D01*
X18062601Y4520577D01*
X18062601Y1770289D01*
X18035039Y1836829D01*
X17962766Y1944992D01*
X17870780Y2036978D01*
X17762617Y2109251D01*
X17642431Y2159033D01*
X17514844Y2184412D01*
X17384756Y2184412D01*
X17257169Y2159033D01*
X17136983Y2109251D01*
X17028820Y2036978D01*
X16936834Y1944992D01*
X16864561Y1836829D01*
X16814779Y1716643D01*
X16789400Y1589056D01*
X16789400Y1458968D01*
X16814779Y1331381D01*
X16864561Y1211195D01*
X16936834Y1103032D01*
X16941800Y1098066D01*
X16941801Y897708D01*
X16890415Y820805D01*
X16840633Y700619D01*
X16815254Y573032D01*
X16815254Y442944D01*
X16840633Y315357D01*
X16890415Y195171D01*
X16962688Y87008D01*
X17054674Y-4978D01*
X17162837Y-77251D01*
X17283023Y-127033D01*
X17410610Y-152412D01*
X17540698Y-152412D01*
X17668285Y-127033D01*
X17788471Y-77251D01*
X17896634Y-4978D01*
X17988620Y87008D01*
X18060893Y195171D01*
X18062600Y199293D01*
X18062600Y-2517421D01*
X17630422Y-2949600D01*
X16002622Y-2949600D01*
X15982650Y-2929628D01*
X15850574Y-2841377D01*
X15703818Y-2780589D01*
X15548023Y-2749600D01*
X15389177Y-2749600D01*
X15233382Y-2780589D01*
X15086626Y-2841377D01*
X14954550Y-2929628D01*
X14842228Y-3041950D01*
X14753977Y-3174026D01*
X14693189Y-3320782D01*
X14662200Y-3476577D01*
X10876000Y-3476577D01*
X10876000Y-342116D01*
X10904054Y-483154D01*
X11028917Y-784600D01*
X11210190Y-1055894D01*
X11440906Y-1286610D01*
X11712200Y-1467883D01*
X12013646Y-1592746D01*
X12333659Y-1656400D01*
X12659941Y-1656400D01*
X12979954Y-1592746D01*
X13281400Y-1467883D01*
X13552694Y-1286610D01*
X13783410Y-1055894D01*
X13964683Y-784600D01*
X14089546Y-483154D01*
X14153200Y-163141D01*
X14153200Y163141D01*
X14089546Y483154D01*
X13964683Y784600D01*
X13783410Y1055894D01*
X13552694Y1286610D01*
X13281400Y1467883D01*
X12979954Y1592746D01*
X12659941Y1656400D01*
X12333659Y1656400D01*
X12013646Y1592746D01*
X11712200Y1467883D01*
X11440906Y1286610D01*
X11210190Y1055894D01*
X11028917Y784600D01*
X10904054Y483154D01*
X10876000Y342116D01*
X10876000Y3429271D01*
X10904621Y3498369D01*
X10930000Y3625956D01*
X10930000Y3756044D01*
X10904621Y3883631D01*
X10854839Y4003817D01*
X10782566Y4111980D01*
X10690580Y4203966D01*
X10582417Y4276239D01*
X10462231Y4326021D01*
X10334644Y4351400D01*
X10204556Y4351400D01*
X10076969Y4326021D01*
X9956783Y4276239D01*
X9848620Y4203966D01*
X9756634Y4111980D01*
X9684361Y4003817D01*
X9634579Y3883631D01*
X9609200Y3756044D01*
X9609200Y3625956D01*
X9634579Y3498369D01*
X9663200Y3429271D01*
X9663200Y947328D01*
X9595781Y1014747D01*
X9381812Y1157717D01*
X9144063Y1256196D01*
X8891669Y1306400D01*
X8634331Y1306400D01*
X8381937Y1256196D01*
X8144188Y1157717D01*
X7930219Y1014747D01*
X7748253Y832781D01*
X7605283Y618812D01*
X7531366Y440361D01*
X7531366Y900000D01*
X7523519Y979668D01*
X7500281Y1056275D01*
X7462544Y1126876D01*
X7411758Y1188758D01*
X7349876Y1239544D01*
X7279275Y1277281D01*
X7202668Y1300519D01*
X7123000Y1308366D01*
X5323000Y1308366D01*
X5243332Y1300519D01*
X5166725Y1277281D01*
X5096124Y1239544D01*
X5034242Y1188758D01*
X4983456Y1126876D01*
X4945719Y1056275D01*
X4922481Y979668D01*
X4914634Y900000D01*
X4914634Y-77389D01*
X3926366Y910878D01*
X3926366Y2308333D01*
X3918519Y2388001D01*
X3895281Y2464608D01*
X3857544Y2535209D01*
X3806758Y2597091D01*
X3770100Y2627176D01*
X6094084Y2627176D01*
X6098058Y2607184D01*
X6151546Y2437740D01*
X6237063Y2281987D01*
X6351323Y2145910D01*
X6489935Y2034739D01*
X6647572Y1952746D01*
X6818176Y1903082D01*
X6959600Y1989554D01*
X6959600Y2768600D01*
X7010400Y2768600D01*
X7010400Y1989554D01*
X7151824Y1903082D01*
X7322428Y1952746D01*
X7480065Y2034739D01*
X7618677Y2145910D01*
X7732937Y2281987D01*
X7818454Y2437740D01*
X7871942Y2607184D01*
X7875916Y2627176D01*
X7789399Y2768600D01*
X7010400Y2768600D01*
X6959600Y2768600D01*
X6180601Y2768600D01*
X6094084Y2627176D01*
X3770100Y2627176D01*
X3744876Y2647877D01*
X3674275Y2685614D01*
X3597668Y2708852D01*
X3518000Y2716699D01*
X431400Y2716699D01*
X431400Y2823301D01*
X3518000Y2823301D01*
X3597668Y2831148D01*
X3674275Y2854386D01*
X3744876Y2892123D01*
X3806758Y2942909D01*
X3857544Y3004791D01*
X3895281Y3075392D01*
X3918519Y3151999D01*
X3926366Y3231667D01*
X3926366Y4564000D01*
X6076634Y4564000D01*
X6076634Y3564000D01*
X6084481Y3484332D01*
X6107719Y3407725D01*
X6145456Y3337124D01*
X6196242Y3275242D01*
X6212736Y3261706D01*
X6151546Y3150260D01*
X6098058Y2980816D01*
X6094084Y2960824D01*
X6180601Y2819400D01*
X6959600Y2819400D01*
X6959600Y2839400D01*
X7010400Y2839400D01*
X7010400Y2819400D01*
X7789399Y2819400D01*
X7875916Y2960824D01*
X7871942Y2980816D01*
X7818454Y3150260D01*
X7757264Y3261706D01*
X7773758Y3275242D01*
X7824544Y3337124D01*
X7862281Y3407725D01*
X7885519Y3484332D01*
X7893366Y3564000D01*
X7893366Y4564000D01*
X7885519Y4643668D01*
X7862281Y4720275D01*
X7824544Y4790876D01*
X7773758Y4852758D01*
X7711876Y4903544D01*
X7641275Y4941281D01*
X7564668Y4964519D01*
X7485000Y4972366D01*
X6485000Y4972366D01*
X6405332Y4964519D01*
X6328725Y4941281D01*
X6258124Y4903544D01*
X6196242Y4852758D01*
X6145456Y4790876D01*
X6107719Y4720275D01*
X6084481Y4643668D01*
X6076634Y4564000D01*
X3926366Y4564000D01*
X3926366Y5078333D01*
X3918519Y5158001D01*
X3895281Y5234608D01*
X3857544Y5305209D01*
X3806758Y5367091D01*
X3744876Y5417877D01*
X3674275Y5455614D01*
X3597668Y5478852D01*
X3518000Y5486699D01*
X2286000Y5486699D01*
X2286000Y5936380D01*
X2928210Y6578590D01*
X10250056Y6578590D01*
X10255022Y6573624D01*
X10363185Y6501351D01*
X10483371Y6451569D01*
X10610958Y6426190D01*
X10741046Y6426190D01*
X10868633Y6451569D01*
X10988819Y6501351D01*
X11096982Y6573624D01*
X11188968Y6665610D01*
X11261241Y6773773D01*
X11311023Y6893959D01*
X11336402Y7021546D01*
X11336402Y7151634D01*
X11311023Y7279221D01*
X11261241Y7399407D01*
X11188968Y7507570D01*
X11096982Y7599556D01*
X10988819Y7671829D01*
X10929016Y7696600D01*
X13241974Y7696600D01*
X13181242Y7646758D01*
M02*
