M48
; DRILL file {KiCad (5.1.4)-1} date 09/27/2019 16:29:40
; FORMAT={-:-/ absolute / inch / decimal}
; #@! TF.CreationDate,2019-09-27T16:29:40+02:00
; #@! TF.GenerationSoftware,Kicad,Pcbnew,(5.1.4)-1
; #@! TF.FileFunction,Plated,1,2,PTH
FMAT,2
INCH
T1C0.0118
T2C0.0157
T3C0.0256
T4C0.0354
%
G90
G05
T1
X0.1525Y-0.1625
X0.189Y-0.226
X0.358Y-0.225
X0.4043Y0.1453
X0.4203Y0.279
X0.5376Y0.1256
X0.687Y0.06
X0.688Y0.02
T2
X0.356Y-0.087
X0.484Y-0.092
X0.609Y-0.14
X0.735Y0.199
T3
X0.55Y0.27
X0.6Y0.27
X0.275Y0.16
X0.275Y0.11
T4
X0.245Y0.0
X0.345Y0.0
T4
G00X0.8383Y0.2303
M15
G01X0.9013Y0.2303
M16
G05
G00X0.8383Y-0.2303
M15
G01X0.9013Y-0.2303
M16
G05
T0
M30
